<?xml version="1.0" encoding="utf-8"?>
<!-- Generator: Adobe Illustrator 19.1.1, SVG Export Plug-In . SVG Version: 6.00 Build 0)  -->
<svg version="1.1" id="Layer_1" xmlns="http://www.w3.org/2000/svg" xmlns:xlink="http://www.w3.org/1999/xlink" x="0px" y="0px"
	 viewBox="961 161 3822.9 946" style="enable-background:new 961 161 3822.9 946;" xml:space="preserve">
<style type="text/css">
	.st0{fill:url(#합치기_1_1_);}
	.st1{fill:url(#패스_3_1_);}
</style>
<g id="Layer_2">
	<g id="Layer_1-2">
		
			<linearGradient id="합치기_1_1_" gradientUnits="userSpaceOnUse" x1="2872.7668" y1="254.9967" x2="2873.5068" y2="255.7866" gradientTransform="matrix(946 0 0 946 -2716551.5 -240964.5)">
			<stop  offset="0" style="stop-color:#4D2FE5"/>
			<stop  offset="0.53" style="stop-color:#D51FD5"/>
			<stop  offset="1" style="stop-color:#FB767C"/>
		</linearGradient>
		<path id="합치기_1" class="st0" d="M961,634c0-261.2,211.8-473,473-473s473,211.8,473,473s-211.8,473-473,473
			S961,895.2,961,634z M1005,634c0,236.5,192.4,429,429,429s429-192.5,429-429s-192.4-429-429-429S1005,397.5,1005,634z M1219,915.8
			c-31.4-0.6-53-21.6-61.2-38.3s-8.4-38.5-0.5-55s159.3-322.3,164.3-332.8s4.5-9.9,4.5-21.6s0-135.8,0-135.8s-12.1,0-19.3,0
			c-17.5,0-25.3-12.7-25.4-23c-0.1-10,6.9-23.5,24.5-23.5c15,0,41.3,0,66.7,0l-0.2,71.2h53.6v23.3h-53.5V404h53.5v23.2h-53.5V487
			c0,6-0.8,6.2-3.8,12.5c-3,6.3-162.8,329.7-167.8,340.5c-5,10.8,5.1,28.9,20.2,29.2c15.1,0.3,407-0.2,426.2-0.2
			s24.4-22.8,20.6-30.1s-167-336.9-169.9-343.2c-2.8-6.3-2.5-5.8-2.3-16s0-194,0-194h68.3c12.6-0.1,22.9,10,23,22.6
			c0.1,12.6-10,22.9-22.6,23h-0.4c-6.3,0.1-21.9,0-21.9,0s0,135.6,0,143.3s2.1,9.4,7.1,19.5s149.1,300.5,158.9,320.2
			c9.8,19.7,13.2,47.9-4.3,71.4s-38.2,29.1-54.7,29.3c-13.4,0.1-269,1-380.6,1C1242.8,915.9,1224.8,915.9,1219,915.8z M1417,800
			c0-8.8,7.2-16,16-16s16,7.2,16,16s-7.2,16-16,16S1417,808.8,1417,800z M1464.6,796.7c-1.9-1.8-1.9-4.8-0.1-6.7
			c1.8-1.9,4.8-1.9,6.7-0.1c1.9,1.8,1.9,4.8,0.1,6.7c-0.9,0.9-2.1,1.4-3.3,1.4C1466.7,798,1465.5,797.5,1464.6,796.7z M1394.9,796.7
			c-1.9-1.9-1.9-4.9,0-6.7c1.9-1.9,4.9-1.9,6.7,0c1.9,1.9,1.9,4.9,0,6.7c-0.9,0.9-2.1,1.4-3.4,1.4
			C1397,798,1395.8,797.5,1394.9,796.7z M1485.6,784.1c-6.4-6.1-6.7-16.2-0.7-22.6c6.1-6.4,16.2-6.7,22.6-0.7
			c6.4,6,6.7,16.2,0.7,22.6l-0.3,0.4c-3,3.1-7.2,4.8-11.5,4.8C1492.3,788.5,1488.5,786.9,1485.6,784.1L1485.6,784.1z M1359.1,783.7
			c-5.9-6.2-5.6-16.1,0.7-21.9c6.2-5.9,16.1-5.6,21.9,0.7c5.7,6.1,5.6,15.7-0.3,21.6c-2.9,2.9-6.8,4.5-10.8,4.4
			C1366.3,788.5,1362.2,786.8,1359.1,783.7L1359.1,783.7z M1428.6,774.3c0-2.6,2.1-4.8,4.8-4.8c2.6,0,4.8,2.1,4.8,4.8
			s-2.1,4.8-4.8,4.8c0,0,0,0,0,0C1430.7,779.1,1428.6,776.9,1428.6,774.3C1428.6,774.3,1428.6,774.3,1428.6,774.3z M1428.6,761
			c0-2.6,2.1-4.8,4.7-4.8c2.6,0,4.8,2.1,4.8,4.7s-2.1,4.8-4.7,4.8c0,0,0,0,0,0C1430.7,765.7,1428.6,763.6,1428.6,761z M1475.8,758.4
			c-1.8-1.8-1.8-4.8,0-6.7c1.8-1.8,4.8-1.8,6.7,0c1.8,1.8,1.8,4.8,0,6.7c-0.9,0.9-2.1,1.4-3.3,1.4
			C1477.9,759.8,1476.7,759.3,1475.8,758.4z M1384.5,758.4c-1.9-1.9-1.8-4.9,0-6.7c1.9-1.9,4.9-1.8,6.7,0c1.9,1.9,1.8,4.9,0,6.7
			c-0.9,0.9-2.1,1.4-3.3,1.4C1386.6,759.8,1385.4,759.3,1384.5,758.4z M1428.6,747.5c0-2.6,2.1-4.8,4.8-4.8c2.6,0,4.8,2.1,4.8,4.8
			s-2.1,4.8-4.8,4.8c0,0,0,0,0,0C1430.7,752.3,1428.6,750.2,1428.6,747.5C1428.6,747.5,1428.6,747.5,1428.6,747.5z M1466.4,748.9
			c-1.9-1.9-1.8-4.9,0-6.7s4.9-1.8,6.7,0c1.9,1.9,1.8,4.9,0,6.7c-0.9,0.9-2.1,1.4-3.4,1.4C1468.5,750.3,1467.3,749.8,1466.4,748.9z
			 M1393.9,748.9c-1.9-1.9-1.8-4.9,0-6.7s4.9-1.8,6.7,0c1.9,1.9,1.8,4.9,0,6.7c-0.9,0.9-2.1,1.4-3.4,1.4
			C1396,750.3,1394.8,749.8,1393.9,748.9z M1513.9,747.1c-1.9-1.9-1.8-4.9,0-6.7c1.9-1.9,4.9-1.8,6.7,0c1.9,1.9,1.8,4.9,0,6.7
			c-0.9,0.9-2.1,1.4-3.4,1.4C1516,748.5,1514.8,748,1513.9,747.1z M1344.7,747.1c-1.9-1.9-1.8-4.9,0-6.7c1.9-1.9,4.9-1.8,6.7,0
			c1.9,1.9,1.8,4.9,0,6.7c-0.9,0.9-2.1,1.4-3.4,1.4C1346.8,748.5,1345.6,748,1344.7,747.1z M1456.9,739.4c-1.9-1.9-1.8-4.9,0-6.7
			c1.9-1.9,4.9-1.8,6.7,0c1.9,1.9,1.8,4.9,0,6.7c-0.9,0.9-2.1,1.4-3.4,1.4C1459,740.8,1457.7,740.3,1456.9,739.4z M1403.4,739.4
			c-1.9-1.9-1.8-4.9,0-6.7s4.9-1.8,6.7,0c1.9,1.9,1.8,4.9,0,6.7c-0.9,0.9-2.1,1.4-3.4,1.4C1405.5,740.8,1404.3,740.3,1403.4,739.4z
			 M1405,709.5c0-15.7,12.8-28.5,28.5-28.5s28.5,12.8,28.5,28.5s-12.8,28.5-28.5,28.5S1405,725.2,1405,709.5L1405,709.5z M1508,709
			c0-8.8,7.2-16,16-16s16,7.2,16,16s-7.2,16-16,16S1508,717.8,1508,709z M1327,709c0-8.8,7.2-16,16-16s16,7.2,16,16s-7.2,16-16,16
			S1327,717.8,1327,709z M1493.4,709.3c0-2.6,2.1-4.8,4.8-4.8s4.8,2.1,4.8,4.8s-2.1,4.8-4.8,4.8c0,0,0,0,0,0
			C1495.5,714.1,1493.4,712,1493.4,709.3C1493.4,709.3,1493.4,709.3,1493.4,709.3z M1480,709.3c0-2.6,2.1-4.7,4.8-4.7
			c2.6,0,4.7,2.1,4.7,4.8c0,2.6-2.1,4.7-4.7,4.7C1482.1,714.1,1480,712,1480,709.3C1480,709.3,1480,709.3,1480,709.3z M1466.6,709.3
			c0-2.6,2.1-4.7,4.8-4.7c2.6,0,4.7,2.1,4.7,4.8c0,2.6-2.1,4.7-4.7,4.7C1468.7,714.1,1466.6,712,1466.6,709.3
			C1466.6,709.3,1466.6,709.3,1466.6,709.3z M1390.9,709.3c0-2.6,2.1-4.8,4.8-4.8c2.6,0,4.8,2.1,4.8,4.8s-2.1,4.8-4.8,4.8
			C1393.1,714.1,1390.9,712,1390.9,709.3L1390.9,709.3z M1377.5,709.3c0-2.6,2.1-4.7,4.8-4.7c2.6,0,4.7,2.1,4.7,4.8
			c0,2.6-2.1,4.7-4.7,4.7C1379.7,714.1,1377.5,712,1377.5,709.3C1377.5,709.3,1377.5,709.3,1377.5,709.3z M1364.1,709.3
			c0-2.6,2.1-4.8,4.8-4.8c2.6,0,4.8,2.1,4.8,4.8s-2.1,4.8-4.8,4.8C1366.3,714.1,1364.1,712,1364.1,709.3L1364.1,709.3z M1456.9,686
			c-1.9-1.9-1.8-4.9,0-6.7s4.9-1.8,6.7,0c1.9,1.9,1.8,4.9,0,6.7c-0.9,0.9-2.1,1.4-3.3,1.4C1459,687.4,1457.8,686.9,1456.9,686z
			 M1403.4,686c-1.9-1.9-1.8-4.9,0-6.7c1.9-1.9,4.9-1.8,6.7,0c1.9,1.9,1.8,4.9,0,6.7c-0.9,0.9-2.1,1.4-3.4,1.4
			C1405.5,687.4,1404.3,686.9,1403.4,686z M1513.9,677.7c-1.9-1.9-1.9-4.9,0-6.7c1.9-1.9,4.9-1.9,6.7,0c1.9,1.9,1.9,4.9,0,6.7
			c-0.9,0.9-2.1,1.4-3.4,1.4C1516,679.1,1514.8,678.6,1513.9,677.7L1513.9,677.7z M1345.7,677.7c-1.9-1.9-1.9-4.9,0-6.7
			c1.9-1.9,4.9-1.9,6.7,0c1.9,1.9,1.9,4.9,0,6.7c-0.9,0.9-2.1,1.4-3.4,1.4C1347.8,679.1,1346.6,678.6,1345.7,677.7L1345.7,677.7z
			 M1466.4,676.5c-1.9-1.9-1.8-4.9,0-6.7c1.9-1.9,4.9-1.8,6.7,0s1.8,4.9,0,6.7c-0.9,0.9-2.1,1.4-3.3,1.4
			C1468.5,677.9,1467.3,677.4,1466.4,676.5z M1393.9,676.5c-1.9-1.9-1.8-4.9,0-6.7c1.9-1.9,4.9-1.8,6.7,0c1.9,1.9,1.8,4.9,0,6.7
			c-0.9,0.9-2.1,1.4-3.3,1.4C1396,677.9,1394.8,677.4,1393.9,676.5z M1428.8,671.2c0-2.6,2.1-4.7,4.8-4.7c2.6,0,4.7,2.1,4.7,4.7
			c0,2.6-2.1,4.7-4.7,4.7C1430.9,675.9,1428.8,673.8,1428.8,671.2C1428.8,671.2,1428.8,671.2,1428.8,671.2z M1475.8,667
			c-1.8-1.8-1.8-4.8,0-6.7c1.8-1.8,4.8-1.8,6.7,0c1.8,1.8,1.8,4.8,0,6.7c-0.9,0.9-2.1,1.4-3.3,1.4
			C1477.9,668.4,1476.7,667.9,1475.8,667z M1384.5,667c-1.9-1.9-1.8-4.9,0-6.7c1.9-1.9,4.9-1.8,6.7,0c1.9,1.9,1.8,4.9,0,6.7
			c-0.9,0.9-2.1,1.4-3.3,1.4C1386.6,668.4,1385.4,667.9,1384.5,667z M1428.8,657.7c0-2.6,2.1-4.7,4.8-4.7c2.6,0,4.7,2.1,4.7,4.8
			c0,2.6-2.1,4.7-4.7,4.7l0,0C1430.9,662.5,1428.8,660.3,1428.8,657.7L1428.8,657.7z M1358.8,657.2c-6.4-6.1-6.8-16.2-0.7-22.6
			c6.1-6.4,16.2-6.8,22.6-0.7c6.4,6,6.8,16.2,0.7,22.6c-0.1,0.1-0.2,0.3-0.4,0.4c-3,3.1-7.2,4.8-11.5,4.8
			C1365.5,661.7,1361.6,660.1,1358.8,657.2L1358.8,657.2z M1485.9,656.9c-5.9-6.2-5.5-16.1,0.7-21.9s16.1-5.5,21.9,0.7
			c5.7,6.1,5.6,15.6-0.3,21.6c-2.9,2.9-6.8,4.5-10.8,4.4C1493.1,661.7,1488.9,659.9,1485.9,656.9z M1428.7,644.3
			c0-2.6,2.1-4.8,4.8-4.8c2.6,0,4.8,2.1,4.8,4.8c0,2.6-2.1,4.8-4.8,4.8l0,0l0,0C1430.9,649.1,1428.7,647,1428.7,644.3L1428.7,644.3z
			 M1417,618c0-8.8,7.2-16,16-16s16,7.2,16,16s-7.2,16-16,16S1417,626.8,1417,618z M1464.6,628.4c-1.9-1.9-1.8-4.9,0-6.7
			c1.9-1.9,4.9-1.8,6.7,0c1.9,1.9,1.8,4.9,0,6.7c-0.9,0.9-2.1,1.4-3.3,1.4C1466.7,629.8,1465.5,629.3,1464.6,628.4z M1394.9,628.1
			c-1.8-1.8-1.8-4.8,0-6.7c1.8-1.8,4.8-1.8,6.7,0c1.8,1.8,1.8,4.8,0,6.7c-0.9,0.9-2.1,1.4-3.3,1.4
			C1397,629.4,1395.8,628.9,1394.9,628.1z"/>
		<linearGradient id="패스_3_1_" gradientUnits="userSpaceOnUse" x1="2094.2" y1="631.78" x2="4783.8799" y2="631.78">
			<stop  offset="0" style="stop-color:#4D2FE5"/>
			<stop  offset="0.53" style="stop-color:#D51FD5"/>
			<stop  offset="1" style="stop-color:#FB767C"/>
		</linearGradient>
		<path id="패스_3" class="st1" d="M2094.2,839H2232c150.6,0,212.2-90.7,212.2-207.8c0-51-12.3-96.9-42.6-135
			c-49.3-66.6-124.3-71.7-175.8-71.7h-131.6V839z M2177.6,498h59.4c50.4,0,78.4,19,95.8,41.4c19.6,25.8,28,60.5,28,93
			c0,74.5-34.7,133.3-124.3,133.3h-58.8L2177.6,498z M2627.3,839h232.4v-73.4h-149V665.4h146.2V592h-146.1v-94h149v-73.4h-232.4
			L2627.3,839z M3015.4,839h93.5l96.3-159l100.2,159h95.2l-143.4-216.2l128.8-198.2H3292l-83.4,135.5L3124,424.6h-94.6l129.9,196.6
			L3015.4,839z M3570.4,839h219.5v-73.4h-136.1v-341h-83.4L3570.4,839z M4041.4,757.8h163.5l30.2,81.2h91.3l-164.2-414.4h-73.4
			l-168,414.4h90.7L4041.4,757.8z M4182.5,691.2h-119.4l58.8-168L4182.5,691.2z M4493.2,839h127.7c58.8,0,85.1-3.9,118.2-29.1
			c29.1-20.2,44.8-55.4,44.8-93c0-17.9-2.8-76.2-72.2-99.7c31.4-17.4,51-47,51-85.1c0-34.2-12.3-64.4-40.3-82.9
			c-21.3-16.2-52.6-24.6-93-24.6h-136.1V839z M4576.7,498h45.9c15.1,0,27.4,1.7,37,6.2c11.8,5,23,17.9,23,39.2
			c0,19.6-7.3,33-23.5,41.4c-10.6,4.5-24.1,5.6-35.8,5.6h-46.5L4576.7,498z M4576.7,660.4h56c14.6,0,28.6,0,42,5.6
			c16.8,7.3,29.1,21.8,29.1,45.9c0,26.3-12.9,40.3-29.7,47.6c-12.9,5.6-28,6.2-38.6,6.2h-58.8L4576.7,660.4z"/>
	</g>
</g>
</svg>
