<?xml version="1.0" encoding="utf-8"?>
<!-- Generator: Adobe Illustrator 19.1.1, SVG Export Plug-In . SVG Version: 6.00 Build 0)  -->
<svg version="1.1" id="Layer_1" xmlns="http://www.w3.org/2000/svg" xmlns:xlink="http://www.w3.org/1999/xlink" x="0px" y="0px"
	 viewBox="0 0 512 512" style="enable-background:new 0 0 512 512;" xml:space="preserve">
<style type="text/css">
	.st0{opacity:0.1;}
	.st1{fill:#1BDBC4;}
</style>
<g>
	<g class="st0">
		<path class="st1" d="M146.4,103.9L146.4,103.9L146.4,103.9C146.4,103.7,146.4,103.7,146.4,103.9z"/>
		<path class="st1" d="M427.2,359.6c0-0.1,0.1-0.1,0.1-0.2c-0.2,0.4-0.6,0.6-0.9,1C426.7,360,426.9,359.8,427.2,359.6z"/>
		<path class="st1" d="M35.3,383.6c0.2,0.5,0.4,0.9,0.6,1.3c0.2,0.5,0.5,1.1,0.9,1.6c-0.9-1.7-1.6-3.6-2.5-5.3
			C34.7,382.1,34.9,382.9,35.3,383.6z"/>
		<path class="st1" d="M220.4,312.4c0.1,0.5,0.1,1,0.1,1.5c0-0.4-0.1-0.7-0.1-1.2V312.4z"/>
		<path class="st1" d="M37.3,387.9c0,0.1,0.1,0.1,0.1,0.2c-0.1-0.2-0.2-0.4-0.2-0.6C37.2,387.7,37.2,387.8,37.3,387.9z"/>
		<path class="st1" d="M470,104.5c1.1,1.5,2.1,3.1,2.9,4.7C472.1,107.8,471.1,106.2,470,104.5z"/>
	</g>
	<g>
		<path class="st1" d="M462.7,305c-0.1,0.2-0.2,0.5-0.5,0.9v0.1c-1.5,2.1-3.2,3.9-5.3,5.6c-4.2,3.3-9.7,5.9-16.4,7.4
			c-4.3,1-9.1,1.5-14.4,1.5c-33.1,0.4-75.3-18-104.9-43.8c-7.1-6.3-13.6-12.9-19-19.9c-0.4-0.4-0.6-0.9-1-1.3
			c-2.9-3.8-5.4-7.6-7.4-11.3l1.2-0.5c1-0.4,2.1-0.9,3.2-1.3c0.2-0.1,0.6-0.2,0.9-0.4c4-1.6,7.4-5.3,9.4-11.2
			c0.5-1.2,0.9-2.7,1.2-4.2c0-0.1,0-0.1,0.1-0.2c0.2-1.3,0.6-2.7,0.9-4.3c0.4-2.2,0.6-4.5,0.7-7.1c0.4-5.9,0.1-12.5-0.7-19.4
			c-0.9-7.7-2.3-16-4.4-24.4c-1.2-5.2-2.7-10.3-4.4-15.6c-6.7-21.5-16.7-43.4-28.3-61.7c-2.6-3.9-5.2-7.6-7.7-11.2
			c-0.6-1-1.3-1.8-2-2.7c-4.8-6.1-9.6-11-14-14.8c-6.5-5.5-12.4-8.6-17.7-9.3c-1.7-0.2-3.4-0.1-4.9,0.1h-0.1c-1.3,0.5-2.7,1.1-4,1.6
			c0.2-0.1,0.4-0.2,0.6-0.4c0.1-0.1,0.4-0.1,0.5-0.2l-0.5,0.2c-2.5,1-4.9,2-7.2,3.1l-1.3,0.6l0,0h-0.1c-4.7,2.1-10.7,5-15.3,7.2
			c0.7-0.4,1.5-0.5,2.3-0.6c1.3-0.1,2.8,0.1,4.4,0.6c4.4,1.3,9.8,5.2,16.1,11.4c4.4,4.3,9.1,9.8,14.1,16.4c0.2,0.4,0.5,0.9,0.9,1.2
			c3.2,4.3,6.4,8.8,9.4,13.5c10.1,15.6,19.6,33.5,27.5,51c2.3,5.4,4.7,10.9,6.7,16.3c3.6,9.2,6.5,17.9,8.6,26.1
			c1.8,6.9,3.2,13.3,3.8,19c0.2,2.3,0.5,4.5,0.5,6.6c0.1,2.9,0,5.4-0.4,7.6c-0.7,4.9-2.5,8-5.2,9.2c0,0,0,0-0.1,0
			c-0.1,0.1-0.2,0.1-0.4,0.2c2.5,4.7,5.5,9.6,9.4,14.6l0,0l0,0l0,0l0,0c0.5,0.6,1,1.2,1.5,1.8c27.7,35.6,79.5,68.2,116.9,73.3
			c3.8,0.5,7.4,0.7,10.6,0.6c5.8-0.1,10.6-1.2,14.4-3.1c2.3-1.2,4.4-2.7,6-4.5c0.4-0.4,0.6-0.9,1-1.2l0.1-0.1l1.3-1.8l0.1-0.1
			c0.2-0.2,0.4-0.6,0.5-0.9c0,0,0.1,0,0.1-0.1c1.1-1.6,2.2-3.3,3.4-5c1.3-2.1,2.8-4.4,4.2-6.6l1.2-1.8c0.1-0.4,0.4-0.6,0.5-1
			c0.2-0.4,0.4-0.6,0.6-1l1.5-2.7c0.5-0.7,0.9-1.5,1.3-2.2c0.5-0.7,0.9-1.5,1.3-2.2c0.1-0.2,0.2-0.5,0.4-0.6
			c-0.1,0.1-0.2,0.2-0.2,0.5c-0.1,0.2-0.4,0.6-0.5,0.9l1-1.7l0,0c-0.4,0.7-0.9,1.5-1.2,2.2C463.1,304.2,462.9,304.6,462.7,305z"/>
		<path class="st1" d="M142.6,103.4L142.6,103.4L142.6,103.4L142.6,103.4z"/>
		<path class="st1" d="M422.1,360.3c-1.5,1.2-3.3,1.8-5.8,2.1c-2.9,0.2-6.5-0.2-10.9-1.5c-2.2-0.6-4.5-1.5-7.1-2.5
			c-14-5.5-31-16.2-48.1-29.6c-9.9-7.7-19.9-16.4-29.2-25.5c-11.3-10.9-21.8-22.5-30.2-33.7c-4.4-5.9-8-11.3-10.8-16.2
			c-0.4-0.5-0.6-1.1-1-1.7c0,0,0,0,0-0.1c-1.1,0.7-2.3,1.5-3.3,2l-0.2,0.1c-0.6,0.4-1.3,1-2.2,1.3c-0.1,0.1-0.2,0.1-0.4,0.2
			c0.5-0.4,0.9-1.1,0.9-2.3c0-1.1-0.2-2.6-0.7-4.3s-1.1-3.7-2-6.1c-0.6-1.7-1.5-3.6-2.3-5.6c-2.3-5.3-5.3-11.4-8.7-18
			c-4.7-9.1-10.3-19.1-16.6-29.7c-11.4-19.3-24.9-40-37.8-58c-3.2-4.4-6.3-8.6-9.3-12.8c-3.3-4.4-6.4-8.2-9.2-11.7
			c-6.6-8.2-12-13.9-15.8-17.1c-1.3-1.1-2.6-1.8-3.4-2.3c-0.9-0.4-1.5-0.5-2-0.4h-0.1c-0.2,0.1-0.4,0.2-0.6,0.4l0.1-0.1
			c-0.2,0.2-0.6,0.4-0.9,0.6c-2.2,1.3-4.4,2.8-6.4,4.2c-0.2,0.2-0.5,0.4-0.7,0.5l-0.2,0.2c-2.3,1.6-5,3.6-7.7,5.4c0,0,0,0-0.1,0
			c-0.2,0.1-0.5,0.4-0.7,0.5c-0.2,0.2-0.5,0.4-0.7,0.5c-1,0.6-1.8,1.2-2.7,1.8c-0.2,0.2-0.5,0.4-0.9,0.6c-0.1,0.1-0.4,0.2-0.5,0.4
			c-0.1,0.1-0.1,0.1-0.2,0.2c0,0-0.1,0-0.1,0.1c-0.1,0.1-0.1,0.1-0.2,0.1c-0.1,0.1-0.2,0.2-0.4,0.2l-0.1,0.1
			c0.1,0.1,0.6,0.7,1.7,2.1c0.7,1.1,1.8,2.5,3.2,4.2c3.8,4.9,9.6,12.6,17.4,22.9c1.2,1.7,2.6,3.4,3.9,5.2
			c7.4,9.7,15.5,20.5,23.7,31.5c5.3,7,10.6,14.1,15.8,21.1c11.2,14.8,21.8,29.3,30.8,41.5c4.8,6.4,9.1,12.3,12.6,17.1
			c1.3,1.7,2.5,3.3,3.4,4.8c1.5,2,2.7,3.6,3.7,4.9c2.1,2.9,3.1,4.4,3.1,4.4c-1.6,1.2-3.6,2.7-5.2,3.9c-0.2,0.2-0.5,0.4-0.7,0.6
			c0,0,0,0-0.1,0.1l-0.1,0.1l0,0c1.8,2.2,3.9,4.7,6.1,7.5c2.7,3.4,5.6,7.2,8.8,11.4l0,0c3.4,4.5,6.9,9.3,10.4,14.2
			c12.5,17.4,25.5,37.1,36.9,55.3c6.4,10.2,12.1,20,17.2,28.7c3.9,6.9,7.2,13.3,9.9,18.7c0.2-0.1,0.4-0.2,0.6-0.4
			c-0.2,0.1-0.4,0.2-0.6,0.4c1,2,1.7,3.7,2.5,5.3c1.2,2.7,2.1,5,2.7,6.9c0.9,2.7,1,4.4,0.5,5.2c0,0.1-0.1,0.1-0.1,0.1
			c0.7-0.5,1.3-0.9,2-1.3l1.5-1l0.1-0.1c4.9-3.4,11-7.9,16.2-11.7c1-0.7,1.8-1.3,2.7-2c0,0,0,0-0.1,0c-0.4-0.2-1.3-1.2-2.8-2.9
			c-1.2-1.5-2.9-3.4-4.9-5.8c-1.1-1.3-2.3-2.8-3.7-4.5c-0.2,0.1-0.4,0.2-0.6,0.5c0.2-0.1,0.4-0.2,0.6-0.5c-4.2-5.2-9.3-11.5-15-18.7
			c-11.8-15-26.1-33.4-40.2-51.7c-0.1-0.1-0.1-0.2-0.2-0.4c-10.3-13.4-20.5-26.7-29.6-38.8l0,0c-1.2-1.6-2.3-3.2-3.4-4.7
			c-4.7-6.1-8.2-11-11.2-15c0.9-0.6,1.6-1.2,2.5-1.8l2.3-1.7l1.3-1c0.1,0,0.1,0,0.1-0.1l0.4-0.2c0.4-0.2,0.6-0.4,1-0.6
			c0,0,0,0,0.1,0c0.6-0.4,1.3-0.9,2-1.3c3.3,5.5,7.7,11.9,13.3,19.3c3.1,4.2,6.4,8.3,9.9,12.6c18.8,22.9,42.5,47.4,63.2,65.4
			c9.3,8.1,18,15,25.5,19.9c2,1.3,3.8,2.3,5.5,3.3c3.3,1.8,6,3.1,8.2,3.7s3.9,0.6,5-0.1c0.1,0,0.1-0.1,0.2-0.1
			c0.1-0.1,0.1-0.1,0.2-0.2l0.1-0.1l0.1-0.1l2.6-2.5l0.1-0.1l0.1-0.1c0.5-0.4,0.9-0.9,1.3-1.3c1.8-1.7,3.7-3.7,5.6-5.6
			c0.4-0.5,0.9-0.9,1.2-1.3c1.1-1.1,2.1-2.2,3.2-3.3l0.1-0.1c0,0,0-0.1,0.1-0.1l0.2-0.2c0.9-1,1.8-2.1,2.8-3.2
			c-0.1,0.1-0.2,0.2-0.2,0.4c0.1-0.1,0.1-0.2,0.2-0.2c0.2-0.2,0.5-0.6,0.7-0.9c0.1,0,0.1-0.1,0.2-0.2c0.1-0.1,0.4-0.4,0.5-0.6
			c-0.1,0.1-0.2,0.2-0.4,0.4C422.3,360.3,422.3,360.3,422.1,360.3z"/>
		<path class="st1" d="M423.4,359.1c0-0.1,0.1-0.1,0.1-0.2c-0.2,0.4-0.6,0.6-0.9,1C423,359.6,423.1,359.3,423.4,359.1z"/>
		<path class="st1" d="M31.5,383.1c0.2,0.5,0.4,0.9,0.6,1.3s0.5,1.1,0.9,1.6c-0.9-1.7-1.6-3.6-2.5-5.3
			C30.8,381.6,31.1,382.4,31.5,383.1z"/>
		<path class="st1" d="M216.6,312.1c0.1,0.5,0.1,1,0.1,1.5c0-0.4-0.1-0.7-0.1-1.2V312.1z"/>
		<path class="st1" d="M494,185.6c0-0.1,0-0.1,0-0.2v-0.2c0-0.4,0-0.9-0.1-1.2c-0.1-1-0.1-2-0.2-2.9c-0.1-1-0.1-2-0.2-2.8V178v0.1
			c0,0.6,0.1,1.1,0.1,1.7c0.2,2.8,0.4,5.3,0.5,7.4c-0.1-2.1-0.2-4.5-0.5-7.4c1.2,21.6-6.9,51.4-49.8,74.4c0,0.6,0.1,1.2,0.1,1.7
			c-0.1-0.6-0.1-1.2-0.2-1.7c-7,3.4-14.2,6.1-21.6,8.1c-10.8,2.8-21.8,4.3-32.8,4.3c-29.4,0-57.7-10.2-75.7-29.2
			c0.7-0.2,1.6-0.4,2.3-0.5l1.1-0.2l0,0l0,0c0.2,0,0.5-0.1,0.7-0.1c20.9,17.3,51.4,23.3,81.7,17.1c8.8-1.8,17.7-4.7,26.3-8.6
			c4.7-2.2,9.3-4.7,13.7-7.5c40.2-25.3,57.2-68.6,42.9-103.3c-1.2-2.7-2.2-4.9-3.2-7c-0.1-0.1-0.1-0.4-0.2-0.6
			c-0.9-1.8-1.7-3.6-2.6-5.2c-1-2-2-3.8-3.2-5.9c-0.5-0.9-1-1.6-1.5-2.5c-0.9-1.3-1.7-2.7-2.7-4.2c6.3,10.8,9.4,22.8,9.7,35.2
			c0.1,9.6-1.3,19.4-4.5,29c-6.6,20.1-20.4,39.5-40.4,54.1c-3.7,2.7-7.5,5.2-11.4,7.5c-7.1,4.2-14.5,7.4-22.1,9.8
			c-28.7,9.3-58.4,6.4-80-8.3h-0.1c0.9-0.1,1.8-0.4,2.7-0.5c21,10.7,47.5,10.1,72.3-1.7c6.1-2.9,12.1-6.5,17.9-10.8
			c3.2-2.3,6.4-4.9,9.3-7.7c10.9-9.8,19.6-21.3,26-33.6c15.5-29.7,17.4-63.7,3.4-89.4c-1.7-3.2-3.6-6.1-5.8-9.1
			c-3.8-5.2-8.2-9.6-13.1-13.3c-4.3-3.2-10.3-7-14.7-9.9l0,0c0,0,0,0-0.1-0.1c-1.6-1-3.2-1.8-4.7-2.7c-0.6-0.4-1.3-0.7-2-1.1
			c-0.2-0.1-0.5-0.2-0.7-0.4c-1-0.5-2.1-1.1-3.1-1.6l-0.4-0.2c-0.1,0-0.2-0.1-0.2-0.1c-0.1,0-0.2-0.1-0.4-0.1
			c-0.4-0.1-0.6-0.2-1-0.5c0,0,0.1,0,0.1,0.1c0,0-0.1,0-0.1-0.1c-0.2-0.1-0.6-0.2-0.9-0.5c0.1,0,0.1,0.1,0.2,0.1
			c-0.2-0.1-0.5-0.2-0.9-0.4h-0.1c-0.7-0.4-1.6-0.7-2.3-1l0,0c1.5,0.6,2.8,1.2,4.3,2c0.7,0.4,1.5,0.7,2.3,1.2l0,0
			c6.4,3.6,12.4,8.3,17.5,14.4c1.1,1.2,2.1,2.3,3.1,3.7c21.2,28.2,21.3,71.3,3.1,107.4c-5.3,10.3-12,20.1-20.2,28.8l0,0l0,0
			c-2.7,2.8-5.4,5.4-8.2,7.9c-4.9,4.3-9.9,7.9-15.2,10.9c-21.3,12.5-44.8,15.1-64.5,7.5c7.5-2.1,14.5-6.9,20.4-14.4
			c2.3-2.8,4.5-6.1,6.5-9.8c1.3-2.5,2.6-5.2,3.8-8c-0.1,0-0.2,0-0.4,0c0.1,0,0.2,0,0.4-0.1c2.7-6.5,4.8-13.5,6.1-20.9
			c1.6-8.3,2.5-17.2,2.6-26c0-5.8-0.1-11.5-0.7-17.4c-2.1-22.9-8.8-45.9-19.5-64.3c-2.2-3.9-4.7-7.6-7.2-11
			c-0.9-1.1-1.7-2.2-2.7-3.3c-5-6-10.2-10.8-15.6-14.4c-6.6-4.4-13.5-6.7-20.2-7.2c-1.7-0.1-3.4-0.1-5.2,0.1c-0.5,0-1.1,0.1-1.6,0.1
			l-11.3,2l-0.4,0.1c-0.2,0-0.5,0.1-0.6,0.1c-0.2,0-0.5,0.1-0.7,0.1c-4.3,1-9.6,2.2-13.9,3.2c1.8-0.4,3.8-0.5,5.8-0.4
			c6.3,0.2,12.9,2.8,19.5,7.6c4.8,3.3,9.6,7.9,14.2,13.5c1.2,1.3,2.3,2.8,3.4,4.4c1.7,2.2,3.3,4.7,4.9,7
			c12.8,19.5,21.8,44.5,26,69.3c1,5.5,1.7,11.2,2.1,16.7c0.6,8.5,0.7,16.7,0.1,24.5c-0.5,7-1.6,13.7-3.3,19.9l0,0
			c-0.7,2.7-1.6,5.3-2.6,7.7c-1.3,3.6-2.9,6.6-4.7,9.4c-4.5,7.2-10.4,11.8-16.9,13.6h-0.1c-0.1,0-0.2,0-0.4,0.1
			c-0.6,0.1-1.3,0.4-2.1,0.6h-0.1c14.4,17.4,36.6,29.4,61.2,34.6c12.9,2.7,26.5,3.6,39.9,2.3c11.3-1.1,22.3-3.6,32.9-7.6
			c29.8-12.5,46.1-31.3,49.8-57.1c0-0.2,0.1-0.6,0.1-0.9c0-0.1,0-0.2,0-0.4c0-1.3,0.1-2.8,0.1-4.3c0-0.4,0-0.7,0-1.2v-0.2
			c0.1-2.5,0.1-4.5,0.2-6.4c0,2-0.1,4-0.2,6.6c0,0,0,0,0-0.1c0.1-2.5,0.2-4.8,0.2-7C494.5,193.4,494.3,189.1,494,185.6z"/>
		<path class="st1" d="M320.9,418.3c-1-5.6-2.5-12-4.5-18.8c-2.5-8.2-5.8-17.2-9.4-26.4c-2.8-6.9-6-13.9-9.3-20.7
			c-6.9-14.2-14.7-28.6-23.1-41.5c-3.4-5.3-6.9-10.3-10.3-15.1c-0.9-1.2-1.7-2.3-2.6-3.4c-4.8-6.5-9.4-11.8-13.5-16.1l-0.7-0.9
			l0.4-0.4c-1.1,1.1-3.4,0.9-7-0.7c-1.7-0.7-3.7-1.8-6-3.3c-1.6-1-3.3-2.2-5.2-3.6l0,0c-6.6-4.8-14.2-11.2-22.6-18.7
			c-21.5-19.5-46.9-46.5-66.5-71.2c-2.7-3.3-5.2-6.6-7.6-9.8c-7.4-9.8-12.9-18-16.3-24.4c-1.6-2.9-2.8-5.5-3.7-7.7
			c-1.2-3.3-1.5-5.5-0.6-6.7c0-0.1,0-0.1,0.1-0.1c0.1-0.1,0.2-0.2,0.4-0.4c-0.2,0.1-0.4,0.4-0.6,0.5l-2.8,2.7l-3.7,3.6
			c-0.5,0.5-1,1-1.5,1.5c0,0,0,0-0.1,0c-1.1,1.1-2.1,2.1-3.1,3.2c-2.1,2.2-4.3,4.4-6.3,6.5c-0.5,0.5-1,1.1-1.5,1.6
			c-0.1,0.1-0.4,0.4-0.5,0.6c-0.1,0.1-0.2,0.2-0.2,0.4c-0.1,0-0.1,0.1-0.1,0.1c-2,2.7-2,7.1,0,13c1.1,3.2,2.7,6.9,4.9,11
			c3.1,5.4,7,11.7,12.3,18.5c6.7,9.1,14.7,18.3,23.6,27.4c12.6,13.1,26.6,25.8,40.4,36.6c15,11.8,29.7,21.2,41.8,26.6l0,0
			c2.5,1.1,4.7,2,6.9,2.7c3.1,1,5.8,1.6,8.1,1.8c3.9,0.4,6.9-0.4,8.6-2.2l0,0c0.1-0.1,0.2-0.2,0.2-0.2c0.1-0.1,0.4-0.4,0.5-0.5
			l1.2-1.2l1.3-1.3c3.7,3.6,7.5,7.9,11.4,12.9c0.5,0.6,1,1.3,1.6,2.1c2.7,3.6,5.3,7.5,8,11.4c11.5,17.9,21.6,39.4,28.7,60.4
			c1.7,5.2,3.3,10.3,4.8,15.5c2.3,8.7,4.2,17.2,5.3,25c1,6.7,1.3,13.3,1.2,19c0,2.3-0.2,4.5-0.5,6.6c-0.4,3.4-1,6.4-1.8,9
			c-1.6,4.9-4.2,8.2-7.2,10.1c-0.1,0-0.2,0.1-0.4,0.1c-0.6,0.2-1.3,0.5-2,0.7c0.4-0.1,0.7-0.2,1.2-0.4l4.7-2l0,0l0,0
			c5.4-2.5,12.1-5.8,17.8-8.5c1-0.5,1.8-0.9,2.7-1.3c0.2-0.1,0.5-0.4,0.9-0.5c1.8-1.5,3.1-4,3.4-8c0.2-2.2,0.2-4.9,0-8.1
			C321.5,422.6,321.3,420.5,320.9,418.3z"/>
		<path class="st1" d="M277.1,374.5c-4.5-23.8-13.6-48-25.8-67.1c-2-2.9-3.9-5.9-5.9-8.6c-0.1,0-0.2,0-0.2,0.1c-0.1,0-0.2,0-0.2,0.1
			c0.2,0,0.4-0.1,0.6-0.1c-1-1.3-2.1-2.7-3.1-3.9c-2.2-2.7-4.5-5.2-6.7-7.4c-0.4,0.5-0.7,0.9-1.1,1.2l-0.1,0.1l0,0l0,0
			c0,0.1-0.1,0.1-0.1,0.2c0,0,0,0.1-0.1,0.1l-0.1,0.1l-0.1,0.1l0,0c-0.6,0.9-1.3,1.7-2.1,2.6c1.3,1.3,2.6,2.8,3.9,4.4
			c1,1.2,2.1,2.5,3.1,3.8c0.2,0,0.4,0,0.6-0.1c-0.1,0-0.1,0-0.2,0c-0.1,0-0.2,0-0.4,0.1c2.2,2.9,4.3,6.1,6.4,9.4
			c11.4,18.9,18.8,42.8,21.3,66.6c0.6,5.3,0.9,10.7,1,16c0.1,9.1-0.5,18-2,26.6c-1.2,7.4-3.2,14.5-5.6,20.9c0.2,0,0.5-0.1,0.7-0.1
			c-0.2,0-0.5,0.1-0.7,0.1c-1.1,2.7-2.2,5.3-3.4,7.6c-2,3.9-4.3,7.5-6.6,10.6c-5.9,7.4-12.8,12-20.2,13.9l-0.7,0.1
			c-1.3,0.2-2.7,0.5-3.9,0.6c0.7-0.1,1.6-0.1,2.3-0.2l0,0h0.1l5.8-1.1c0.1,0,0.2-0.1,0.5-0.1c0.1,0,0.1,0,0.2,0c0.1,0,0.2,0,0.4-0.1
			c0.7-0.1,1.5-0.2,2.2-0.5c2-0.4,4-0.9,6-1.2c2.5-0.5,4.8-1.1,7-1.7c0.5-0.1,1-0.2,1.3-0.4c0.9-0.2,1.7-0.5,2.5-0.7
			c0.2,0,0.4-0.1,0.6-0.1c0.9-0.2,1.8-0.5,2.7-0.7c0.2-0.1,0.5-0.2,0.9-0.2h0.1c5.3-2.1,9.9-6.1,13.6-12.4c1.7-2.9,3.3-6.3,4.7-10.1
			c0.7-2.2,1.5-4.5,2.1-7.1c-0.2,0.1-0.5,0.1-0.7,0.2c0.2-0.1,0.5-0.1,0.7-0.2c1.5-6.3,2.5-13,2.8-20c0.4-8.2,0.1-16.9-0.9-25.9
			C278.9,384.7,278.1,379.7,277.1,374.5z"/>
		<path class="st1" d="M235.4,441.9c4-6.9,7.2-14.4,9.8-22.3c3.2-10.1,5.3-20.6,6.1-31.4c0.6-7.5,0.6-15,0.1-22.5
			c-1.1-16.7-5-32.9-11.7-47c-2.3-5.2-5-9.9-8.1-14.5c-0.7-1.1-1.5-2.1-2.2-3.1c-0.7-1.1-1.6-2.1-2.5-3.1c0.2-0.2,0.5-0.6,0.6-1
			l0.4-0.6c-1.8,2.5-4.4,4.4-7.7,5.8c-1.7,0.6-3.6,1.2-5.5,1.6c-0.2,0-0.4,0-0.5,0.1c-2.1,0.2-4.3,0.5-6.7,0.4
			c-3.2,0-6.6-0.4-10.4-1c-37.3-6.4-89.6-41-116.9-77.2c-1-1.3-1.8-2.6-2.8-3.8c-4.3-6.1-7.5-11.9-9.7-17.2
			c-4.4-10.6-4.8-19.1-1.5-25c0.1-0.2,0.2-0.5,0.5-0.7l-4.7,6.5l-0.2,0.4l-0.1,0.1c0,0.1-0.1,0.1-0.2,0.2c-0.7,1.2-1.6,2.5-2.5,3.7
			c-1.1,1.6-2.2,3.4-3.4,5.2c-1.2,2-2.3,3.9-3.6,5.9c-0.1,0.1-0.1,0.2-0.2,0.2l-0.1,0.4c0,0.1-0.1,0.1-0.1,0.2
			c0,0.1-0.1,0.2-0.1,0.2s0,0.1-0.1,0.1c-0.1,0.1-0.1,0.2-0.2,0.4l0,0c-0.2,0.4-0.4,0.9-0.6,1.2c-4.8,9.6-3.2,22.7,5.4,37.8
			c2,3.4,4.3,6.9,6.9,10.4c3.2,4.2,6.6,8.3,10.6,12.3c29.3,30.6,76.8,54.1,113.1,54.7c5.3,0.1,10.1-0.2,14.4-1.1
			c6.6-1.3,11.9-3.7,16-6.9l0.1-0.1c9.1,33.4-8,72.9-45,96.8l0,0c-4.5,2.9-9.3,5.5-14.1,7.9c-7.9,3.7-16,6.5-24,8.5
			c-36.8,8.6-74.4-1.2-94.5-28.1c-2.1-2.8-4-5.9-5.6-9c0.7,1.6,1.6,3.1,2.2,4.4c1.7,3.2,3.1,5.6,4.7,8.2c2.1,3.3,4.4,6.6,8,11.8
			c0,0,0,0.1,0.1,0.1c0.1,0.1,0.1,0.1,0.2,0.2c0.7,1,1.5,2,2.3,2.9c0.5,0.6,1.1,1.2,1.6,1.8c21.8,24.5,59.1,30.8,94.2,17.9
			c6.6-2.5,13.3-5.5,19.6-9.3c3.8-2.3,7.6-4.8,11.3-7.6c-0.1-0.1-0.2-0.2-0.4-0.5c1.8,0.2,3.4-2.8,4.9-3.9l3.4-2.9
			c0.4-0.4,0.7-0.6,1.1-1c0.6-0.5,1.2-1.1,1.7-1.7c0.1-0.1,0.2-0.2,0.4-0.4c0.5-0.5,1.1-1.1,1.6-1.6l0.5-0.5
			c0.4-0.4,0.9-0.9,1.2-1.2c0.2-0.2,0.4-0.5,0.6-0.6c0.4-0.4,0.6-0.7,1-1.1c0.2-0.2,0.4-0.5,0.6-0.7c0.2-0.4,0.6-0.6,1-1.1
			c0.2-0.2,0.4-0.5,0.6-0.7c0.2-0.4,0.6-0.7,0.9-1.1c0.2-0.2,0.4-0.5,0.6-0.7c0.1-0.1,0.1-0.1,0.2-0.2c0.2-0.2,0.5-0.5,0.6-0.7
			c0.1-0.2,0.4-0.5,0.5-0.7c0.4-0.4,0.6-0.7,1-1.2c0.1-0.2,0.4-0.4,0.5-0.6c0.4-0.5,0.7-1,1.1-1.5c0.1-0.1,0.1-0.2,0.2-0.2
			c0.4-0.5,0.7-1.1,1.1-1.6c0.1-0.1,0.1-0.1,0.2-0.2c0.1-0.1,0.2-0.4,0.4-0.5c0.1-0.1,0.2-0.4,0.4-0.5c0,0,0.1-0.1,0.1-0.2
			c0.1-0.1,0.1-0.2,0.2-0.4c0.1-0.1,0.1-0.1,0.1-0.2c0.1-0.2,0.4-0.5,0.5-0.7c0.2-0.2,0.4-0.6,0.6-0.9c0-0.1,0.1-0.1,0.1-0.2l0,0
			c0-0.1,0.1-0.2,0.2-0.4c0.1-0.1,0.1-0.2,0.2-0.4c0.2-0.4,0.5-0.7,0.7-1.1c0-0.1,0.1-0.2,0.1-0.2s0,0,0-0.1
			c0.1-0.1,0.1-0.2,0.2-0.4c0.2-0.4,0.5-0.7,0.6-1.1c0.1-0.2,0.2-0.5,0.5-0.7c0-0.1,0.1-0.1,0.1-0.2l0.1-0.1
			c0.1-0.1,0.1-0.2,0.2-0.4c0-0.1,0.1-0.2,0.1-0.4c0.1-0.2,0.2-0.5,0.4-0.7c0.1-0.1,0.1-0.2,0.2-0.4c0-0.1,0.1-0.2,0.1-0.2
			c0.1-0.1,0.2-0.4,0.2-0.5c0,0,0-0.1,0.1-0.1c0.1-0.2,0.2-0.5,0.4-0.6c0-0.1,0.1-0.2,0.1-0.2c0.1-0.2,0.2-0.5,0.4-0.7
			c0.1-0.1,0.1-0.4,0.2-0.5c0-0.1,0-0.1,0.1-0.2c0,0,0-0.1,0.1-0.1c0-0.1,0.1-0.1,0.1-0.2c0.1-0.2,0.2-0.6,0.4-0.9
			c0.1-0.2,0.2-0.6,0.4-0.9c0,0,0,0,0-0.1s0.1-0.1,0.1-0.2c0.1-0.2,0.2-0.5,0.4-0.7c0-0.1,0.1-0.2,0.1-0.4c0-0.2,0.1-0.4,0.2-0.6
			v-0.1c0-0.1,0-0.1,0.1-0.1c0-0.1,0.1-0.2,0.1-0.2c0.1-0.1,0.1-0.2,0.1-0.4c0.1-0.4,0.2-0.6,0.4-1c0-0.1,0.1-0.2,0.1-0.4
			c0.1-0.1,0.1-0.2,0.1-0.4l0.1-0.1v-0.1c0-0.1,0.1-0.2,0.1-0.2c0.1-0.1,0.1-0.4,0.1-0.5v-0.1c0.1-0.1,0.1-0.2,0.2-0.5
			c0-0.1,0.1-0.2,0.1-0.5c0.1-0.2,0.2-0.5,0.2-0.7c0.1-0.1,0.1-0.2,0.1-0.5c0-0.1,0.1-0.2,0.1-0.4c0-0.1,0-0.2,0.1-0.4
			c0.1-0.2,0.2-0.6,0.4-0.9s0.1-0.5,0.2-0.7c0,0,0,0,0-0.1c0.1-0.5,0.4-1.1,0.5-1.6c0.1-0.2,0.1-0.5,0.2-0.7c0-0.1,0.1-0.1,0.1-0.1
			c0.1-0.5,0.2-0.9,0.4-1.3c0-0.1,0.1-0.2,0.1-0.4c0-0.1,0-0.2,0.1-0.4c0.1-0.5,0.4-1.1,0.5-1.7c0.1-0.2,0.1-0.5,0.2-0.9
			c0.2-0.7,0.4-1.3,0.5-2.1c0.1-0.4,0.2-0.7,0.2-1.1c0.2-0.6,0.4-1.3,0.4-2c0-0.2,0.1-0.6,0.1-0.9v-0.1c0-0.4,0.1-0.6,0.1-1
			c0.1-0.6,0.2-1.3,0.4-2.1c0-0.1,0-0.2,0-0.4c0.1-0.4,0.1-0.7,0.1-1.2c0-0.1,0-0.2,0-0.2c0-0.1,0-0.2,0-0.4c0-0.2,0.1-0.6,0.1-1
			l0.1-1.3c0-0.1,0-0.2,0-0.4l0,0c0-0.1,0-0.2,0-0.4c0-0.1,0-0.1,0-0.2v-0.4c0-0.1,0-0.2,0-0.5c0-0.2,0-0.4,0-0.6c0-0.1,0-0.2,0-0.4
			v-0.4c0-0.2,0-0.4,0-0.6V340c0-0.1,0-0.2,0-0.4v-0.5v-0.1c0-0.1,0-0.4,0-0.5v-0.5l0,0v-0.2c0-0.2,0-0.5,0-0.7v-2.6
			c0-0.1,0-0.2,0-0.5v-1.3c0-0.1,0-0.2,0-0.2v-0.4c0-0.2,0-0.5,0-0.7v-0.2c0-0.1,0-0.1,0-0.1l0,0v-0.1v-0.4c0-0.1,0-0.1,0-0.2l0,0
			c0-0.1,0-0.4,0-0.5c0-0.2,0-0.4,0-0.6c0-0.1,0-0.4,0-0.5v-0.1c0-0.1,0-0.1,0-0.2V328c0,0,0-0.1,0-0.2s0-0.1,0-0.2c0,0,0,0,0-0.1
			c0-0.2,0-0.5-0.1-0.6v-0.2c0-0.2-0.1-0.5-0.1-0.7v-0.2c0-0.1,0-0.2-0.1-0.4c0-0.1,0-0.2,0-0.4c0-0.1,0-0.1,0-0.2
			c0-0.2,0-0.5-0.1-0.6v-0.1c0-0.2-0.1-0.5-0.1-0.9l0,0c0-0.1,0-0.1,0-0.2c0,0,0,0,0-0.1s-0.1-0.4-0.1-0.6c0-0.4-0.1-0.6-0.2-1
			c0-0.1,0-0.2,0-0.4s0-0.2-0.1-0.2c0-0.1,0-0.2,0-0.4c-0.1-0.2-0.1-0.5-0.2-0.9c0-0.1,0-0.2-0.1-0.5c0-0.1-0.1-0.2-0.1-0.4
			c0-0.1-0.1-0.4-0.1-0.5s0-0.2-0.1-0.4c0-0.1,0-0.2,0-0.2c-0.1-0.2-0.1-0.5-0.2-0.7c-0.1-0.2-0.1-0.6-0.2-0.9v-0.1
			c0-0.1,0-0.2-0.1-0.4V315v-0.1l0,0v-0.1c-0.1-0.5-0.2-0.9-0.4-1.3l0.4-0.7l1.3-2.7c12.1,25.9,9.6,59.1-5.8,88.1
			c-6.1,11.7-14.4,22.6-24.5,32c0,0,0.1,0,0.1,0.1c0,0-0.1,0-0.1-0.1c-2.9,2.7-6,5.2-9.1,7.5c-5.4,4-10.8,7.5-16.2,10.3
			c-26.9,14.1-54.6,14.1-79.3-0.5c-0.1-0.1-0.4-0.2-0.5-0.2c0.2,0.1,0.5,0.2,0.6,0.5c0.7,0.5,1.5,1,2.1,1.5c0.2,0.2,0.6,0.4,1,0.6
			c0.1,0.1,0.4,0.2,0.5,0.2c0.2,0.1,0.6,0.4,0.9,0.5c1.2,0.7,2.3,1.5,3.4,2.1c0.1,0.1,0.4,0.2,0.5,0.2c1.2,0.7,2.7,1.6,4.3,2.3
			c0,0,0.1,0,0.1,0.1c1.1,0.6,2.2,1.2,3.3,1.7c2.1,1.1,4,2,6.5,3.1c1.3,0.6,2.8,1.2,4.5,2c0.1,0,0.2,0.1,0.4,0.1
			c-0.1,0-0.1,0-0.2-0.1c-1.3-0.6-2.6-1.2-3.9-1.8c3.1,1.3,6.3,2.6,9.4,3.9c18.8,5.9,40.2,2.7,59.9-9.2c5.2-3.2,10.3-6.9,15.1-11.3
			c2.7-2.3,5.3-4.9,7.7-7.7c-0.1,0-0.1-0.1-0.2-0.1c0.1,0,0.1,0.1,0.2,0.1c8-8.7,14.6-18.5,19.6-29c8.6-17.7,12.9-37.1,12.6-55.5
			c-0.1-4.4-0.4-8.8-1-13.1c-1.6-11.4-5.2-22.1-10.6-31.7l0,0c0.4-0.6,0.6-1.1,1-1.7c0.1,0,0.1-0.1,0.1-0.1c0.1-0.2,0.4-0.5,0.5-0.7
			l1.2-2c2.1,2.8,3.9,5.9,5.6,9c4.9,8.8,8.3,18.8,10.4,29.2c0.4,1.8,0.6,3.6,1,5.4c1.8,11.9,2,24.3,0.4,36.7
			c-1.5,11.8-4.5,23.6-9.1,34.6c-3.4,8.5-7.9,16.6-13.1,23.9c-2.1,2.8-4.2,5.5-6.4,8c-3.8,4.3-7.7,8-11.8,11.2
			c-14,10.9-29.4,15.6-44.4,14c2.8,0.4,5.8,0.7,8.5,1h0.1c0.2,0,0.5,0.1,0.9,0.1c0.6,0.1,1.2,0.1,1.8,0.2c0.4,0,0.6,0,1,0
			s0.9,0,1.2,0.1c-0.5,0-0.9,0-1.2-0.1c1.5,0.1,2.9,0.2,4.5,0.4c1.8,0.1,3.7,0.2,5.3,0.2c0.1,0,0.1,0,0.2,0c0.2,0,0.5,0,0.9,0
			c0.2,0,0.5,0,0.6,0c0.2,0,0.5,0,0.7,0c0.5,0,1,0,1.5,0c0.4,0,0.7,0,1.1,0c0.1,0,0.4,0,0.5,0h0.1h1.1c1,0,2,0,2.8-0.1
			c11-0.9,22-5.9,31.5-14.8c3.3-3.1,6.5-6.7,9.6-10.8C232,447.4,233.7,444.7,235.4,441.9z"/>
		<path class="st1" d="M33.5,387.4c0,0.1,0.1,0.1,0.1,0.2c-0.1-0.2-0.2-0.4-0.2-0.6C33.4,387.2,33.5,387.3,33.5,387.4z"/>
		<path class="st1" d="M466.2,104.1c1.1,1.5,2.1,3.1,2.9,4.7C468.3,107.3,467.3,105.8,466.2,104.1z"/>
		<path class="st1" d="M474.4,270.1c-8.1,8.1-19.6,14.5-34.4,18.2c0,0.1,0,0.1-0.1,0.2c0-0.1,0-0.1,0.1-0.2
			c-18.5,4.5-39.1,4.2-59-0.2c-15.3-3.4-30.2-9.3-43.2-17.2c-12.5-7.5-23.3-16.7-31.3-27.4c0,0,0,0,0,0.1c0,0,0,0,0-0.1
			c-0.9-1.1-1.6-2.2-2.3-3.3c-0.9,0.2-1.8,0.6-3.1,1.1c-0.6,0.2-1.2,0.5-1.8,0.7c1.5,2.5,3.2,4.9,5,7.5c0-0.1,0.1-0.2,0.1-0.4
			c0,0.1-0.1,0.2-0.1,0.4c4,5.3,8.7,10.4,13.9,15.1c8.3,7.6,17.9,14.4,28.3,20.1c27.5,15.2,60.2,23.2,87.7,19.4
			c0.4-0.7,0.6-1.5,1-2.2c-0.4,0.7-0.6,1.5-1,2.2c8.7-1.2,16.3-3.4,22.6-6.6c7.7-3.9,13.5-9.1,17.3-15.3c0.1-0.1,0.2-0.4,0.2-0.5
			c0.4-0.6,0.7-1.3,1.1-2c0.1-0.2,0.2-0.4,0.2-0.6c0.2-0.4,0.4-0.9,0.5-1.2v-0.1c0.6-1.7,1.3-3.4,2.1-5.4c0.1-0.4,0.2-0.6,0.4-1
			c2.2-5.8,4.4-12.1,6.4-17.8c0-0.1,0-0.1,0.1-0.2v0.1C483,259.4,479.3,265.1,474.4,270.1z"/>
		<path class="st1" d="M113.2,405.1c10.9-0.1,22.1-1.7,32.9-4.9c7.2-2.1,14.4-4.9,21.2-8.3c33.5-17.1,51.5-46.4,49.8-75
			c-0.1-1-0.1-1.8-0.2-2.7c0,0.6,0,1.3,0.1,2.5c0,0,0,0,0,0.1c-3.7,7.5-10.1,13.7-18.8,18.5c-6.4,3.4-14.2,6-23.1,7.5l0,0
			c-26.4,4.3-57.3-2.1-84-15.5c-12.6-6.3-24.3-14.1-34-23.1c-4.8-4.4-9.1-9.2-12.9-14.1c-12.8-16.9-16.4-33.6-12.1-47.4
			c0.1-0.2,0.1-0.5,0.2-0.6V242v-0.1c0.2-0.7,0.6-1.6,1-2.3c-0.2,0.5-0.5,1.1-0.7,1.7c-0.5,1.2-1,2.3-1.3,3.4c0,0.1,0,0.1-0.1,0.2
			c0,0.1-0.1,0.1-0.1,0.2c-0.4,1.1-0.7,2.1-1.2,3.2c-0.4,0.9-0.6,1.8-1,2.8c-0.2,0.9-0.5,1.6-0.7,2.2c-1.3,3.8-2.8,8.7-3.8,12.8
			c-0.1,0.4-0.2,0.9-0.2,1.2c0,0.1,0,0.2-0.1,0.2l0,0l0,0l0,0c0,0,0,0,0,0.1c-6,29.9,14.7,58.7,46.7,76.2
			c13.1,7.2,28.2,12.6,44,15.5c17.9,3.2,36.9,3.2,55.3-1.1l0,0c19.9-5.4,31.4-14.6,38-23.1c5.8-7.4,8-14.1,9.1-17.7
			c-0.2,7.6-2.2,18-9.4,29c-7.2,11-19.6,22.5-40.7,32l0,0c-9.9,3.8-20.1,6.3-30.1,7.6c-13.9,1.8-27.5,1.5-40.4-0.7
			C54,378.1,20.3,350.1,18,312.3c0-0.6,0-1.3-0.1-2.1v0.7c0,0.2,0,0.4,0,0.6v0.4c0,0.5,0,1.1,0,1.6l-0.1,1.6c0,0.2,0,0.5,0,0.6
			c0,0.9,0,1.7,0,2.6c0,1.3,0.1,2.7,0.1,4.2c0,0.4,0,0.7,0,1.2s0,1,0.1,1.5c0,0,0,0,0,0.1v0.5c0,0.2,0,0.6,0,0.9v0.2
			c0,0.5,0,1,0.1,1.5c0,0.5,0.1,1.1,0.1,1.6c0,0,0,0,0,0.1c0,0.4,0.1,0.6,0.1,1s0.1,0.7,0.1,1.1c0,0.4,0.1,0.7,0.1,1.2
			c0,0.4,0.1,0.9,0.1,1.2c0,0,0,0.1,0,0.2c0,0.5,0.1,1,0.1,1.5c0,0.4,0.1,0.7,0.1,1.2v0.1l0,0c0,0.4,0.1,0.6,0.1,1
			c0,0.1,0,0.2,0,0.5v0.1l0.1,1.1c0,0,0,0,0,0.1s0,0.1,0,0.1c1.5,10.2,5.6,20.2,12.5,29.4C49.1,393.2,80.4,405.6,113.2,405.1z"/>
		<path class="st1" d="M335.9,36.4c0.2,0,0.6,0.1,0.9,0.1c7.4,1,14.6,3.7,21.3,8.2c5.9,3.9,11.5,9.3,16.6,16.1
			c0.6,0.9,1.2,1.7,1.8,2.7c3.3,4.7,6.1,9.7,8.6,15.1c6.6,14.5,10.3,31.2,11,48.2c0.2,6.9,0.1,13.7-0.5,20.6
			c-1,10.7-3.2,21.1-6.5,30.9c-2.8,8.2-6.4,16-10.7,23.1c-1.7,2.9-3.6,5.5-5.5,8.1c-2.9,3.8-6,7.2-9.2,10.3
			c-11.4,10.7-24.5,15.8-37.5,15.6l0,0c-0.1,0-0.4,0-0.5-0.1l0.5,0.1h-0.6c0.2,0,0.6,0,0.9,0c16.2,2.8,33.7-1.7,49.2-13.7
			c4-3.1,7.9-6.6,11.5-10.7c2.2-2.6,4.4-5.2,6.6-8l0,0l0,0c5.8-7.7,10.6-16.3,14.4-25.3c4.8-11.5,8-23.8,9.4-36.2
			c2.8-23.4-0.6-47-10.3-66c-2.2-4.3-4.8-8.5-7.6-12.3c-3.9-5.2-8.2-9.6-12.8-13.1c-7.2-5.5-15.1-9.2-23.4-10.8
			c-0.1,0-0.2-0.1-0.5-0.1l-2.5-0.4c-2-0.4-3.9-0.7-5.9-1c-1-0.1-2-0.2-2.8-0.4c-0.5,0-1-0.1-1.5-0.1c-2.7-0.4-5.4-0.6-8.1-0.9
			c-0.5,0-1,0-1.5-0.1c-0.7-0.1-1.5-0.1-2.3-0.1c-0.1,0-0.4,0-0.5,0h-0.5c-0.6,0-1.3-0.1-2.1-0.1c-0.6,0-1.2,0-1.8-0.1
			c-1,0-2.1,0-3.2,0c1,0,1.8,0.1,2.9,0.1C334,36.4,335,36.4,335.9,36.4z"/>
	</g>
</g>
</svg>
