<?xml version="1.0" encoding="utf-8"?>
<!-- Generator: Adobe Illustrator 19.1.1, SVG Export Plug-In . SVG Version: 6.00 Build 0)  -->
<svg version="1.1" id="Layer_1" xmlns="http://www.w3.org/2000/svg" xmlns:xlink="http://www.w3.org/1999/xlink" x="0px" y="0px"
	 viewBox="0 0 32 32" style="enable-background:new 0 0 32 32;" xml:space="preserve">
<style type="text/css">
	.st0{opacity:0.1;}
	.st1{fill:#1BDBC4;}
</style>
<g>
	<g class="st0">
		<path class="st1" d="M9.3,6.6L9.3,6.6L9.3,6.6C9.3,6.6,9.3,6.6,9.3,6.6z"/>
		<path class="st1" d="M26.5,22.4C26.5,22.4,26.5,22.4,26.5,22.4C26.5,22.4,26.5,22.4,26.5,22.4C26.5,22.4,26.5,22.4,26.5,22.4z"/>
		<path class="st1" d="M2.4,23.8C2.4,23.9,2.5,23.9,2.4,23.8C2.5,24,2.5,24,2.5,24c-0.1-0.1-0.1-0.2-0.2-0.3
			C2.4,23.8,2.4,23.8,2.4,23.8z"/>
		<path class="st1" d="M13.8,19.5C13.8,19.5,13.8,19.5,13.8,19.5C13.8,19.5,13.8,19.5,13.8,19.5L13.8,19.5z"/>
		<path class="st1" d="M2.6,24.1C2.6,24.1,2.6,24.1,2.6,24.1C2.6,24.1,2.6,24.1,2.6,24.1C2.6,24.1,2.6,24.1,2.6,24.1z"/>
		<path class="st1" d="M29.2,6.7c0.1,0.1,0.1,0.2,0.2,0.3C29.3,6.9,29.2,6.8,29.2,6.7z"/>
	</g>
	<g>
		<path class="st1" d="M28.7,19C28.7,19,28.7,19,28.7,19L28.7,19c-0.1,0.2-0.2,0.3-0.4,0.4c-0.3,0.2-0.6,0.4-1,0.5
			c-0.3,0.1-0.6,0.1-0.9,0.1c-2,0-4.6-1.1-6.4-2.7c-0.4-0.4-0.8-0.8-1.2-1.2c0,0,0-0.1-0.1-0.1c-0.2-0.2-0.3-0.5-0.5-0.7l0.1,0
			c0.1,0,0.1-0.1,0.2-0.1c0,0,0,0,0.1,0c0.2-0.1,0.5-0.3,0.6-0.7c0-0.1,0.1-0.2,0.1-0.3c0,0,0,0,0,0c0-0.1,0-0.2,0.1-0.3
			c0-0.1,0-0.3,0-0.4c0-0.4,0-0.8,0-1.2c-0.1-0.5-0.1-1-0.3-1.5c-0.1-0.3-0.2-0.6-0.3-1c-0.4-1.3-1-2.7-1.7-3.8
			c-0.2-0.2-0.3-0.5-0.5-0.7c0-0.1-0.1-0.1-0.1-0.2c-0.3-0.4-0.6-0.7-0.9-0.9c-0.4-0.3-0.8-0.5-1.1-0.6c-0.1,0-0.2,0-0.3,0h0
			c-0.1,0-0.2,0.1-0.2,0.1c0,0,0,0,0,0c0,0,0,0,0,0l0,0c-0.2,0.1-0.3,0.1-0.4,0.2l-0.1,0l0,0h0c-0.3,0.1-0.7,0.3-0.9,0.4
			c0,0,0.1,0,0.1,0c0.1,0,0.2,0,0.3,0c0.3,0.1,0.6,0.3,1,0.7c0.3,0.3,0.6,0.6,0.9,1c0,0,0,0.1,0.1,0.1c0.2,0.3,0.4,0.5,0.6,0.8
			c0.6,1,1.2,2.1,1.7,3.1c0.1,0.3,0.3,0.7,0.4,1c0.2,0.6,0.4,1.1,0.5,1.6c0.1,0.4,0.2,0.8,0.2,1.2c0,0.1,0,0.3,0,0.4
			c0,0.2,0,0.3,0,0.5c0,0.3-0.2,0.5-0.3,0.6c0,0,0,0,0,0c0,0,0,0,0,0c0.2,0.3,0.3,0.6,0.6,0.9l0,0l0,0l0,0l0,0c0,0,0.1,0.1,0.1,0.1
			c1.7,2.2,4.9,4.2,7.2,4.5c0.2,0,0.5,0,0.6,0c0.4,0,0.6-0.1,0.9-0.2c0.1-0.1,0.3-0.2,0.4-0.3c0,0,0-0.1,0.1-0.1l0,0l0.1-0.1l0,0
			c0,0,0,0,0-0.1c0,0,0,0,0,0c0.1-0.1,0.1-0.2,0.2-0.3c0.1-0.1,0.2-0.3,0.3-0.4l0.1-0.1c0,0,0,0,0-0.1c0,0,0,0,0-0.1l0.1-0.2
			C28.7,19.1,28.7,19,28.7,19c0-0.1,0.1-0.1,0.1-0.1c0,0,0,0,0,0c0,0,0,0,0,0C28.8,18.9,28.8,18.9,28.7,19l0.1-0.2l0,0
			C28.8,18.9,28.8,18.9,28.7,19C28.7,19,28.7,19,28.7,19z"/>
		<path class="st1" d="M9,6.6L9,6.6L9,6.6L9,6.6z"/>
		<path class="st1" d="M26.2,22.4c-0.1,0.1-0.2,0.1-0.4,0.1c-0.2,0-0.4,0-0.7-0.1c-0.1,0-0.3-0.1-0.4-0.2c-0.9-0.3-1.9-1-3-1.8
			c-0.6-0.5-1.2-1-1.8-1.6c-0.7-0.7-1.3-1.4-1.9-2.1c-0.3-0.4-0.5-0.7-0.7-1c0,0,0-0.1-0.1-0.1c0,0,0,0,0,0c-0.1,0-0.1,0.1-0.2,0.1
			l0,0c0,0-0.1,0.1-0.1,0.1c0,0,0,0,0,0c0,0,0.1-0.1,0.1-0.1c0-0.1,0-0.2,0-0.3c0-0.1-0.1-0.2-0.1-0.4c0-0.1-0.1-0.2-0.1-0.3
			c-0.1-0.3-0.3-0.7-0.5-1.1c-0.3-0.6-0.6-1.2-1-1.8c-0.7-1.2-1.5-2.5-2.3-3.6c-0.2-0.3-0.4-0.5-0.6-0.8c-0.2-0.3-0.4-0.5-0.6-0.7
			c-0.4-0.5-0.7-0.9-1-1c-0.1-0.1-0.2-0.1-0.2-0.1c-0.1,0-0.1,0-0.1,0h0c0,0,0,0,0,0l0,0c0,0,0,0-0.1,0c-0.1,0.1-0.3,0.2-0.4,0.3
			c0,0,0,0,0,0l0,0C9.8,6.1,9.6,6.2,9.4,6.3c0,0,0,0,0,0c0,0,0,0,0,0c0,0,0,0,0,0c-0.1,0-0.1,0.1-0.2,0.1c0,0,0,0-0.1,0c0,0,0,0,0,0
			c0,0,0,0,0,0c0,0,0,0,0,0c0,0,0,0,0,0c0,0,0,0,0,0l0,0c0,0,0,0,0.1,0.1c0,0.1,0.1,0.2,0.2,0.3c0.2,0.3,0.6,0.8,1.1,1.4
			c0.1,0.1,0.2,0.2,0.2,0.3c0.5,0.6,1,1.3,1.5,1.9c0.3,0.4,0.6,0.9,1,1.3c0.7,0.9,1.3,1.8,1.9,2.5c0.3,0.4,0.6,0.8,0.8,1
			c0.1,0.1,0.2,0.2,0.2,0.3c0.1,0.1,0.2,0.2,0.2,0.3c0.1,0.2,0.2,0.3,0.2,0.3c-0.1,0.1-0.2,0.2-0.3,0.2c0,0,0,0,0,0c0,0,0,0,0,0l0,0
			l0,0c0.1,0.1,0.2,0.3,0.4,0.5c0.2,0.2,0.3,0.4,0.5,0.7l0,0c0.2,0.3,0.4,0.6,0.6,0.9c0.8,1.1,1.6,2.3,2.3,3.4
			c0.4,0.6,0.7,1.2,1.1,1.8c0.2,0.4,0.4,0.8,0.6,1.1c0,0,0,0,0,0c0,0,0,0,0,0c0.1,0.1,0.1,0.2,0.2,0.3c0.1,0.2,0.1,0.3,0.2,0.4
			c0.1,0.2,0.1,0.3,0,0.3c0,0,0,0,0,0c0,0,0.1-0.1,0.1-0.1L22,26l0,0c0.3-0.2,0.7-0.5,1-0.7c0.1,0,0.1-0.1,0.2-0.1c0,0,0,0,0,0
			c0,0-0.1-0.1-0.2-0.2c-0.1-0.1-0.2-0.2-0.3-0.4c-0.1-0.1-0.1-0.2-0.2-0.3c0,0,0,0,0,0c0,0,0,0,0,0c-0.3-0.3-0.6-0.7-0.9-1.1
			c-0.7-0.9-1.6-2.1-2.5-3.2c0,0,0,0,0,0c-0.6-0.8-1.3-1.6-1.8-2.4l0,0c-0.1-0.1-0.1-0.2-0.2-0.3c-0.3-0.4-0.5-0.7-0.7-0.9
			c0.1,0,0.1-0.1,0.2-0.1l0.1-0.1l0.1-0.1c0,0,0,0,0,0l0,0c0,0,0,0,0.1,0c0,0,0,0,0,0c0,0,0.1-0.1,0.1-0.1c0.2,0.3,0.5,0.7,0.8,1.2
			c0.2,0.3,0.4,0.5,0.6,0.8c1.2,1.4,2.6,2.9,3.9,4c0.6,0.5,1.1,0.9,1.6,1.2c0.1,0.1,0.2,0.1,0.3,0.2c0.2,0.1,0.4,0.2,0.5,0.2
			c0.1,0,0.2,0,0.3,0c0,0,0,0,0,0c0,0,0,0,0,0l0,0l0,0l0.2-0.2l0,0l0,0c0,0,0.1-0.1,0.1-0.1c0.1-0.1,0.2-0.2,0.3-0.3
			c0,0,0.1-0.1,0.1-0.1c0.1-0.1,0.1-0.1,0.2-0.2l0,0c0,0,0,0,0,0l0,0C26,22.6,26.1,22.5,26.2,22.4C26.1,22.4,26.1,22.4,26.2,22.4
			C26.1,22.4,26.1,22.4,26.2,22.4C26.1,22.4,26.2,22.4,26.2,22.4C26.2,22.4,26.2,22.4,26.2,22.4C26.2,22.4,26.2,22.3,26.2,22.4
			C26.2,22.3,26.2,22.3,26.2,22.4C26.2,22.4,26.2,22.4,26.2,22.4z"/>
		<path class="st1" d="M26.3,22.3C26.3,22.3,26.3,22.3,26.3,22.3C26.3,22.3,26.3,22.4,26.3,22.3C26.3,22.4,26.3,22.4,26.3,22.3z"/>
		<path class="st1" d="M2.2,23.8C2.2,23.8,2.2,23.9,2.2,23.8C2.2,23.9,2.3,24,2.3,24c-0.1-0.1-0.1-0.2-0.2-0.3
			C2.2,23.7,2.2,23.8,2.2,23.8z"/>
		<path class="st1" d="M13.6,19.4C13.6,19.5,13.6,19.5,13.6,19.4C13.6,19.5,13.6,19.5,13.6,19.4L13.6,19.4z"/>
		<path class="st1" d="M30.6,11.7C30.6,11.7,30.6,11.7,30.6,11.7L30.6,11.7c0-0.1,0-0.1,0-0.1c0-0.1,0-0.1,0-0.2c0-0.1,0-0.1,0-0.2
			v0v0c0,0,0,0.1,0,0.1C30.6,11.5,30.6,11.6,30.6,11.7c0,0,0-0.2,0-0.4c0.1,1.3-0.4,3.2-3.1,4.6c0,0,0,0.1,0,0.1c0,0,0-0.1,0-0.1
			c-0.4,0.2-0.9,0.4-1.3,0.5c-0.7,0.2-1.3,0.3-2,0.3c-1.8,0-3.5-0.6-4.7-1.8c0,0,0.1,0,0.1,0l0.1,0l0,0l0,0c0,0,0,0,0,0
			c1.3,1.1,3.2,1.4,5,1c0.5-0.1,1.1-0.3,1.6-0.5c0.3-0.1,0.6-0.3,0.8-0.5c2.5-1.6,3.5-4.2,2.6-6.4c-0.1-0.2-0.1-0.3-0.2-0.4
			c0,0,0,0,0,0c-0.1-0.1-0.1-0.2-0.2-0.3c-0.1-0.1-0.1-0.2-0.2-0.4c0-0.1-0.1-0.1-0.1-0.2C29.2,7.1,29.2,7,29.1,7
			c0.4,0.7,0.6,1.4,0.6,2.2c0,0.6-0.1,1.2-0.3,1.8c-0.4,1.2-1.3,2.4-2.5,3.3c-0.2,0.2-0.5,0.3-0.7,0.5c-0.4,0.3-0.9,0.5-1.4,0.6
			c-1.8,0.6-3.6,0.4-4.9-0.5h0c0.1,0,0.1,0,0.2,0c1.3,0.7,2.9,0.6,4.4-0.1c0.4-0.2,0.7-0.4,1.1-0.7c0.2-0.1,0.4-0.3,0.6-0.5
			c0.7-0.6,1.2-1.3,1.6-2.1c1-1.8,1.1-3.9,0.2-5.5c-0.1-0.2-0.2-0.4-0.4-0.6c-0.2-0.3-0.5-0.6-0.8-0.8C26.6,4.4,26.2,4.1,26,4l0,0
			c0,0,0,0,0,0c-0.1-0.1-0.2-0.1-0.3-0.2c0,0-0.1,0-0.1-0.1c0,0,0,0,0,0c-0.1,0-0.1-0.1-0.2-0.1l0,0c0,0,0,0,0,0c0,0,0,0,0,0
			c0,0,0,0-0.1,0c0,0,0,0,0,0c0,0,0,0,0,0c0,0,0,0-0.1,0c0,0,0,0,0,0c0,0,0,0-0.1,0h0c0,0-0.1,0-0.1-0.1l0,0c0.1,0,0.2,0.1,0.3,0.1
			c0,0,0.1,0,0.1,0.1l0,0c0.4,0.2,0.8,0.5,1.1,0.9c0.1,0.1,0.1,0.1,0.2,0.2c1.3,1.7,1.3,4.4,0.2,6.6c-0.3,0.6-0.7,1.2-1.2,1.8l0,0
			l0,0c-0.2,0.2-0.3,0.3-0.5,0.5c-0.3,0.3-0.6,0.5-0.9,0.7c-1.3,0.8-2.8,0.9-4,0.5c0.5-0.1,0.9-0.4,1.3-0.9c0.1-0.2,0.3-0.4,0.4-0.6
			c0.1-0.2,0.2-0.3,0.2-0.5c0,0,0,0,0,0c0,0,0,0,0,0c0.2-0.4,0.3-0.8,0.4-1.3c0.1-0.5,0.2-1.1,0.2-1.6c0-0.4,0-0.7,0-1.1
			c-0.1-1.4-0.5-2.8-1.2-4c-0.1-0.2-0.3-0.5-0.4-0.7c-0.1-0.1-0.1-0.1-0.2-0.2c-0.3-0.4-0.6-0.7-1-0.9c-0.4-0.3-0.8-0.4-1.2-0.4
			c-0.1,0-0.2,0-0.3,0c0,0-0.1,0-0.1,0l-0.7,0.1l0,0c0,0,0,0,0,0c0,0,0,0,0,0c-0.3,0.1-0.6,0.1-0.9,0.2c0.1,0,0.2,0,0.4,0
			c0.4,0,0.8,0.2,1.2,0.5c0.3,0.2,0.6,0.5,0.9,0.8C19,4.3,19,4.4,19.1,4.5c0.1,0.1,0.2,0.3,0.3,0.4c0.8,1.2,1.3,2.7,1.6,4.3
			c0.1,0.3,0.1,0.7,0.1,1c0,0.5,0,1,0,1.5c0,0.4-0.1,0.8-0.2,1.2l0,0c0,0.2-0.1,0.3-0.2,0.5c-0.1,0.2-0.2,0.4-0.3,0.6
			c-0.3,0.4-0.6,0.7-1,0.8h0c0,0,0,0,0,0c0,0-0.1,0-0.1,0h0c0.9,1.1,2.2,1.8,3.8,2.1c0.8,0.2,1.6,0.2,2.5,0.1c0.7-0.1,1.4-0.2,2-0.5
			c1.8-0.8,2.8-1.9,3.1-3.5c0,0,0,0,0-0.1c0,0,0,0,0,0c0-0.1,0-0.2,0-0.3c0,0,0,0,0-0.1v0c0-0.2,0-0.3,0-0.4c0,0.1,0,0.2,0,0.4
			c0,0,0,0,0,0c0-0.2,0-0.3,0-0.4C30.7,12.2,30.6,11.9,30.6,11.7z"/>
		<path class="st1" d="M20,26c-0.1-0.3-0.2-0.7-0.3-1.2c-0.2-0.5-0.4-1.1-0.6-1.6c-0.2-0.4-0.4-0.9-0.6-1.3
			c-0.4-0.9-0.9-1.8-1.4-2.5c-0.2-0.3-0.4-0.6-0.6-0.9c-0.1-0.1-0.1-0.1-0.2-0.2c-0.3-0.4-0.6-0.7-0.8-1l0-0.1l0,0
			c-0.1,0.1-0.2,0.1-0.4,0c-0.1,0-0.2-0.1-0.4-0.2c-0.1-0.1-0.2-0.1-0.3-0.2l0,0C14,16.4,13.5,16,13,15.6c-1.3-1.2-2.9-2.9-4.1-4.4
			c-0.2-0.2-0.3-0.4-0.5-0.6C8,10,7.6,9.5,7.4,9.1C7.3,8.9,7.3,8.7,7.2,8.6c-0.1-0.2-0.1-0.3,0-0.4c0,0,0,0,0,0c0,0,0,0,0,0
			c0,0,0,0,0,0L7,8.4L6.8,8.6c0,0-0.1,0.1-0.1,0.1c0,0,0,0,0,0C6.6,8.7,6.5,8.8,6.5,8.9C6.3,9,6.2,9.1,6.1,9.3c0,0-0.1,0.1-0.1,0.1
			c0,0,0,0,0,0c0,0,0,0,0,0c0,0,0,0,0,0c-0.1,0.2-0.1,0.4,0,0.8c0.1,0.2,0.2,0.4,0.3,0.7C6.4,11.2,6.7,11.6,7,12
			c0.4,0.6,0.9,1.1,1.4,1.7c0.8,0.8,1.6,1.6,2.5,2.2c0.9,0.7,1.8,1.3,2.6,1.6l0,0c0.2,0.1,0.3,0.1,0.4,0.2c0.2,0.1,0.4,0.1,0.5,0.1
			c0.2,0,0.4,0,0.5-0.1l0,0c0,0,0,0,0,0c0,0,0,0,0,0l0.1-0.1l0.1-0.1c0.2,0.2,0.5,0.5,0.7,0.8c0,0,0.1,0.1,0.1,0.1
			c0.2,0.2,0.3,0.5,0.5,0.7c0.7,1.1,1.3,2.4,1.8,3.7c0.1,0.3,0.2,0.6,0.3,1c0.1,0.5,0.3,1.1,0.3,1.5c0.1,0.4,0.1,0.8,0.1,1.2
			c0,0.1,0,0.3,0,0.4c0,0.2-0.1,0.4-0.1,0.6c-0.1,0.3-0.3,0.5-0.4,0.6c0,0,0,0,0,0c0,0-0.1,0-0.1,0c0,0,0,0,0.1,0l0.3-0.1l0,0l0,0
			c0.3-0.2,0.7-0.4,1.1-0.5c0.1,0,0.1-0.1,0.2-0.1c0,0,0,0,0.1,0c0.1-0.1,0.2-0.2,0.2-0.5c0-0.1,0-0.3,0-0.5C20,26.2,20,26.1,20,26z
			"/>
		<path class="st1" d="M17.3,23.3c-0.3-1.5-0.8-2.9-1.6-4.1c-0.1-0.2-0.2-0.4-0.4-0.5c0,0,0,0,0,0c0,0,0,0,0,0c0,0,0,0,0,0
			c-0.1-0.1-0.1-0.2-0.2-0.2c-0.1-0.2-0.3-0.3-0.4-0.5c0,0,0,0.1-0.1,0.1l0,0l0,0l0,0c0,0,0,0,0,0c0,0,0,0,0,0l0,0l0,0l0,0
			c0,0.1-0.1,0.1-0.1,0.2c0.1,0.1,0.2,0.2,0.2,0.3c0.1,0.1,0.1,0.2,0.2,0.2c0,0,0,0,0,0c0,0,0,0,0,0c0,0,0,0,0,0
			c0.1,0.2,0.3,0.4,0.4,0.6c0.7,1.2,1.2,2.6,1.3,4.1c0,0.3,0.1,0.7,0.1,1c0,0.6,0,1.1-0.1,1.6c-0.1,0.5-0.2,0.9-0.3,1.3c0,0,0,0,0,0
			c0,0,0,0,0,0c-0.1,0.2-0.1,0.3-0.2,0.5c-0.1,0.2-0.3,0.5-0.4,0.6c-0.4,0.5-0.8,0.7-1.2,0.9l0,0c-0.1,0-0.2,0-0.2,0
			c0,0,0.1,0,0.1,0l0,0h0l0.4-0.1c0,0,0,0,0,0c0,0,0,0,0,0c0,0,0,0,0,0c0,0,0.1,0,0.1,0c0.1,0,0.2-0.1,0.4-0.1
			c0.2,0,0.3-0.1,0.4-0.1c0,0,0.1,0,0.1,0c0.1,0,0.1,0,0.2,0c0,0,0,0,0,0c0.1,0,0.1,0,0.2,0c0,0,0,0,0.1,0h0
			c0.3-0.1,0.6-0.4,0.8-0.8c0.1-0.2,0.2-0.4,0.3-0.6c0-0.1,0.1-0.3,0.1-0.4c0,0,0,0,0,0c0,0,0,0,0,0c0.1-0.4,0.2-0.8,0.2-1.2
			c0-0.5,0-1-0.1-1.6C17.4,23.9,17.4,23.6,17.3,23.3z"/>
		<path class="st1" d="M14.7,27.4c0.2-0.4,0.4-0.9,0.6-1.4c0.2-0.6,0.3-1.3,0.4-1.9c0-0.5,0-0.9,0-1.4c-0.1-1-0.3-2-0.7-2.9
			c-0.1-0.3-0.3-0.6-0.5-0.9c0-0.1-0.1-0.1-0.1-0.2c0-0.1-0.1-0.1-0.2-0.2c0,0,0,0,0-0.1l0,0c-0.1,0.2-0.3,0.3-0.5,0.4
			c-0.1,0-0.2,0.1-0.3,0.1c0,0,0,0,0,0c-0.1,0-0.3,0-0.4,0c-0.2,0-0.4,0-0.6-0.1c-2.3-0.4-5.5-2.5-7.2-4.7C5.1,14.1,5.1,14,5,13.9
			c-0.3-0.4-0.5-0.7-0.6-1.1c-0.3-0.6-0.3-1.2-0.1-1.5c0,0,0,0,0,0l-0.3,0.4l0,0l0,0c0,0,0,0,0,0c0,0.1-0.1,0.2-0.2,0.2
			c-0.1,0.1-0.1,0.2-0.2,0.3c-0.1,0.1-0.1,0.2-0.2,0.4c0,0,0,0,0,0l0,0c0,0,0,0,0,0c0,0,0,0,0,0s0,0,0,0c0,0,0,0,0,0l0,0
			c0,0,0,0.1,0,0.1c-0.3,0.6-0.2,1.4,0.3,2.3c0.1,0.2,0.3,0.4,0.4,0.6c0.2,0.3,0.4,0.5,0.6,0.8c1.8,1.9,4.7,3.3,7,3.4
			c0.3,0,0.6,0,0.9-0.1c0.4-0.1,0.7-0.2,1-0.4l0,0c0.6,2.1-0.5,4.5-2.8,6l0,0c-0.3,0.2-0.6,0.3-0.9,0.5c-0.5,0.2-1,0.4-1.5,0.5
			c-2.3,0.5-4.6-0.1-5.8-1.7c-0.1-0.2-0.2-0.4-0.3-0.6c0,0.1,0.1,0.2,0.1,0.3c0.1,0.2,0.2,0.3,0.3,0.5c0.1,0.2,0.3,0.4,0.5,0.7
			c0,0,0,0,0,0c0,0,0,0,0,0c0,0.1,0.1,0.1,0.1,0.2c0,0,0.1,0.1,0.1,0.1c1.3,1.5,3.6,1.9,5.8,1.1c0.4-0.2,0.8-0.3,1.2-0.6
			c0.2-0.1,0.5-0.3,0.7-0.5c0,0,0,0,0,0c0.1,0,0.2-0.2,0.3-0.2l0.2-0.2c0,0,0,0,0.1-0.1c0,0,0.1-0.1,0.1-0.1c0,0,0,0,0,0
			c0,0,0.1-0.1,0.1-0.1l0,0c0,0,0.1-0.1,0.1-0.1c0,0,0,0,0,0c0,0,0,0,0.1-0.1c0,0,0,0,0,0c0,0,0,0,0.1-0.1c0,0,0,0,0,0
			c0,0,0,0,0.1-0.1c0,0,0,0,0,0c0,0,0,0,0,0c0,0,0,0,0,0s0,0,0,0c0,0,0,0,0.1-0.1c0,0,0,0,0,0c0,0,0-0.1,0.1-0.1c0,0,0,0,0,0
			c0,0,0-0.1,0.1-0.1c0,0,0,0,0,0c0,0,0,0,0,0s0,0,0,0c0,0,0,0,0,0c0,0,0,0,0,0c0,0,0,0,0,0c0,0,0,0,0,0c0,0,0,0,0-0.1c0,0,0,0,0,0
			l0,0c0,0,0,0,0,0c0,0,0,0,0,0c0,0,0,0,0-0.1c0,0,0,0,0,0s0,0,0,0c0,0,0,0,0,0c0,0,0,0,0-0.1c0,0,0,0,0,0c0,0,0,0,0,0l0,0
			c0,0,0,0,0,0c0,0,0,0,0,0c0,0,0,0,0,0c0,0,0,0,0,0c0,0,0,0,0,0c0,0,0,0,0,0c0,0,0,0,0,0c0,0,0,0,0,0c0,0,0,0,0,0c0,0,0,0,0,0
			c0,0,0,0,0,0c0,0,0,0,0,0c0,0,0,0,0,0c0,0,0,0,0,0c0,0,0,0,0-0.1s0,0,0-0.1c0,0,0,0,0,0s0,0,0,0c0,0,0,0,0,0c0,0,0,0,0,0
			c0,0,0,0,0,0v0c0,0,0,0,0,0c0,0,0,0,0,0c0,0,0,0,0,0c0,0,0,0,0-0.1c0,0,0,0,0,0c0,0,0,0,0,0l0,0v0c0,0,0,0,0,0c0,0,0,0,0,0v0
			c0,0,0,0,0,0c0,0,0,0,0,0c0,0,0,0,0,0c0,0,0,0,0,0c0,0,0,0,0,0c0,0,0,0,0,0c0,0,0,0,0-0.1s0,0,0,0c0,0,0,0,0,0c0,0,0-0.1,0-0.1
			c0,0,0,0,0,0c0,0,0,0,0,0c0,0,0-0.1,0-0.1c0,0,0,0,0,0c0,0,0,0,0,0c0,0,0-0.1,0-0.1c0,0,0,0,0-0.1c0,0,0-0.1,0-0.1c0,0,0,0,0-0.1
			c0,0,0-0.1,0-0.1c0,0,0,0,0-0.1v0c0,0,0,0,0-0.1c0,0,0-0.1,0-0.1c0,0,0,0,0,0c0,0,0,0,0-0.1c0,0,0,0,0,0c0,0,0,0,0,0
			c0,0,0,0,0-0.1l0-0.1c0,0,0,0,0,0l0,0c0,0,0,0,0,0c0,0,0,0,0,0v0c0,0,0,0,0,0c0,0,0,0,0,0c0,0,0,0,0,0v0c0,0,0,0,0,0v0
			c0,0,0,0,0,0v0v0c0,0,0,0,0,0v0l0,0v0c0,0,0,0,0,0v-0.2c0,0,0,0,0,0v-0.1c0,0,0,0,0,0v0c0,0,0,0,0,0v0c0,0,0,0,0,0l0,0v0v0
			c0,0,0,0,0,0l0,0c0,0,0,0,0,0c0,0,0,0,0,0c0,0,0,0,0,0v0c0,0,0,0,0,0v0c0,0,0,0,0,0s0,0,0,0c0,0,0,0,0,0c0,0,0,0,0,0v0
			c0,0,0,0,0,0v0c0,0,0,0,0,0c0,0,0,0,0,0c0,0,0,0,0,0c0,0,0,0,0,0v0c0,0,0,0,0-0.1l0,0c0,0,0,0,0,0c0,0,0,0,0,0s0,0,0,0
			c0,0,0,0,0-0.1c0,0,0,0,0,0c0,0,0,0,0,0c0,0,0,0,0,0c0,0,0,0,0-0.1c0,0,0,0,0,0c0,0,0,0,0,0c0,0,0,0,0,0s0,0,0,0c0,0,0,0,0,0
			c0,0,0,0,0,0c0,0,0,0,0-0.1v0c0,0,0,0,0,0v0v0l0,0v0c0,0,0-0.1,0-0.1l0,0l0.1-0.2c0.7,1.6,0.6,3.6-0.4,5.4c-0.4,0.7-0.9,1.4-1.5,2
			c0,0,0,0,0,0c0,0,0,0,0,0c-0.2,0.2-0.4,0.3-0.6,0.5c-0.3,0.2-0.7,0.5-1,0.6c-1.7,0.9-3.4,0.9-4.9,0c0,0,0,0,0,0c0,0,0,0,0,0
			c0,0,0.1,0.1,0.1,0.1c0,0,0,0,0.1,0c0,0,0,0,0,0c0,0,0,0,0.1,0c0.1,0,0.1,0.1,0.2,0.1c0,0,0,0,0,0c0.1,0,0.2,0.1,0.3,0.1
			c0,0,0,0,0,0c0.1,0,0.1,0.1,0.2,0.1c0.1,0.1,0.2,0.1,0.4,0.2c0.1,0,0.2,0.1,0.3,0.1c0,0,0,0,0,0c0,0,0,0,0,0
			c-0.1,0-0.2-0.1-0.2-0.1c0.2,0.1,0.4,0.2,0.6,0.2c1.2,0.4,2.5,0.2,3.7-0.6c0.3-0.2,0.6-0.4,0.9-0.7c0.2-0.1,0.3-0.3,0.5-0.5
			c0,0,0,0,0,0c0,0,0,0,0,0c0.5-0.5,0.9-1.1,1.2-1.8c0.5-1.1,0.8-2.3,0.8-3.4c0-0.3,0-0.5-0.1-0.8c-0.1-0.7-0.3-1.4-0.6-1.9l0,0
			c0,0,0-0.1,0.1-0.1c0,0,0,0,0,0c0,0,0,0,0,0l0.1-0.1c0.1,0.2,0.2,0.4,0.3,0.6c0.3,0.5,0.5,1.2,0.6,1.8c0,0.1,0,0.2,0.1,0.3
			c0.1,0.7,0.1,1.5,0,2.3c-0.1,0.7-0.3,1.4-0.6,2.1c-0.2,0.5-0.5,1-0.8,1.5c-0.1,0.2-0.3,0.3-0.4,0.5c-0.2,0.3-0.5,0.5-0.7,0.7
			c-0.9,0.7-1.8,1-2.7,0.9c0.2,0,0.4,0,0.5,0.1h0c0,0,0,0,0.1,0c0,0,0.1,0,0.1,0c0,0,0,0,0.1,0c0,0,0.1,0,0.1,0c0,0-0.1,0-0.1,0
			c0.1,0,0.2,0,0.3,0c0.1,0,0.2,0,0.3,0c0,0,0,0,0,0c0,0,0,0,0.1,0c0,0,0,0,0,0c0,0,0,0,0,0c0,0,0.1,0,0.1,0c0,0,0,0,0.1,0
			c0,0,0,0,0,0h0h0.1c0.1,0,0.1,0,0.2,0c0.7-0.1,1.4-0.4,1.9-0.9c0.2-0.2,0.4-0.4,0.6-0.7C14.5,27.8,14.6,27.6,14.7,27.4z"/>
		<path class="st1" d="M2.3,24.1C2.3,24.1,2.3,24.1,2.3,24.1C2.3,24.1,2.3,24.1,2.3,24.1C2.3,24.1,2.3,24.1,2.3,24.1z"/>
		<path class="st1" d="M28.9,6.7C29,6.8,29,6.9,29.1,6.9C29,6.9,29,6.8,28.9,6.7z"/>
		<path class="st1" d="M29.4,16.9c-0.5,0.5-1.2,0.9-2.1,1.1c0,0,0,0,0,0c0,0,0,0,0,0c-1.1,0.3-2.4,0.3-3.6,0
			c-0.9-0.2-1.9-0.6-2.7-1.1c-0.8-0.5-1.4-1-1.9-1.7c0,0,0,0,0,0c0,0,0,0,0,0C19.1,15.2,19,15.1,19,15c-0.1,0-0.1,0-0.2,0.1
			c0,0-0.1,0-0.1,0c0.1,0.2,0.2,0.3,0.3,0.5c0,0,0,0,0,0c0,0,0,0,0,0c0.2,0.3,0.5,0.6,0.9,0.9c0.5,0.5,1.1,0.9,1.7,1.2
			c1.7,0.9,3.7,1.4,5.4,1.2c0,0,0-0.1,0.1-0.1c0,0,0,0.1-0.1,0.1c0.5-0.1,1-0.2,1.4-0.4c0.5-0.2,0.8-0.6,1.1-0.9c0,0,0,0,0,0
			c0,0,0-0.1,0.1-0.1c0,0,0,0,0,0c0,0,0-0.1,0-0.1v0c0-0.1,0.1-0.2,0.1-0.3c0,0,0,0,0-0.1c0.1-0.4,0.3-0.7,0.4-1.1c0,0,0,0,0,0v0
			C30,16.2,29.7,16.6,29.4,16.9z"/>
		<path class="st1" d="M7.2,25.2c0.7,0,1.4-0.1,2-0.3c0.4-0.1,0.9-0.3,1.3-0.5c2.1-1,3.2-2.9,3.1-4.6c0-0.1,0-0.1,0-0.2
			c0,0,0,0.1,0,0.2c0,0,0,0,0,0c-0.2,0.5-0.6,0.8-1.2,1.1c-0.4,0.2-0.9,0.4-1.4,0.5l0,0c-1.6,0.3-3.5-0.1-5.2-1
			C5.1,20,4.4,19.5,3.8,19c-0.3-0.3-0.6-0.6-0.8-0.9c-0.8-1-1-2.1-0.7-2.9c0,0,0,0,0,0v0v0c0,0,0-0.1,0.1-0.1c0,0,0,0.1,0,0.1
			c0,0.1-0.1,0.1-0.1,0.2c0,0,0,0,0,0c0,0,0,0,0,0c0,0.1,0,0.1-0.1,0.2c0,0.1,0,0.1-0.1,0.2c0,0.1,0,0.1,0,0.1
			c-0.1,0.2-0.2,0.5-0.2,0.8c0,0,0,0.1,0,0.1c0,0,0,0,0,0l0,0l0,0l0,0c0,0,0,0,0,0c-0.4,1.8,0.9,3.6,2.9,4.7c0.8,0.4,1.7,0.8,2.7,1
			c1.1,0.2,2.3,0.2,3.4-0.1l0,0c1.2-0.3,1.9-0.9,2.3-1.4c0.4-0.5,0.5-0.9,0.6-1.1c0,0.5-0.1,1.1-0.6,1.8c-0.4,0.7-1.2,1.4-2.5,2l0,0
			c-0.6,0.2-1.2,0.4-1.8,0.5c-0.9,0.1-1.7,0.1-2.5,0c-2.6-0.5-4.7-2.2-4.8-4.5c0,0,0-0.1,0-0.1v0c0,0,0,0,0,0v0c0,0,0,0.1,0,0.1
			l0,0.1c0,0,0,0,0,0c0,0.1,0,0.1,0,0.2c0,0.1,0,0.2,0,0.3c0,0,0,0,0,0.1c0,0,0,0.1,0,0.1c0,0,0,0,0,0v0c0,0,0,0,0,0.1v0
			c0,0,0,0.1,0,0.1c0,0,0,0.1,0,0.1c0,0,0,0,0,0c0,0,0,0,0,0.1c0,0,0,0,0,0.1s0,0,0,0.1c0,0,0,0.1,0,0.1c0,0,0,0,0,0
			c0,0,0,0.1,0,0.1c0,0,0,0,0,0.1v0l0,0c0,0,0,0,0,0.1c0,0,0,0,0,0v0l0,0.1c0,0,0,0,0,0s0,0,0,0c0.1,0.6,0.3,1.2,0.8,1.8
			C3.3,24.4,5.2,25.2,7.2,25.2z"/>
		<path class="st1" d="M20.9,2.5C20.9,2.5,20.9,2.5,20.9,2.5c0.5,0.1,1,0.2,1.4,0.5c0.4,0.2,0.7,0.6,1,1c0,0.1,0.1,0.1,0.1,0.2
			c0.2,0.3,0.4,0.6,0.5,0.9c0.4,0.9,0.6,1.9,0.7,3c0,0.4,0,0.8,0,1.3c-0.1,0.7-0.2,1.3-0.4,1.9c-0.2,0.5-0.4,1-0.7,1.4
			c-0.1,0.2-0.2,0.3-0.3,0.5c-0.2,0.2-0.4,0.4-0.6,0.6c-0.7,0.7-1.5,1-2.3,1l0,0c0,0,0,0,0,0l0,0h0c0,0,0,0,0.1,0
			c1,0.2,2.1-0.1,3-0.8c0.2-0.2,0.5-0.4,0.7-0.7c0.1-0.2,0.3-0.3,0.4-0.5l0,0l0,0c0.4-0.5,0.6-1,0.9-1.6c0.3-0.7,0.5-1.5,0.6-2.2
			c0.2-1.4,0-2.9-0.6-4.1c-0.1-0.3-0.3-0.5-0.5-0.8c-0.2-0.3-0.5-0.6-0.8-0.8c-0.4-0.3-0.9-0.6-1.4-0.7c0,0,0,0,0,0l-0.2,0
			c-0.1,0-0.2,0-0.4-0.1c-0.1,0-0.1,0-0.2,0c0,0-0.1,0-0.1,0c-0.2,0-0.3,0-0.5-0.1c0,0-0.1,0-0.1,0c0,0-0.1,0-0.1,0c0,0,0,0,0,0
			L20.9,2.5C21,2.5,20.9,2.5,20.9,2.5c-0.1,0-0.1,0-0.1,0c-0.1,0-0.1,0-0.2,0c0.1,0,0.1,0,0.2,0C20.8,2.5,20.9,2.5,20.9,2.5z"/>
	</g>
</g>
</svg>
