<?xml version="1.0" encoding="utf-8"?>
<!-- Generator: Adobe Illustrator 19.1.1, SVG Export Plug-In . SVG Version: 6.00 Build 0)  -->
<svg version="1.1" id="Layer_1" xmlns="http://www.w3.org/2000/svg" xmlns:xlink="http://www.w3.org/1999/xlink" x="0px" y="0px"
	 viewBox="0 0 180 180" style="enable-background:new 0 0 180 180;" xml:space="preserve">
<style type="text/css">
	.st0{opacity:0.1;}
	.st1{fill:#1BDBC4;}
</style>
<g>
	<g class="st0">
		<path class="st1" d="M51.9,37.1L51.9,37.1L51.9,37.1C51.9,37.1,51.9,37.1,51.9,37.1z"/>
		<path class="st1" d="M149.5,126C149.5,125.9,149.5,125.9,149.5,126c0,0-0.2,0.1-0.3,0.3C149.3,126.1,149.4,126.1,149.5,126z"/>
		<path class="st1" d="M13.3,134.3c0.1,0.2,0.1,0.3,0.2,0.5s0.2,0.4,0.3,0.6c-0.3-0.6-0.6-1.2-0.9-1.8
			C13.1,133.8,13.2,134.1,13.3,134.3z"/>
		<path class="st1" d="M77.6,109.6c0,0.2,0,0.3,0,0.5C77.7,110,77.6,109.9,77.6,109.6L77.6,109.6z"/>
		<path class="st1" d="M14,135.8C14,135.9,14.1,135.9,14,135.8c0,0,0,0,0-0.1C14,135.7,14,135.8,14,135.8z"/>
		<path class="st1" d="M164.3,37.4c0.4,0.5,0.7,1.1,1,1.6C165.1,38.5,164.7,38,164.3,37.4z"/>
	</g>
	<g>
		<path class="st1" d="M161.8,107c0,0.1-0.1,0.2-0.2,0.3v0c-0.5,0.7-1.1,1.4-1.8,2c-1.4,1.2-3.4,2-5.7,2.6c-1.5,0.3-3.2,0.5-5,0.5
			c-11.5,0.1-26.2-6.3-36.4-15.2c-2.5-2.2-4.7-4.5-6.6-6.9c-0.1-0.1-0.2-0.3-0.3-0.5c-1-1.3-1.9-2.6-2.6-3.9l0.4-0.2
			c0.3-0.1,0.7-0.3,1.1-0.5c0.1,0,0.2-0.1,0.3-0.1c1.4-0.6,2.6-1.8,3.3-3.9c0.2-0.4,0.3-0.9,0.4-1.4c0,0,0,0,0-0.1
			c0.1-0.5,0.2-0.9,0.3-1.5c0.1-0.8,0.2-1.6,0.3-2.5c0.1-2,0-4.3-0.3-6.7c-0.3-2.7-0.8-5.5-1.5-8.5c-0.4-1.8-0.9-3.6-1.5-5.4
			c-2.3-7.5-5.8-15.1-9.8-21.4c-0.9-1.4-1.8-2.6-2.7-3.9c-0.2-0.3-0.5-0.6-0.7-0.9c-1.7-2.1-3.3-3.8-4.9-5.2c-2.3-1.9-4.3-3-6.1-3.2
			c-0.6-0.1-1.2,0-1.7,0h0c-0.5,0.2-0.9,0.4-1.4,0.6c0.1,0,0.1-0.1,0.2-0.1c0,0,0.1,0,0.2-0.1l-0.2,0.1c-0.9,0.3-1.7,0.7-2.5,1.1
			l-0.5,0.2l0,0h0c-1.6,0.7-3.7,1.7-5.3,2.5c0.3-0.1,0.5-0.2,0.8-0.2c0.5,0,1,0,1.5,0.2c1.5,0.5,3.4,1.8,5.6,4
			c1.5,1.5,3.2,3.4,4.9,5.7c0.1,0.1,0.2,0.3,0.3,0.4c1.1,1.5,2.2,3.1,3.3,4.7c3.5,5.4,6.8,11.6,9.5,17.7c0.8,1.9,1.6,3.8,2.3,5.7
			c1.2,3.2,2.3,6.2,3,9.1c0.6,2.4,1.1,4.6,1.3,6.6c0.1,0.8,0.2,1.6,0.2,2.3c0,1,0,1.9-0.1,2.6c-0.3,1.7-0.9,2.8-1.8,3.2c0,0,0,0,0,0
			c0,0-0.1,0-0.1,0.1c0.9,1.6,1.9,3.3,3.3,5.1l0,0l0,0l0,0l0,0c0.2,0.2,0.3,0.4,0.5,0.6c9.6,12.4,27.6,23.7,40.6,25.4
			c1.3,0.2,2.6,0.3,3.7,0.2c2,0,3.7-0.4,5-1.1c0.8-0.4,1.5-0.9,2.1-1.6c0.1-0.1,0.2-0.3,0.3-0.4l0,0l0.5-0.6l0,0
			c0.1-0.1,0.1-0.2,0.2-0.3c0,0,0,0,0,0c0.4-0.6,0.8-1.2,1.2-1.7c0.5-0.7,1-1.5,1.4-2.3l0.4-0.6c0-0.1,0.1-0.2,0.2-0.3
			c0.1-0.1,0.1-0.2,0.2-0.3l0.5-0.9C161.6,107.5,161.7,107.2,161.8,107c0.2-0.3,0.3-0.6,0.5-0.8c0-0.1,0.1-0.2,0.1-0.2
			c0,0-0.1,0.1-0.1,0.2c0,0.1-0.1,0.2-0.2,0.3l0.3-0.6l0,0c-0.1,0.3-0.3,0.5-0.4,0.8C162,106.8,161.9,106.9,161.8,107z"/>
		<path class="st1" d="M50.6,37L50.6,37L50.6,37L50.6,37z"/>
		<path class="st1" d="M147.7,126.2c-0.5,0.4-1.2,0.6-2,0.7c-1,0.1-2.3-0.1-3.8-0.5c-0.8-0.2-1.6-0.5-2.5-0.9
			c-4.9-1.9-10.8-5.6-16.7-10.3c-3.5-2.7-6.9-5.7-10.1-8.9c-3.9-3.8-7.6-7.8-10.5-11.7c-1.5-2-2.8-3.9-3.8-5.6
			c-0.1-0.2-0.2-0.4-0.3-0.6c0,0,0,0,0,0c-0.4,0.3-0.8,0.5-1.2,0.7l-0.1,0c-0.2,0.1-0.5,0.3-0.8,0.5c0,0-0.1,0-0.1,0.1
			c0.2-0.1,0.3-0.4,0.3-0.8c0-0.4-0.1-0.9-0.3-1.5c-0.2-0.6-0.4-1.3-0.7-2.1c-0.2-0.6-0.5-1.2-0.8-2c-0.8-1.8-1.8-4-3-6.3
			c-1.6-3.2-3.6-6.6-5.8-10.3c-4-6.7-8.7-13.9-13.1-20.2c-1.1-1.5-2.2-3-3.2-4.4c-1.2-1.5-2.2-2.9-3.2-4c-2.3-2.9-4.2-4.8-5.5-5.9
			c-0.5-0.4-0.9-0.6-1.2-0.8c-0.3-0.1-0.5-0.2-0.7-0.1h0c-0.1,0-0.1,0.1-0.2,0.1l0,0c-0.1,0.1-0.2,0.1-0.3,0.2
			c-0.8,0.5-1.5,1-2.2,1.4c-0.1,0.1-0.2,0.1-0.3,0.2l-0.1,0.1c-0.8,0.6-1.7,1.2-2.7,1.9c0,0,0,0,0,0c-0.1,0-0.2,0.1-0.3,0.2
			c-0.1,0.1-0.2,0.1-0.3,0.2c-0.3,0.2-0.6,0.4-0.9,0.6c-0.1,0.1-0.2,0.1-0.3,0.2c0,0-0.1,0.1-0.2,0.1c0,0,0,0-0.1,0.1c0,0,0,0,0,0
			c0,0,0,0-0.1,0c0,0-0.1,0.1-0.1,0.1l0,0c0,0,0.2,0.3,0.6,0.7c0.3,0.4,0.6,0.9,1.1,1.4c1.3,1.7,3.3,4.4,6.1,8
			c0.4,0.6,0.9,1.2,1.4,1.8c2.6,3.4,5.4,7.1,8.2,11c1.8,2.4,3.7,4.9,5.5,7.3c3.9,5.2,7.6,10.2,10.7,14.4c1.7,2.2,3.2,4.3,4.4,5.9
			c0.5,0.6,0.9,1.2,1.2,1.7c0.5,0.7,0.9,1.2,1.3,1.7c0.7,1,1.1,1.5,1.1,1.5c-0.6,0.4-1.2,0.9-1.8,1.4c-0.1,0.1-0.2,0.1-0.3,0.2
			c0,0,0,0,0,0l0,0l0,0c0.6,0.8,1.4,1.6,2.1,2.6c0.9,1.2,2,2.5,3.1,4l0,0c1.2,1.6,2.4,3.2,3.6,4.9c4.3,6.1,8.9,12.9,12.8,19.2
			c2.2,3.5,4.2,6.9,6,10c1.4,2.4,2.5,4.6,3.5,6.5c0.1,0,0.1-0.1,0.2-0.1c-0.1,0-0.1,0.1-0.2,0.1c0.3,0.7,0.6,1.3,0.9,1.8
			c0.4,0.9,0.7,1.7,0.9,2.4c0.3,0.9,0.3,1.5,0.2,1.8c0,0,0,0,0,0c0.3-0.2,0.5-0.3,0.7-0.5l0.5-0.3l0,0c1.7-1.2,3.8-2.7,5.6-4
			c0.3-0.3,0.6-0.5,0.9-0.7c0,0,0,0,0,0c-0.1-0.1-0.5-0.4-1-1c-0.4-0.5-1-1.2-1.7-2c-0.4-0.5-0.8-1-1.3-1.6c-0.1,0-0.1,0.1-0.2,0.2
			c0.1,0,0.1-0.1,0.2-0.2c-1.4-1.8-3.2-4-5.2-6.5c-4.1-5.2-9.1-11.6-14-17.9c0,0,0-0.1-0.1-0.1c-3.6-4.6-7.1-9.3-10.3-13.5l0,0
			c-0.4-0.6-0.8-1.1-1.2-1.6c-1.6-2.1-2.9-3.8-3.9-5.2c0.3-0.2,0.6-0.4,0.9-0.6l0.8-0.6l0.5-0.3c0,0,0,0,0,0l0.1-0.1
			c0.1-0.1,0.2-0.1,0.3-0.2c0,0,0,0,0,0c0.2-0.1,0.5-0.3,0.7-0.5c1.2,1.9,2.7,4.1,4.6,6.7c1.1,1.4,2.2,2.9,3.5,4.4
			c6.5,8,14.7,16.5,22,22.7c3.2,2.8,6.3,5.2,8.9,6.9c0.7,0.5,1.3,0.8,1.9,1.2c1.2,0.6,2.1,1.1,2.9,1.3c0.8,0.2,1.4,0.2,1.7,0
			c0,0,0,0,0.1,0c0,0,0,0,0.1-0.1l0,0l0,0l0.9-0.9l0,0l0,0c0.2-0.1,0.3-0.3,0.5-0.5c0.6-0.6,1.3-1.3,2-2c0.1-0.2,0.3-0.3,0.4-0.5
			c0.4-0.4,0.7-0.8,1.1-1.2l0,0c0,0,0,0,0,0l0.1-0.1c0.3-0.3,0.6-0.7,1-1.1c0,0-0.1,0.1-0.1,0.1c0,0,0-0.1,0.1-0.1
			c0.1-0.1,0.2-0.2,0.3-0.3c0,0,0,0,0.1-0.1s0.1-0.1,0.2-0.2c0,0-0.1,0.1-0.1,0.1C147.8,126.2,147.8,126.2,147.7,126.2z"/>
		<path class="st1" d="M148.1,125.8C148.1,125.8,148.2,125.8,148.1,125.8c0,0-0.2,0.1-0.3,0.3C148,126,148.1,125.9,148.1,125.8z"/>
		<path class="st1" d="M12,134.2c0.1,0.2,0.1,0.3,0.2,0.5s0.2,0.4,0.3,0.6c-0.3-0.6-0.6-1.2-0.9-1.8C11.8,133.6,11.9,133.9,12,134.2
			z"/>
		<path class="st1" d="M76.3,109.5c0,0.2,0,0.3,0,0.5C76.4,109.9,76.3,109.7,76.3,109.5L76.3,109.5z"/>
		<path class="st1" d="M172.7,65.5C172.7,65.5,172.7,65.5,172.7,65.5v-0.2c0-0.1,0-0.3,0-0.4c0-0.3,0-0.7-0.1-1c0-0.3,0-0.7-0.1-1v0
			v0c0,0.2,0,0.4,0,0.6c0.1,1,0.1,1.8,0.2,2.6c0-0.7-0.1-1.6-0.2-2.6c0.4,7.5-2.4,17.9-17.3,25.8c0,0.2,0,0.4,0,0.6
			c0-0.2,0-0.4-0.1-0.6c-2.4,1.2-4.9,2.1-7.5,2.8c-3.8,1-7.6,1.5-11.4,1.5c-10.2,0-20-3.5-26.3-10.1c0.3-0.1,0.6-0.1,0.8-0.2
			l0.4-0.1l0,0l0,0c0.1,0,0.2,0,0.3,0c7.2,6,17.9,8.1,28.4,5.9c3.1-0.6,6.1-1.6,9.1-3c1.6-0.8,3.2-1.6,4.8-2.6
			c14-8.8,19.9-23.8,14.9-35.9c-0.4-0.9-0.8-1.7-1.1-2.4c0,0,0-0.1-0.1-0.2c-0.3-0.6-0.6-1.2-0.9-1.8c-0.3-0.7-0.7-1.3-1.1-2
			c-0.2-0.3-0.3-0.6-0.5-0.9c-0.3-0.5-0.6-0.9-0.9-1.4c2.2,3.8,3.3,7.9,3.4,12.2c0,3.3-0.5,6.7-1.6,10.1c-2.3,7-7.1,13.7-14,18.8
			c-1.3,0.9-2.6,1.8-4,2.6c-2.5,1.4-5,2.6-7.7,3.4c-10,3.2-20.3,2.2-27.8-2.9h0c0.3,0,0.6-0.1,0.9-0.2c7.3,3.7,16.5,3.5,25.1-0.6
			c2.1-1,4.2-2.3,6.2-3.8c1.1-0.8,2.2-1.7,3.2-2.7c3.8-3.4,6.8-7.4,9-11.7c5.4-10.3,6.1-22.1,1.2-31.1c-0.6-1.1-1.2-2.1-2-3.2
			c-1.3-1.8-2.9-3.3-4.6-4.6c-1.5-1.1-3.6-2.4-5.1-3.5l0,0c0,0,0,0,0,0c-0.6-0.3-1.1-0.6-1.6-0.9c-0.2-0.1-0.5-0.3-0.7-0.4
			c-0.1,0-0.2-0.1-0.3-0.1c-0.3-0.2-0.7-0.4-1.1-0.6l-0.1-0.1c0,0-0.1,0-0.1,0c0,0-0.1,0-0.1,0c-0.1,0-0.2-0.1-0.3-0.2c0,0,0,0,0,0
			c0,0,0,0,0,0c-0.1,0-0.2-0.1-0.3-0.2c0,0,0,0,0.1,0c-0.1,0-0.2-0.1-0.3-0.1h0c-0.3-0.1-0.6-0.3-0.8-0.3l0,0c0.5,0.2,1,0.4,1.5,0.7
			c0.3,0.1,0.5,0.3,0.8,0.4l0,0c2.2,1.2,4.3,2.9,6.1,5c0.4,0.4,0.7,0.8,1.1,1.3c7.4,9.8,7.4,24.8,1.1,37.3c-1.8,3.6-4.2,7-7,10l0,0
			l0,0c-0.9,1-1.9,1.9-2.9,2.7c-1.7,1.5-3.5,2.7-5.3,3.8c-7.4,4.3-15.6,5.2-22.4,2.6c2.6-0.7,5-2.4,7.1-5c0.8-1,1.6-2.1,2.3-3.4
			c0.5-0.9,0.9-1.8,1.3-2.8c0,0-0.1,0-0.1,0c0,0,0.1,0,0.1,0c0.9-2.3,1.7-4.7,2.1-7.2c0.6-2.9,0.9-6,0.9-9c0-2,0-4-0.3-6.1
			c-0.7-8-3.1-15.9-6.8-22.3c-0.8-1.4-1.6-2.6-2.5-3.8c-0.3-0.4-0.6-0.8-0.9-1.2c-1.7-2.1-3.5-3.8-5.4-5c-2.3-1.5-4.7-2.3-7-2.5
			c-0.6,0-1.2,0-1.8,0c-0.2,0-0.4,0-0.6,0l-3.9,0.7l-0.1,0c-0.1,0-0.2,0-0.2,0c-0.1,0-0.2,0-0.3,0c-1.5,0.3-3.3,0.8-4.8,1.1
			c0.6-0.1,1.3-0.2,2-0.1c2.2,0.1,4.5,1,6.8,2.6c1.7,1.2,3.3,2.7,4.9,4.7c0.4,0.5,0.8,1,1.2,1.5c0.6,0.8,1.2,1.6,1.7,2.4
			c4.4,6.8,7.6,15.5,9,24.1c0.3,1.9,0.6,3.9,0.7,5.8c0.2,2.9,0.3,5.8,0,8.5c-0.2,2.4-0.6,4.8-1.2,6.9l0,0c-0.3,0.9-0.6,1.8-0.9,2.7
			c-0.5,1.2-1,2.3-1.6,3.3c-1.6,2.5-3.6,4.1-5.9,4.7h0c0,0-0.1,0-0.1,0c-0.2,0-0.5,0.1-0.7,0.2h0c5,6.1,12.7,10.2,21.3,12
			c4.5,0.9,9.2,1.2,13.9,0.8c3.9-0.4,7.8-1.2,11.4-2.6c10.4-4.3,16-10.9,17.3-19.8c0-0.1,0-0.2,0-0.3c0,0,0-0.1,0-0.1
			c0-0.5,0-1,0-1.5c0-0.1,0-0.3,0-0.4v-0.1c0-0.9,0-1.6,0.1-2.2c0,0.7,0,1.4-0.1,2.3c0,0,0,0,0,0c0-0.9,0.1-1.7,0.1-2.4
			C172.9,68.3,172.8,66.8,172.7,65.5z"/>
		<path class="st1" d="M112.5,146.4c-0.3-2-0.9-4.2-1.6-6.5c-0.9-2.9-2-6-3.3-9.2c-1-2.4-2.1-4.8-3.2-7.2c-2.4-4.9-5.1-9.9-8-14.4
			c-1.2-1.8-2.4-3.6-3.6-5.2c-0.3-0.4-0.6-0.8-0.9-1.2c-1.7-2.3-3.3-4.1-4.7-5.6L87,96.8l0.1-0.1c-0.4,0.4-1.2,0.3-2.4-0.3
			c-0.6-0.3-1.3-0.6-2.1-1.2c-0.6-0.3-1.2-0.8-1.8-1.2l0,0c-2.3-1.7-4.9-3.9-7.8-6.5c-7.5-6.8-16.3-16.2-23.1-24.7
			c-0.9-1.2-1.8-2.3-2.6-3.4c-2.6-3.4-4.5-6.3-5.7-8.5c-0.6-1-1-1.9-1.3-2.7c-0.4-1.2-0.5-1.9-0.2-2.3c0,0,0,0,0,0
			c0,0,0.1-0.1,0.1-0.1c-0.1,0-0.1,0.1-0.2,0.2l-1,0.9l-1.3,1.2c-0.2,0.2-0.3,0.3-0.5,0.5c0,0,0,0,0,0c-0.4,0.4-0.7,0.7-1.1,1.1
			c-0.7,0.8-1.5,1.5-2.2,2.3c-0.2,0.2-0.3,0.4-0.5,0.6c0,0-0.1,0.1-0.2,0.2c0,0-0.1,0.1-0.1,0.1c0,0,0,0,0,0c-0.7,0.9-0.7,2.5,0,4.5
			c0.4,1.1,0.9,2.4,1.7,3.8c1.1,1.9,2.4,4,4.3,6.4c2.3,3.2,5.1,6.4,8.2,9.5c4.4,4.6,9.2,9,14,12.7c5.2,4.1,10.3,7.4,14.5,9.2l0,0
			c0.9,0.4,1.6,0.7,2.4,0.9c1.1,0.3,2,0.6,2.8,0.6c1.4,0.1,2.4-0.1,3-0.8l0,0c0,0,0.1-0.1,0.1-0.1c0,0,0.1-0.1,0.2-0.2l0.4-0.4
			l0.5-0.5c1.3,1.2,2.6,2.7,4,4.5c0.2,0.2,0.3,0.5,0.6,0.7c0.9,1.2,1.8,2.6,2.8,4c4,6.2,7.5,13.7,10,21c0.6,1.8,1.2,3.6,1.7,5.4
			c0.8,3,1.4,6,1.8,8.7c0.3,2.3,0.5,4.6,0.4,6.6c0,0.8-0.1,1.6-0.2,2.3c-0.1,1.2-0.3,2.2-0.6,3.1c-0.6,1.7-1.4,2.9-2.5,3.5
			c0,0-0.1,0-0.1,0c-0.2,0.1-0.5,0.2-0.7,0.3c0.1,0,0.3-0.1,0.4-0.1l1.6-0.7l0,0l0,0c1.9-0.9,4.2-2,6.2-2.9c0.3-0.2,0.6-0.3,0.9-0.5
			c0.1,0,0.2-0.1,0.3-0.2c0.6-0.5,1.1-1.4,1.2-2.8c0.1-0.8,0.1-1.7,0-2.8C112.8,147.9,112.7,147.2,112.5,146.4z"/>
		<path class="st1" d="M97.3,131.2c-1.6-8.3-4.7-16.7-9-23.3c-0.7-1-1.4-2-2-3c0,0-0.1,0-0.1,0c0,0-0.1,0-0.1,0c0.1,0,0.1,0,0.2,0
			c-0.3-0.5-0.7-0.9-1.1-1.4c-0.8-0.9-1.6-1.8-2.3-2.6c-0.1,0.2-0.3,0.3-0.4,0.4l0,0l0,0l0,0c0,0,0,0,0,0.1c0,0,0,0,0,0l0,0l0,0l0,0
			c-0.2,0.3-0.5,0.6-0.7,0.9c0.5,0.5,0.9,1,1.4,1.5c0.3,0.4,0.7,0.9,1.1,1.3c0.1,0,0.1,0,0.2,0c0,0,0,0-0.1,0s-0.1,0-0.1,0
			c0.8,1,1.5,2.1,2.2,3.3c4,6.6,6.5,14.9,7.4,23.1c0.2,1.8,0.3,3.7,0.3,5.5c0,3.2-0.2,6.3-0.7,9.2c-0.4,2.6-1.1,5-2,7.2
			c0.1,0,0.2,0,0.3,0c-0.1,0-0.2,0-0.3,0c-0.4,0.9-0.8,1.8-1.2,2.6c-0.7,1.4-1.5,2.6-2.3,3.7c-2,2.6-4.4,4.2-7,4.8l-0.3,0
			c-0.5,0.1-0.9,0.2-1.4,0.2c0.3,0,0.6,0,0.8-0.1l0,0h0l2-0.4c0,0,0.1,0,0.2,0c0,0,0,0,0.1,0s0.1,0,0.1,0c0.3,0,0.5-0.1,0.8-0.2
			c0.7-0.1,1.4-0.3,2.1-0.4c0.9-0.2,1.7-0.4,2.4-0.6c0.2,0,0.3-0.1,0.5-0.1c0.3-0.1,0.6-0.2,0.9-0.3c0.1,0,0.1,0,0.2,0
			c0.3-0.1,0.6-0.2,0.9-0.3c0.1,0,0.2-0.1,0.3-0.1h0c1.8-0.7,3.5-2.1,4.7-4.3c0.6-1,1.2-2.2,1.6-3.5c0.3-0.8,0.5-1.6,0.7-2.5
			c-0.1,0-0.2,0-0.3,0.1c0.1,0,0.2,0,0.3-0.1c0.5-2.2,0.9-4.5,1-6.9c0.1-2.9,0-5.9-0.3-9C98,134.7,97.7,133,97.3,131.2z"/>
		<path class="st1" d="M82.8,154.6c1.4-2.4,2.5-5,3.4-7.8c1.1-3.5,1.8-7.2,2.1-10.9c0.2-2.6,0.2-5.2,0-7.8c-0.4-5.8-1.7-11.4-4-16.3
			c-0.8-1.8-1.7-3.5-2.8-5c-0.3-0.4-0.5-0.7-0.8-1.1c-0.3-0.4-0.6-0.7-0.9-1.1c0.1-0.1,0.2-0.2,0.2-0.3l0.1-0.2
			c-0.6,0.9-1.5,1.5-2.7,2c-0.6,0.2-1.2,0.4-1.9,0.6c-0.1,0-0.1,0-0.2,0c-0.7,0.1-1.5,0.2-2.3,0.1c-1.1,0-2.3-0.1-3.6-0.3
			c-13-2.2-31.1-14.2-40.6-26.8c-0.3-0.5-0.6-0.9-1-1.3c-1.5-2.1-2.6-4.1-3.4-6c-1.5-3.7-1.7-6.6-0.5-8.7c0-0.1,0.1-0.2,0.2-0.3
			l-1.6,2.3l-0.1,0.1l0,0c0,0,0,0-0.1,0.1c-0.3,0.4-0.6,0.9-0.9,1.3c-0.4,0.6-0.8,1.2-1.2,1.8c-0.4,0.7-0.8,1.4-1.2,2
			c0,0,0,0.1-0.1,0.1l0,0.1c0,0,0,0,0,0.1s0,0.1,0,0.1s0,0,0,0c0,0,0,0.1-0.1,0.1l0,0c-0.1,0.1-0.1,0.3-0.2,0.4
			c-1.7,3.3-1.1,7.9,1.9,13.1c0.7,1.2,1.5,2.4,2.4,3.6c1.1,1.4,2.3,2.9,3.7,4.3c10.2,10.6,26.7,18.8,39.3,19c1.8,0,3.5-0.1,5-0.4
			c2.3-0.5,4.1-1.3,5.5-2.4l0,0c3.2,11.6-2.8,25.3-15.6,33.6l0,0c-1.6,1-3.2,1.9-4.9,2.7c-2.7,1.3-5.5,2.3-8.4,2.9
			c-12.8,3-25.8-0.4-32.8-9.8c-0.7-1-1.4-2-2-3.1c0.3,0.6,0.6,1.1,0.8,1.5c0.6,1.1,1.1,2,1.6,2.9c0.7,1.2,1.5,2.3,2.8,4.1
			c0,0,0,0,0,0c0,0,0,0,0.1,0.1c0.3,0.3,0.5,0.7,0.8,1c0.2,0.2,0.4,0.4,0.6,0.6c7.6,8.5,20.5,10.7,32.7,6.2c2.3-0.9,4.6-1.9,6.8-3.2
			c1.3-0.8,2.6-1.7,3.9-2.6c0,0-0.1-0.1-0.1-0.2c0.6,0.1,1.2-1,1.7-1.4l1.2-1c0.1-0.1,0.3-0.2,0.4-0.3c0.2-0.2,0.4-0.4,0.6-0.6
			c0,0,0.1-0.1,0.1-0.1c0.2-0.2,0.4-0.4,0.6-0.6l0.2-0.2c0.1-0.1,0.3-0.3,0.4-0.4c0.1-0.1,0.1-0.2,0.2-0.2c0.1-0.1,0.2-0.3,0.3-0.4
			c0.1-0.1,0.1-0.2,0.2-0.3c0.1-0.1,0.2-0.2,0.3-0.4c0.1-0.1,0.1-0.2,0.2-0.3c0.1-0.1,0.2-0.3,0.3-0.4c0.1-0.1,0.1-0.2,0.2-0.3
			c0,0,0,0,0.1-0.1c0.1-0.1,0.2-0.2,0.2-0.3c0-0.1,0.1-0.2,0.2-0.3c0.1-0.1,0.2-0.3,0.3-0.4c0-0.1,0.1-0.1,0.2-0.2
			c0.1-0.2,0.3-0.3,0.4-0.5c0,0,0-0.1,0.1-0.1c0.1-0.2,0.3-0.4,0.4-0.6c0,0,0,0,0.1-0.1c0,0,0.1-0.1,0.1-0.2c0,0,0.1-0.1,0.1-0.2
			c0,0,0,0,0-0.1c0,0,0-0.1,0.1-0.1s0,0,0-0.1c0-0.1,0.1-0.2,0.2-0.3c0.1-0.1,0.1-0.2,0.2-0.3c0,0,0,0,0-0.1l0,0c0,0,0-0.1,0.1-0.1
			s0-0.1,0.1-0.1c0.1-0.1,0.2-0.3,0.3-0.4c0,0,0-0.1,0-0.1s0,0,0,0c0,0,0-0.1,0.1-0.1c0.1-0.1,0.2-0.3,0.2-0.4
			c0-0.1,0.1-0.2,0.2-0.3c0,0,0,0,0-0.1l0,0c0,0,0-0.1,0.1-0.1c0,0,0-0.1,0-0.1c0-0.1,0.1-0.2,0.1-0.3c0,0,0-0.1,0.1-0.1
			c0,0,0-0.1,0-0.1c0,0,0.1-0.1,0.1-0.2c0,0,0,0,0,0c0-0.1,0.1-0.2,0.1-0.2c0,0,0-0.1,0-0.1c0-0.1,0.1-0.2,0.1-0.3
			c0,0,0-0.1,0.1-0.2c0,0,0,0,0-0.1c0,0,0,0,0,0c0,0,0,0,0-0.1c0-0.1,0.1-0.2,0.1-0.3c0-0.1,0.1-0.2,0.1-0.3c0,0,0,0,0,0
			c0,0,0,0,0-0.1c0-0.1,0.1-0.2,0.1-0.3c0,0,0-0.1,0-0.1c0-0.1,0-0.1,0.1-0.2v0c0,0,0,0,0,0c0,0,0-0.1,0-0.1c0,0,0-0.1,0-0.1
			c0-0.1,0.1-0.2,0.1-0.3c0,0,0-0.1,0-0.1c0,0,0-0.1,0-0.1l0,0v0c0,0,0-0.1,0-0.1c0,0,0-0.1,0-0.2v0c0,0,0-0.1,0.1-0.2
			c0,0,0-0.1,0-0.2c0-0.1,0.1-0.2,0.1-0.3c0,0,0-0.1,0-0.2c0,0,0-0.1,0-0.1s0-0.1,0-0.1c0-0.1,0.1-0.2,0.1-0.3c0-0.1,0-0.2,0.1-0.3
			c0,0,0,0,0,0c0-0.2,0.1-0.4,0.2-0.6c0-0.1,0-0.2,0.1-0.3c0,0,0,0,0,0c0-0.2,0.1-0.3,0.1-0.5c0,0,0-0.1,0-0.1c0,0,0-0.1,0-0.1
			c0-0.2,0.1-0.4,0.2-0.6c0-0.1,0-0.2,0.1-0.3c0.1-0.3,0.1-0.5,0.2-0.7c0-0.1,0.1-0.3,0.1-0.4c0.1-0.2,0.1-0.5,0.1-0.7
			c0-0.1,0-0.2,0-0.3v0c0-0.1,0-0.2,0-0.3c0-0.2,0.1-0.5,0.1-0.7c0,0,0-0.1,0-0.1c0-0.1,0-0.3,0-0.4c0,0,0-0.1,0-0.1
			c0,0,0-0.1,0-0.1c0-0.1,0-0.2,0-0.3l0-0.5c0,0,0-0.1,0-0.1l0,0c0,0,0-0.1,0-0.1c0,0,0,0,0-0.1v-0.1c0,0,0-0.1,0-0.2
			c0-0.1,0-0.1,0-0.2c0,0,0-0.1,0-0.1v-0.1c0-0.1,0-0.1,0-0.2v-0.1c0,0,0-0.1,0-0.1v-0.2v0c0,0,0-0.1,0-0.2v-0.2l0,0v-0.1
			c0-0.1,0-0.2,0-0.3v-0.9c0,0,0-0.1,0-0.2v-0.5c0,0,0-0.1,0-0.1v-0.1c0-0.1,0-0.2,0-0.3v-0.1c0,0,0,0,0,0l0,0v0v-0.1c0,0,0,0,0-0.1
			l0,0c0,0,0-0.1,0-0.2c0-0.1,0-0.1,0-0.2c0,0,0-0.1,0-0.2v0c0,0,0,0,0-0.1V115c0,0,0,0,0-0.1c0,0,0,0,0-0.1c0,0,0,0,0,0
			c0-0.1,0-0.2,0-0.2v-0.1c0-0.1,0-0.2,0-0.3v-0.1c0,0,0-0.1,0-0.1c0,0,0-0.1,0-0.1c0,0,0,0,0-0.1c0-0.1,0-0.2,0-0.2v0
			c0-0.1,0-0.2,0-0.3l0,0c0,0,0,0,0-0.1c0,0,0,0,0,0c0,0,0-0.1,0-0.2c0-0.1,0-0.2-0.1-0.3c0,0,0-0.1,0-0.1c0,0,0-0.1,0-0.1
			c0,0,0-0.1,0-0.1c0-0.1,0-0.2-0.1-0.3c0,0,0-0.1,0-0.2c0,0,0-0.1,0-0.1c0,0,0-0.1,0-0.2s0-0.1,0-0.1c0,0,0-0.1,0-0.1
			c0-0.1,0-0.2-0.1-0.3s0-0.2-0.1-0.3v0c0,0,0-0.1,0-0.1v0v0l0,0v0c0-0.2-0.1-0.3-0.1-0.5l0.1-0.3l0.5-0.9c4.2,9,3.3,20.5-2,30.6
			c-2.1,4-5,7.8-8.5,11.1c0,0,0,0,0,0c0,0,0,0,0,0c-1,0.9-2.1,1.8-3.2,2.6c-1.9,1.4-3.8,2.6-5.6,3.6c-9.3,4.9-19,4.9-27.5-0.2
			c0,0-0.1-0.1-0.2-0.1c0.1,0,0.2,0.1,0.2,0.2c0.3,0.2,0.5,0.3,0.7,0.5c0.1,0.1,0.2,0.1,0.3,0.2c0,0,0.1,0.1,0.2,0.1
			c0.1,0,0.2,0.1,0.3,0.2c0.4,0.3,0.8,0.5,1.2,0.7c0,0,0.1,0.1,0.2,0.1c0.4,0.3,0.9,0.6,1.5,0.8c0,0,0,0,0,0
			c0.4,0.2,0.8,0.4,1.2,0.6c0.7,0.4,1.4,0.7,2.3,1.1c0.5,0.2,1,0.4,1.6,0.7c0,0,0.1,0,0.1,0c0,0,0,0-0.1,0c-0.5-0.2-0.9-0.4-1.4-0.6
			c1.1,0.5,2.2,0.9,3.3,1.4c6.5,2,14,0.9,20.8-3.2c1.8-1.1,3.6-2.4,5.2-3.9c0.9-0.8,1.8-1.7,2.7-2.7c0,0,0,0-0.1,0c0,0,0,0,0.1,0
			c2.8-3,5.1-6.4,6.8-10.1c3-6.1,4.5-12.9,4.4-19.3c0-1.5-0.1-3.1-0.3-4.6c-0.6-4-1.8-7.7-3.7-11l0,0c0.1-0.2,0.2-0.4,0.3-0.6
			c0,0,0,0,0,0c0-0.1,0.1-0.2,0.2-0.3l0.4-0.7c0.7,1,1.4,2,2,3.1c1.7,3.1,2.9,6.5,3.6,10.1c0.1,0.6,0.2,1.2,0.3,1.9
			c0.6,4.1,0.7,8.4,0.1,12.7c-0.5,4.1-1.6,8.2-3.2,12c-1.2,2.9-2.7,5.8-4.6,8.3c-0.7,1-1.4,1.9-2.2,2.8c-1.3,1.5-2.7,2.8-4.1,3.9
			c-4.9,3.8-10.2,5.4-15.4,4.9c1,0.1,2,0.3,2.9,0.3h0c0.1,0,0.2,0,0.3,0c0.2,0,0.4,0,0.6,0.1c0.1,0,0.2,0,0.3,0c0.1,0,0.3,0,0.4,0
			c-0.2,0-0.3,0-0.4,0c0.5,0,1,0.1,1.6,0.1c0.6,0,1.3,0.1,1.8,0.1c0,0,0,0,0.1,0c0.1,0,0.2,0,0.3,0c0.1,0,0.2,0,0.2,0
			c0.1,0,0.2,0,0.3,0c0.2,0,0.3,0,0.5,0c0.1,0,0.3,0,0.4,0c0,0,0.1,0,0.2,0h0h0.4c0.3,0,0.7,0,1,0c3.8-0.3,7.6-2,11-5.2
			c1.2-1.1,2.3-2.3,3.3-3.8C81.6,156.5,82.2,155.6,82.8,154.6z"/>
		<path class="st1" d="M12.7,135.7C12.7,135.7,12.8,135.7,12.7,135.7c0,0,0,0,0-0.1C12.7,135.6,12.7,135.6,12.7,135.7z"/>
		<path class="st1" d="M163,37.2c0.4,0.5,0.7,1.1,1,1.6C163.7,38.3,163.4,37.8,163,37.2z"/>
		<path class="st1" d="M165.9,94.9c-2.8,2.8-6.8,5-11.9,6.3c0,0,0,0,0,0.1c0,0,0,0,0-0.1c-6.4,1.6-13.6,1.4-20.5-0.1
			c-5.3-1.2-10.5-3.2-15-6c-4.3-2.6-8.1-5.8-10.9-9.5c0,0,0,0,0,0c0,0,0,0,0,0c-0.3-0.4-0.6-0.8-0.8-1.2c-0.3,0.1-0.6,0.2-1.1,0.4
			c-0.2,0.1-0.4,0.2-0.6,0.3c0.5,0.9,1.1,1.7,1.7,2.6c0,0,0-0.1,0-0.1c0,0,0,0.1,0,0.1c1.4,1.8,3,3.6,4.8,5.2c2.9,2.6,6.2,5,9.8,7
			c9.5,5.3,20.9,8.1,30.5,6.7c0.1-0.3,0.2-0.5,0.3-0.8c-0.1,0.3-0.2,0.5-0.3,0.8c3-0.4,5.7-1.2,7.8-2.3c2.7-1.4,4.7-3.2,6-5.3
			c0,0,0.1-0.1,0.1-0.2c0.1-0.2,0.3-0.5,0.4-0.7c0-0.1,0.1-0.1,0.1-0.2c0.1-0.1,0.1-0.3,0.2-0.4v0c0.2-0.6,0.5-1.2,0.7-1.9
			c0-0.1,0.1-0.2,0.1-0.3c0.8-2,1.5-4.2,2.2-6.2c0,0,0,0,0-0.1v0C168.9,91.2,167.6,93.2,165.9,94.9z"/>
		<path class="st1" d="M40.4,141.8c3.8,0,7.7-0.6,11.4-1.7c2.5-0.7,5-1.7,7.4-2.9c11.6-5.9,17.9-16.1,17.3-26c0-0.3,0-0.6-0.1-0.9
			c0,0.2,0,0.5,0,0.9c0,0,0,0,0,0c-1.3,2.6-3.5,4.8-6.5,6.4c-2.2,1.2-4.9,2.1-8,2.6l0,0c-9.2,1.5-19.9-0.7-29.2-5.4
			c-4.4-2.2-8.4-4.9-11.8-8c-1.7-1.5-3.2-3.2-4.5-4.9C12,96,10.7,90.2,12.2,85.4c0-0.1,0-0.2,0.1-0.2v0v0c0.1-0.3,0.2-0.6,0.3-0.8
			c-0.1,0.2-0.2,0.4-0.3,0.6c-0.2,0.4-0.3,0.8-0.5,1.2c0,0,0,0,0,0.1c0,0,0,0,0,0.1c-0.1,0.4-0.3,0.7-0.4,1.1
			c-0.1,0.3-0.2,0.6-0.3,1c-0.1,0.3-0.2,0.6-0.3,0.8c-0.5,1.3-1,3-1.3,4.4c0,0.1-0.1,0.3-0.1,0.4c0,0,0,0.1,0,0.1l0,0l0,0l0,0
			c0,0,0,0,0,0c-2.1,10.4,5.1,20.4,16.2,26.5c4.6,2.5,9.8,4.4,15.3,5.4c6.2,1.1,12.8,1.1,19.2-0.4l0,0c6.9-1.9,10.9-5.1,13.2-8
			c2-2.6,2.8-4.9,3.2-6.1c-0.1,2.6-0.8,6.3-3.3,10.1c-2.5,3.8-6.8,7.8-14.2,11.1l0,0c-3.5,1.3-7,2.2-10.4,2.6
			c-4.8,0.6-9.5,0.5-14-0.3c-14.7-2.6-26.5-12.3-27.3-25.4c0-0.2,0-0.5,0-0.7v0.3c0,0.1,0,0.1,0,0.2v0.1c0,0.2,0,0.4,0,0.6l0,0.6
			c0,0.1,0,0.2,0,0.2c0,0.3,0,0.6,0,0.9c0,0.5,0,0.9,0,1.4c0,0.1,0,0.3,0,0.4c0,0.2,0,0.3,0,0.5c0,0,0,0,0,0v0.2c0,0.1,0,0.2,0,0.3
			v0.1c0,0.2,0,0.3,0,0.5c0,0.2,0,0.4,0,0.6c0,0,0,0,0,0c0,0.1,0,0.2,0,0.3c0,0.1,0,0.3,0,0.4c0,0.1,0,0.3,0,0.4c0,0.1,0,0.3,0,0.4
			c0,0,0,0,0,0.1c0,0.2,0,0.3,0,0.5c0,0.1,0,0.3,0,0.4v0l0,0c0,0.1,0,0.2,0,0.3c0,0,0,0.1,0,0.2v0l0,0.4c0,0,0,0,0,0c0,0,0,0,0,0
			c0.5,3.5,2,7,4.3,10.2C18.1,137.7,29,142,40.4,141.8z"/>
		<path class="st1" d="M117.7,13.7c0.1,0,0.2,0,0.3,0c2.6,0.3,5.1,1.3,7.4,2.9c2,1.4,4,3.2,5.8,5.6c0.2,0.3,0.4,0.6,0.6,0.9
			c1.2,1.6,2.1,3.4,3,5.2c2.3,5,3.6,10.8,3.8,16.8c0.1,2.4,0,4.8-0.2,7.2c-0.3,3.7-1.1,7.3-2.3,10.7c-1,2.9-2.2,5.5-3.7,8
			c-0.6,1-1.2,1.9-1.9,2.8c-1,1.3-2.1,2.5-3.2,3.6c-4,3.7-8.5,5.5-13,5.4l0,0c0,0-0.1,0-0.2,0l0.2,0h-0.2c0.1,0,0.2,0,0.3,0
			c5.6,1,11.7-0.6,17.1-4.8c1.4-1.1,2.7-2.3,4-3.7c0.8-0.9,1.5-1.8,2.3-2.8l0,0l0,0c2-2.7,3.7-5.7,5-8.8c1.7-4,2.8-8.3,3.3-12.6
			c1-8.1-0.2-16.3-3.6-22.9c-0.8-1.5-1.7-2.9-2.6-4.3c-1.4-1.8-2.9-3.3-4.4-4.6c-2.5-1.9-5.2-3.2-8.1-3.8c0,0-0.1,0-0.2,0l-0.9-0.1
			c-0.7-0.1-1.4-0.3-2-0.3c-0.3,0-0.7-0.1-1-0.1c-0.2,0-0.3,0-0.5,0c-0.9-0.1-1.9-0.2-2.8-0.3c-0.2,0-0.3,0-0.5,0
			c-0.3,0-0.5,0-0.8,0c0,0-0.1,0-0.2,0h-0.2c-0.2,0-0.5,0-0.7,0c-0.2,0-0.4,0-0.6,0c-0.3,0-0.7,0-1.1,0c0.3,0,0.6,0,1,0
			C117.1,13.7,117.5,13.7,117.7,13.7z"/>
	</g>
</g>
</svg>
