<?xml version="1.0" encoding="utf-8"?>
<!-- Generator: Adobe Illustrator 19.1.1, SVG Export Plug-In . SVG Version: 6.00 Build 0)  -->
<svg version="1.1" id="Layer_1" xmlns="http://www.w3.org/2000/svg" xmlns:xlink="http://www.w3.org/1999/xlink" x="0px" y="0px"
	 viewBox="0 0 16 16" style="enable-background:new 0 0 16 16;" xml:space="preserve">
<style type="text/css">
	.st0{opacity:0.1;}
	.st1{fill:#1BDBC4;}
</style>
<g>
	<g class="st0">
		<path class="st1" d="M4.6,3.3L4.6,3.3L4.6,3.3C4.6,3.3,4.6,3.3,4.6,3.3z"/>
		<path class="st1" d="M13.3,11.2C13.3,11.2,13.3,11.2,13.3,11.2C13.3,11.2,13.3,11.2,13.3,11.2C13.3,11.2,13.3,11.2,13.3,11.2z"/>
		<path class="st1" d="M1.2,11.9C1.2,11.9,1.2,12,1.2,11.9C1.2,12,1.2,12,1.2,11.9C1.2,12,1.2,11.9,1.2,11.9
			C1.2,11.9,1.2,11.9,1.2,11.9z"/>
		<path class="st1" d="M6.9,9.7C6.9,9.8,6.9,9.8,6.9,9.7C6.9,9.8,6.9,9.8,6.9,9.7L6.9,9.7z"/>
		<path class="st1" d="M1.3,12.1C1.3,12.1,1.3,12.1,1.3,12.1C1.3,12.1,1.3,12.1,1.3,12.1C1.3,12.1,1.3,12.1,1.3,12.1z"/>
		<path class="st1" d="M14.6,3.3c0,0,0.1,0.1,0.1,0.1C14.6,3.4,14.6,3.4,14.6,3.3z"/>
	</g>
	<g>
		<path class="st1" d="M14.4,9.5C14.4,9.5,14.4,9.5,14.4,9.5L14.4,9.5c-0.1,0.1-0.1,0.2-0.2,0.2c-0.1,0.1-0.3,0.2-0.5,0.2
			c-0.1,0-0.3,0-0.4,0c-1,0-2.3-0.6-3.2-1.3C9.8,8.4,9.6,8.2,9.4,8c0,0,0,0,0,0C9.3,7.9,9.2,7.7,9.2,7.6l0,0c0,0,0.1,0,0.1,0
			c0,0,0,0,0,0c0.1,0,0.2-0.2,0.3-0.3c0,0,0-0.1,0-0.1c0,0,0,0,0,0c0,0,0-0.1,0-0.1c0-0.1,0-0.1,0-0.2c0-0.2,0-0.4,0-0.6
			c0-0.2-0.1-0.5-0.1-0.8c0-0.2-0.1-0.3-0.1-0.5C9.2,4.2,8.9,3.6,8.5,3C8.5,2.9,8.4,2.8,8.3,2.7c0,0,0-0.1-0.1-0.1
			C8.1,2.4,8,2.2,7.8,2.1C7.6,2,7.4,1.9,7.3,1.8c-0.1,0-0.1,0-0.2,0h0c0,0-0.1,0-0.1,0c0,0,0,0,0,0c0,0,0,0,0,0l0,0
			C6.9,1.9,6.9,1.9,6.8,2l0,0l0,0h0C6.6,2.1,6.4,2.1,6.3,2.2c0,0,0,0,0.1,0c0,0,0.1,0,0.1,0c0.1,0,0.3,0.2,0.5,0.4
			c0.1,0.1,0.3,0.3,0.4,0.5c0,0,0,0,0,0c0.1,0.1,0.2,0.3,0.3,0.4C8,4,8.3,4.6,8.6,5.1c0.1,0.2,0.1,0.3,0.2,0.5C8.9,5.9,9,6.1,9,6.4
			C9.1,6.6,9.1,6.8,9.2,7c0,0.1,0,0.1,0,0.2c0,0.1,0,0.2,0,0.2c0,0.2-0.1,0.2-0.2,0.3c0,0,0,0,0,0c0,0,0,0,0,0
			C9.1,7.9,9.2,8,9.3,8.2l0,0l0,0l0,0l0,0c0,0,0,0,0,0.1c0.9,1.1,2.4,2.1,3.6,2.3c0.1,0,0.2,0,0.3,0c0.2,0,0.3,0,0.4-0.1
			c0.1,0,0.1-0.1,0.2-0.1c0,0,0,0,0,0l0,0l0-0.1l0,0c0,0,0,0,0,0c0,0,0,0,0,0c0,0,0.1-0.1,0.1-0.2c0-0.1,0.1-0.1,0.1-0.2l0-0.1
			c0,0,0,0,0,0c0,0,0,0,0,0L14.4,9.5C14.3,9.5,14.4,9.5,14.4,9.5C14.4,9.5,14.4,9.5,14.4,9.5C14.4,9.4,14.4,9.4,14.4,9.5
			C14.4,9.4,14.4,9.4,14.4,9.5C14.4,9.4,14.4,9.5,14.4,9.5l0.1-0.1l0,0C14.4,9.4,14.4,9.5,14.4,9.5C14.4,9.5,14.4,9.5,14.4,9.5z"/>
		<path class="st1" d="M4.5,3.3L4.5,3.3L4.5,3.3L4.5,3.3z"/>
		<path class="st1" d="M13.1,11.2c0,0-0.1,0.1-0.2,0.1c-0.1,0-0.2,0-0.3,0c-0.1,0-0.1,0-0.2-0.1c-0.4-0.2-1-0.5-1.5-0.9
			C10.6,10,10.3,9.7,10,9.5c-0.3-0.3-0.7-0.7-0.9-1C8.9,8.2,8.8,8.1,8.7,7.9c0,0,0,0,0-0.1c0,0,0,0,0,0c0,0-0.1,0-0.1,0.1l0,0
			c0,0,0,0-0.1,0c0,0,0,0,0,0c0,0,0,0,0-0.1c0,0,0-0.1,0-0.1c0-0.1,0-0.1-0.1-0.2c0-0.1,0-0.1-0.1-0.2C8.3,7.2,8.2,7.1,8.1,6.9
			C8,6.6,7.8,6.3,7.6,5.9C7.3,5.3,6.8,4.7,6.5,4.2C6.4,4,6.3,3.9,6.2,3.8C6.1,3.6,6,3.5,5.9,3.4C5.7,3.2,5.5,3,5.4,2.9
			c0,0-0.1-0.1-0.1-0.1c0,0,0,0-0.1,0h0c0,0,0,0,0,0l0,0c0,0,0,0,0,0C5.1,2.9,5,2.9,5,3c0,0,0,0,0,0l0,0C4.9,3,4.8,3.1,4.7,3.1
			c0,0,0,0,0,0c0,0,0,0,0,0c0,0,0,0,0,0c0,0-0.1,0-0.1,0.1c0,0,0,0,0,0c0,0,0,0,0,0c0,0,0,0,0,0c0,0,0,0,0,0c0,0,0,0,0,0
			c0,0,0,0,0,0l0,0c0,0,0,0,0.1,0.1c0,0,0.1,0.1,0.1,0.1C4.8,3.6,5,3.9,5.2,4.2c0,0.1,0.1,0.1,0.1,0.2C5.5,4.6,5.8,5,6,5.3
			C6.2,5.5,6.4,5.7,6.5,6c0.3,0.5,0.7,0.9,0.9,1.3c0.1,0.2,0.3,0.4,0.4,0.5c0,0.1,0.1,0.1,0.1,0.1C8,8,8.1,8,8.1,8.1
			c0.1,0.1,0.1,0.1,0.1,0.1c0,0-0.1,0.1-0.2,0.1c0,0,0,0,0,0c0,0,0,0,0,0l0,0l0,0c0.1,0.1,0.1,0.1,0.2,0.2c0.1,0.1,0.2,0.2,0.3,0.4
			l0,0c0.1,0.1,0.2,0.3,0.3,0.4c0.4,0.5,0.8,1.1,1.1,1.7c0.2,0.3,0.4,0.6,0.5,0.9c0.1,0.2,0.2,0.4,0.3,0.6c0,0,0,0,0,0c0,0,0,0,0,0
			c0,0.1,0.1,0.1,0.1,0.2c0,0.1,0.1,0.2,0.1,0.2c0,0.1,0,0.1,0,0.2c0,0,0,0,0,0c0,0,0,0,0.1,0l0,0l0,0c0.2-0.1,0.3-0.2,0.5-0.4
			c0,0,0.1,0,0.1-0.1c0,0,0,0,0,0c0,0,0,0-0.1-0.1c0,0-0.1-0.1-0.2-0.2c0,0-0.1-0.1-0.1-0.1c0,0,0,0,0,0c0,0,0,0,0,0
			c-0.1-0.2-0.3-0.4-0.5-0.6c-0.4-0.5-0.8-1-1.2-1.6c0,0,0,0,0,0C9.2,9.6,8.9,9.2,8.6,8.8l0,0c0,0-0.1-0.1-0.1-0.1
			C8.4,8.5,8.3,8.3,8.2,8.2c0,0,0,0,0.1-0.1l0.1-0.1l0,0c0,0,0,0,0,0l0,0c0,0,0,0,0,0c0,0,0,0,0,0c0,0,0,0,0.1,0
			c0.1,0.2,0.2,0.4,0.4,0.6C9,8.7,9.1,8.8,9.2,9c0.6,0.7,1.3,1.5,1.9,2c0.3,0.2,0.6,0.5,0.8,0.6c0.1,0,0.1,0.1,0.2,0.1
			c0.1,0.1,0.2,0.1,0.3,0.1c0.1,0,0.1,0,0.2,0c0,0,0,0,0,0c0,0,0,0,0,0l0,0l0,0l0.1-0.1l0,0l0,0c0,0,0,0,0,0
			c0.1-0.1,0.1-0.1,0.2-0.2c0,0,0,0,0,0c0,0,0.1-0.1,0.1-0.1l0,0c0,0,0,0,0,0l0,0C13,11.3,13,11.3,13.1,11.2
			C13.1,11.2,13.1,11.2,13.1,11.2C13.1,11.2,13.1,11.2,13.1,11.2C13.1,11.2,13.1,11.2,13.1,11.2C13.1,11.2,13.1,11.2,13.1,11.2
			C13.1,11.2,13.1,11.2,13.1,11.2C13.1,11.2,13.1,11.2,13.1,11.2C13.1,11.2,13.1,11.2,13.1,11.2z"/>
		<path class="st1" d="M13.2,11.2C13.2,11.2,13.2,11.2,13.2,11.2C13.1,11.2,13.1,11.2,13.2,11.2C13.1,11.2,13.1,11.2,13.2,11.2z"/>
		<path class="st1" d="M1.1,11.9C1.1,11.9,1.1,11.9,1.1,11.9C1.1,12,1.1,12,1.1,11.9C1.1,11.9,1.1,11.9,1.1,11.9
			C1.1,11.9,1.1,11.9,1.1,11.9z"/>
		<path class="st1" d="M6.8,9.7C6.8,9.7,6.8,9.8,6.8,9.7C6.8,9.8,6.8,9.7,6.8,9.7L6.8,9.7z"/>
		<path class="st1" d="M15.3,5.8C15.3,5.8,15.3,5.8,15.3,5.8L15.3,5.8C15.3,5.8,15.3,5.8,15.3,5.8c0-0.1,0-0.1,0-0.1
			c0,0,0-0.1,0-0.1v0v0c0,0,0,0,0,0.1C15.3,5.7,15.3,5.8,15.3,5.8c0,0,0-0.1,0-0.2c0,0.7-0.2,1.6-1.5,2.3c0,0,0,0,0,0.1
			c0,0,0,0,0-0.1c-0.2,0.1-0.4,0.2-0.7,0.2c-0.3,0.1-0.7,0.1-1,0.1c-0.9,0-1.8-0.3-2.3-0.9c0,0,0,0,0.1,0l0,0l0,0l0,0c0,0,0,0,0,0
			c0.6,0.5,1.6,0.7,2.5,0.5c0.3-0.1,0.5-0.1,0.8-0.3c0.1-0.1,0.3-0.1,0.4-0.2c1.2-0.8,1.8-2.1,1.3-3.2c0-0.1-0.1-0.2-0.1-0.2
			c0,0,0,0,0,0c0-0.1-0.1-0.1-0.1-0.2c0-0.1-0.1-0.1-0.1-0.2c0,0,0,0,0-0.1c0,0-0.1-0.1-0.1-0.1c0.2,0.3,0.3,0.7,0.3,1.1
			c0,0.3,0,0.6-0.1,0.9c-0.2,0.6-0.6,1.2-1.2,1.7c-0.1,0.1-0.2,0.2-0.4,0.2c-0.2,0.1-0.4,0.2-0.7,0.3c-0.9,0.3-1.8,0.2-2.5-0.3h0
			c0,0,0.1,0,0.1,0c0.6,0.3,1.5,0.3,2.2-0.1c0.2-0.1,0.4-0.2,0.6-0.3c0.1-0.1,0.2-0.2,0.3-0.2c0.3-0.3,0.6-0.7,0.8-1
			c0.5-0.9,0.5-2,0.1-2.8c-0.1-0.1-0.1-0.2-0.2-0.3c-0.1-0.2-0.3-0.3-0.4-0.4C13.3,2.2,13.1,2.1,13,2l0,0c0,0,0,0,0,0
			c0,0-0.1-0.1-0.1-0.1c0,0,0,0-0.1,0c0,0,0,0,0,0c0,0-0.1,0-0.1,0l0,0c0,0,0,0,0,0c0,0,0,0,0,0c0,0,0,0,0,0c0,0,0,0,0,0
			c0,0,0,0,0,0c0,0,0,0,0,0c0,0,0,0,0,0c0,0,0,0,0,0h0c0,0,0,0-0.1,0l0,0c0,0,0.1,0,0.1,0.1c0,0,0,0,0.1,0l0,0
			c0.2,0.1,0.4,0.3,0.5,0.4c0,0,0.1,0.1,0.1,0.1C14,3.2,14,4.6,13.4,5.7C13.3,6,13,6.3,12.8,6.5l0,0l0,0c-0.1,0.1-0.2,0.2-0.3,0.2
			c-0.2,0.1-0.3,0.2-0.5,0.3c-0.7,0.4-1.4,0.5-2,0.2c0.2-0.1,0.4-0.2,0.6-0.4c0.1-0.1,0.1-0.2,0.2-0.3C11,6.5,11,6.5,11,6.4
			c0,0,0,0,0,0c0,0,0,0,0,0c0.1-0.2,0.1-0.4,0.2-0.6c0-0.3,0.1-0.5,0.1-0.8c0-0.2,0-0.4,0-0.5c-0.1-0.7-0.3-1.4-0.6-2
			c-0.1-0.1-0.1-0.2-0.2-0.3c0,0-0.1-0.1-0.1-0.1c-0.2-0.2-0.3-0.3-0.5-0.4C9.7,1.4,9.5,1.3,9.3,1.3c-0.1,0-0.1,0-0.2,0c0,0,0,0,0,0
			L8.7,1.4l0,0c0,0,0,0,0,0c0,0,0,0,0,0c-0.1,0-0.3,0.1-0.4,0.1c0.1,0,0.1,0,0.2,0c0.2,0,0.4,0.1,0.6,0.2c0.1,0.1,0.3,0.2,0.4,0.4
			c0,0,0.1,0.1,0.1,0.1c0.1,0.1,0.1,0.1,0.2,0.2c0.4,0.6,0.7,1.4,0.8,2.1c0,0.2,0.1,0.3,0.1,0.5c0,0.3,0,0.5,0,0.8
			c0,0.2,0,0.4-0.1,0.6l0,0c0,0.1,0,0.2-0.1,0.2c0,0.1-0.1,0.2-0.1,0.3c-0.1,0.2-0.3,0.4-0.5,0.4h0c0,0,0,0,0,0c0,0,0,0-0.1,0h0
			c0.4,0.5,1.1,0.9,1.9,1.1c0.4,0.1,0.8,0.1,1.2,0.1c0.3,0,0.7-0.1,1-0.2c0.9-0.4,1.4-1,1.5-1.8c0,0,0,0,0,0c0,0,0,0,0,0
			c0,0,0-0.1,0-0.1c0,0,0,0,0,0v0c0-0.1,0-0.1,0-0.2c0,0.1,0,0.1,0,0.2c0,0,0,0,0,0c0-0.1,0-0.1,0-0.2C15.3,6.1,15.3,5.9,15.3,5.8z"
			/>
		<path class="st1" d="M10,13c0-0.2-0.1-0.4-0.1-0.6c-0.1-0.3-0.2-0.5-0.3-0.8c-0.1-0.2-0.2-0.4-0.3-0.6c-0.2-0.4-0.5-0.9-0.7-1.3
			C8.5,9.5,8.4,9.4,8.3,9.2c0,0-0.1-0.1-0.1-0.1C8,8.9,7.9,8.8,7.8,8.6l0,0l0,0c0,0-0.1,0-0.2,0c-0.1,0-0.1-0.1-0.2-0.1
			c0,0-0.1-0.1-0.2-0.1l0,0C7,8.2,6.8,8,6.5,7.8c-0.7-0.6-1.4-1.4-2-2.2C4.4,5.5,4.3,5.4,4.2,5.3C4,5,3.8,4.7,3.7,4.5
			c0-0.1-0.1-0.2-0.1-0.2c0-0.1,0-0.2,0-0.2c0,0,0,0,0,0c0,0,0,0,0,0c0,0,0,0,0,0L3.5,4.2L3.4,4.3c0,0,0,0,0,0c0,0,0,0,0,0
			c0,0-0.1,0.1-0.1,0.1C3.2,4.5,3.1,4.6,3,4.6c0,0,0,0,0,0c0,0,0,0,0,0c0,0,0,0,0,0c0,0,0,0,0,0C2.9,4.8,2.9,4.9,3,5.1
			C3,5.2,3,5.3,3.1,5.5C3.2,5.6,3.3,5.8,3.5,6c0.2,0.3,0.5,0.6,0.7,0.8C4.6,7.3,5,7.7,5.5,8c0.5,0.4,0.9,0.7,1.3,0.8l0,0
			c0.1,0,0.1,0.1,0.2,0.1c0.1,0,0.2,0,0.2,0.1c0.1,0,0.2,0,0.3-0.1l0,0c0,0,0,0,0,0c0,0,0,0,0,0l0,0l0,0C7.7,8.9,7.8,9,7.9,9.2
			c0,0,0,0,0,0.1c0.1,0.1,0.2,0.2,0.2,0.4c0.4,0.6,0.7,1.2,0.9,1.9c0.1,0.2,0.1,0.3,0.1,0.5c0.1,0.3,0.1,0.5,0.2,0.8
			c0,0.2,0,0.4,0,0.6c0,0.1,0,0.1,0,0.2c0,0.1,0,0.2-0.1,0.3c0,0.2-0.1,0.3-0.2,0.3c0,0,0,0,0,0c0,0,0,0-0.1,0c0,0,0,0,0,0L9.3,14
			l0,0l0,0c0.2-0.1,0.4-0.2,0.5-0.3c0,0,0.1,0,0.1,0c0,0,0,0,0,0c0.1,0,0.1-0.1,0.1-0.2c0-0.1,0-0.2,0-0.2C10,13.1,10,13.1,10,13z"
			/>
		<path class="st1" d="M8.6,11.6c-0.1-0.7-0.4-1.5-0.8-2.1C7.8,9.5,7.7,9.4,7.7,9.3c0,0,0,0,0,0c0,0,0,0,0,0c0,0,0,0,0,0
			c0,0-0.1-0.1-0.1-0.1C7.5,9.1,7.4,9,7.4,9c0,0,0,0,0,0l0,0l0,0l0,0c0,0,0,0,0,0c0,0,0,0,0,0l0,0l0,0l0,0c0,0,0,0.1-0.1,0.1
			c0,0,0.1,0.1,0.1,0.1c0,0,0.1,0.1,0.1,0.1c0,0,0,0,0,0c0,0,0,0,0,0c0,0,0,0,0,0c0.1,0.1,0.1,0.2,0.2,0.3C8,10.2,8.2,11,8.3,11.7
			c0,0.2,0,0.3,0,0.5c0,0.3,0,0.6-0.1,0.8c0,0.2-0.1,0.4-0.2,0.6c0,0,0,0,0,0c0,0,0,0,0,0c0,0.1-0.1,0.2-0.1,0.2
			C8,14,7.9,14.1,7.8,14.2c-0.2,0.2-0.4,0.4-0.6,0.4l0,0c0,0-0.1,0-0.1,0c0,0,0,0,0.1,0l0,0h0l0.2,0c0,0,0,0,0,0c0,0,0,0,0,0
			c0,0,0,0,0,0c0,0,0,0,0.1,0c0.1,0,0.1,0,0.2,0c0.1,0,0.1,0,0.2-0.1c0,0,0,0,0,0c0,0,0.1,0,0.1,0c0,0,0,0,0,0c0,0,0.1,0,0.1,0
			c0,0,0,0,0,0h0c0.2-0.1,0.3-0.2,0.4-0.4c0.1-0.1,0.1-0.2,0.1-0.3c0-0.1,0-0.1,0.1-0.2c0,0,0,0,0,0c0,0,0,0,0,0
			c0-0.2,0.1-0.4,0.1-0.6c0-0.3,0-0.5,0-0.8C8.7,12,8.7,11.8,8.6,11.6z"/>
		<path class="st1" d="M7.4,13.7c0.1-0.2,0.2-0.4,0.3-0.7c0.1-0.3,0.2-0.6,0.2-1c0-0.2,0-0.5,0-0.7c0-0.5-0.2-1-0.4-1.4
			C7.4,9.8,7.3,9.6,7.3,9.5c0,0,0-0.1-0.1-0.1c0,0,0-0.1-0.1-0.1c0,0,0,0,0,0l0,0C7.1,9.3,7,9.4,6.9,9.4c-0.1,0-0.1,0-0.2,0
			c0,0,0,0,0,0c-0.1,0-0.1,0-0.2,0c-0.1,0-0.2,0-0.3,0C5,9.3,3.4,8.2,2.6,7.1C2.6,7,2.5,7,2.5,7C2.4,6.8,2.3,6.6,2.2,6.4
			c-0.1-0.3-0.1-0.6,0-0.8c0,0,0,0,0,0L2,5.8l0,0l0,0c0,0,0,0,0,0c0,0,0,0.1-0.1,0.1c0,0-0.1,0.1-0.1,0.2c0,0.1-0.1,0.1-0.1,0.2
			c0,0,0,0,0,0l0,0c0,0,0,0,0,0s0,0,0,0s0,0,0,0c0,0,0,0,0,0l0,0c0,0,0,0,0,0C1.5,6.7,1.6,7.1,1.8,7.6C1.9,7.7,2,7.8,2,7.9
			C2.1,8,2.3,8.1,2.4,8.3C3.3,9.2,4.7,9.9,5.9,10c0.2,0,0.3,0,0.4,0c0.2,0,0.4-0.1,0.5-0.2l0,0c0.3,1-0.2,2.2-1.4,3l0,0
			c-0.1,0.1-0.3,0.2-0.4,0.2c-0.2,0.1-0.5,0.2-0.7,0.3c-1.1,0.3-2.3,0-2.9-0.9c-0.1-0.1-0.1-0.2-0.2-0.3c0,0,0,0.1,0.1,0.1
			c0.1,0.1,0.1,0.2,0.1,0.3c0.1,0.1,0.1,0.2,0.2,0.4c0,0,0,0,0,0c0,0,0,0,0,0c0,0,0,0.1,0.1,0.1c0,0,0,0,0,0.1
			c0.7,0.8,1.8,0.9,2.9,0.6c0.2-0.1,0.4-0.2,0.6-0.3c0.1-0.1,0.2-0.1,0.3-0.2c0,0,0,0,0,0c0.1,0,0.1-0.1,0.2-0.1l0.1-0.1
			c0,0,0,0,0,0c0,0,0,0,0.1-0.1c0,0,0,0,0,0c0,0,0,0,0,0l0,0c0,0,0,0,0,0c0,0,0,0,0,0c0,0,0,0,0,0c0,0,0,0,0,0c0,0,0,0,0,0
			c0,0,0,0,0,0c0,0,0,0,0,0c0,0,0,0,0,0c0,0,0,0,0,0c0,0,0,0,0,0c0,0,0,0,0,0c0,0,0,0,0,0c0,0,0,0,0,0c0,0,0,0,0,0c0,0,0,0,0,0
			c0,0,0,0,0,0c0,0,0,0,0,0c0,0,0,0,0,0c0,0,0,0,0,0c0,0,0,0,0,0c0,0,0,0,0,0c0,0,0,0,0,0c0,0,0,0,0,0c0,0,0,0,0,0c0,0,0,0,0,0l0,0
			c0,0,0,0,0,0c0,0,0,0,0,0c0,0,0,0,0,0c0,0,0,0,0,0s0,0,0,0c0,0,0,0,0,0c0,0,0,0,0,0c0,0,0,0,0,0c0,0,0,0,0,0l0,0c0,0,0,0,0,0
			c0,0,0,0,0,0c0,0,0,0,0,0c0,0,0,0,0,0c0,0,0,0,0,0c0,0,0,0,0,0c0,0,0,0,0,0c0,0,0,0,0,0c0,0,0,0,0,0c0,0,0,0,0,0c0,0,0,0,0,0
			c0,0,0,0,0,0c0,0,0,0,0,0c0,0,0,0,0,0c0,0,0,0,0,0s0,0,0,0c0,0,0,0,0,0c0,0,0,0,0,0c0,0,0,0,0,0c0,0,0,0,0,0c0,0,0,0,0,0v0
			c0,0,0,0,0,0c0,0,0,0,0,0c0,0,0,0,0,0c0,0,0,0,0,0c0,0,0,0,0,0c0,0,0,0,0,0l0,0v0c0,0,0,0,0,0c0,0,0,0,0,0v0c0,0,0,0,0,0
			c0,0,0,0,0,0c0,0,0,0,0,0c0,0,0,0,0,0c0,0,0,0,0,0c0,0,0,0,0,0c0,0,0,0,0,0c0,0,0,0,0,0c0,0,0,0,0,0c0,0,0,0,0,0c0,0,0,0,0,0
			c0,0,0,0,0,0c0,0,0,0,0,0c0,0,0,0,0,0c0,0,0,0,0,0c0,0,0,0,0-0.1c0,0,0,0,0,0c0,0,0,0,0-0.1c0,0,0,0,0,0c0,0,0,0,0-0.1
			c0,0,0,0,0,0v0c0,0,0,0,0,0c0,0,0,0,0-0.1c0,0,0,0,0,0c0,0,0,0,0,0c0,0,0,0,0,0c0,0,0,0,0,0c0,0,0,0,0,0l0,0c0,0,0,0,0,0l0,0
			c0,0,0,0,0,0c0,0,0,0,0,0v0c0,0,0,0,0,0c0,0,0,0,0,0c0,0,0,0,0,0v0c0,0,0,0,0,0v0c0,0,0,0,0,0v0v0c0,0,0,0,0,0v0l0,0v0
			c0,0,0,0,0,0v-0.1c0,0,0,0,0,0v0c0,0,0,0,0,0v0c0,0,0,0,0,0v0c0,0,0,0,0,0l0,0v0v0c0,0,0,0,0,0l0,0c0,0,0,0,0,0c0,0,0,0,0,0
			c0,0,0,0,0,0v0c0,0,0,0,0,0v0c0,0,0,0,0,0s0,0,0,0c0,0,0,0,0,0c0,0,0,0,0,0v0c0,0,0,0,0,0v0c0,0,0,0,0,0c0,0,0,0,0,0c0,0,0,0,0,0
			c0,0,0,0,0,0v0c0,0,0,0,0,0l0,0c0,0,0,0,0,0c0,0,0,0,0,0s0,0,0,0c0,0,0,0,0,0c0,0,0,0,0,0c0,0,0,0,0,0c0,0,0,0,0,0c0,0,0,0,0,0
			c0,0,0,0,0,0c0,0,0,0,0,0c0,0,0,0,0,0s0,0,0,0c0,0,0,0,0,0c0,0,0,0,0,0c0,0,0,0,0,0v0c0,0,0,0,0,0v0v0l0,0v0c0,0,0,0,0,0l0,0
			l0-0.1c0.4,0.8,0.3,1.8-0.2,2.7c-0.2,0.4-0.4,0.7-0.8,1c0,0,0,0,0,0c0,0,0,0,0,0c-0.1,0.1-0.2,0.2-0.3,0.2
			c-0.2,0.1-0.3,0.2-0.5,0.3c-0.8,0.4-1.7,0.4-2.4,0c0,0,0,0,0,0c0,0,0,0,0,0c0,0,0,0,0.1,0c0,0,0,0,0,0c0,0,0,0,0,0c0,0,0,0,0,0
			c0,0,0.1,0,0.1,0.1c0,0,0,0,0,0c0,0,0.1,0,0.1,0.1c0,0,0,0,0,0c0,0,0.1,0,0.1,0.1c0.1,0,0.1,0.1,0.2,0.1c0,0,0.1,0,0.1,0.1
			c0,0,0,0,0,0c0,0,0,0,0,0c0,0-0.1,0-0.1-0.1c0.1,0,0.2,0.1,0.3,0.1c0.6,0.2,1.2,0.1,1.8-0.3C5.7,14,5.9,13.9,6,13.8
			c0.1-0.1,0.2-0.2,0.2-0.2c0,0,0,0,0,0c0,0,0,0,0,0c0.2-0.3,0.4-0.6,0.6-0.9c0.3-0.5,0.4-1.1,0.4-1.7c0-0.1,0-0.3,0-0.4
			c0-0.4-0.2-0.7-0.3-1l0,0c0,0,0,0,0-0.1c0,0,0,0,0,0c0,0,0,0,0,0l0-0.1c0.1,0.1,0.1,0.2,0.2,0.3c0.2,0.3,0.3,0.6,0.3,0.9
			c0,0.1,0,0.1,0,0.2c0.1,0.4,0.1,0.7,0,1.1c0,0.4-0.1,0.7-0.3,1.1c-0.1,0.3-0.2,0.5-0.4,0.7c-0.1,0.1-0.1,0.2-0.2,0.2
			c-0.1,0.1-0.2,0.2-0.4,0.3c-0.4,0.3-0.9,0.5-1.4,0.4c0.1,0,0.2,0,0.3,0h0c0,0,0,0,0,0c0,0,0,0,0.1,0c0,0,0,0,0,0c0,0,0,0,0,0
			c0,0,0,0,0,0c0,0,0.1,0,0.1,0c0.1,0,0.1,0,0.2,0c0,0,0,0,0,0c0,0,0,0,0,0c0,0,0,0,0,0c0,0,0,0,0,0c0,0,0,0,0,0c0,0,0,0,0,0
			c0,0,0,0,0,0h0h0c0,0,0.1,0,0.1,0c0.3,0,0.7-0.2,1-0.5C7,14.2,7.1,14.1,7.2,14C7.3,13.9,7.3,13.8,7.4,13.7z"/>
		<path class="st1" d="M1.2,12C1.2,12,1.2,12,1.2,12C1.2,12,1.2,12,1.2,12C1.2,12,1.2,12,1.2,12z"/>
		<path class="st1" d="M14.5,3.3c0,0,0.1,0.1,0.1,0.1C14.5,3.4,14.5,3.4,14.5,3.3z"/>
		<path class="st1" d="M14.7,8.4c-0.2,0.2-0.6,0.4-1.1,0.6c0,0,0,0,0,0c0,0,0,0,0,0c-0.6,0.1-1.2,0.1-1.8,0
			c-0.5-0.1-0.9-0.3-1.3-0.5c-0.4-0.2-0.7-0.5-1-0.8c0,0,0,0,0,0c0,0,0,0,0,0c0,0,0-0.1-0.1-0.1c0,0-0.1,0-0.1,0c0,0,0,0-0.1,0
			c0,0.1,0.1,0.2,0.2,0.2c0,0,0,0,0,0c0,0,0,0,0,0C9.6,8,9.8,8.1,9.9,8.3c0.3,0.2,0.6,0.4,0.9,0.6c0.8,0.5,1.9,0.7,2.7,0.6
			c0,0,0,0,0-0.1c0,0,0,0,0,0.1c0.3,0,0.5-0.1,0.7-0.2c0.2-0.1,0.4-0.3,0.5-0.5c0,0,0,0,0,0c0,0,0,0,0-0.1c0,0,0,0,0,0c0,0,0,0,0,0
			v0c0-0.1,0-0.1,0.1-0.2c0,0,0,0,0,0c0.1-0.2,0.1-0.4,0.2-0.5c0,0,0,0,0,0v0C15,8.1,14.9,8.3,14.7,8.4z"/>
		<path class="st1" d="M3.6,12.6c0.3,0,0.7-0.1,1-0.2c0.2-0.1,0.4-0.2,0.7-0.3c1-0.5,1.6-1.4,1.5-2.3c0,0,0-0.1,0-0.1c0,0,0,0,0,0.1
			c0,0,0,0,0,0c-0.1,0.2-0.3,0.4-0.6,0.6c-0.2,0.1-0.4,0.2-0.7,0.2l0,0c-0.8,0.1-1.8-0.1-2.6-0.5c-0.4-0.2-0.7-0.4-1-0.7
			C1.7,9.3,1.6,9.2,1.5,9C1.1,8.5,1,8,1.1,7.6c0,0,0,0,0,0v0v0c0,0,0,0,0-0.1c0,0,0,0,0,0.1c0,0,0,0.1,0,0.1c0,0,0,0,0,0
			c0,0,0,0,0,0c0,0,0,0.1,0,0.1c0,0,0,0.1,0,0.1c0,0,0,0,0,0.1c0,0.1-0.1,0.3-0.1,0.4c0,0,0,0,0,0c0,0,0,0,0,0l0,0l0,0l0,0
			c0,0,0,0,0,0c-0.2,0.9,0.5,1.8,1.4,2.3c0.4,0.2,0.9,0.4,1.4,0.5c0.6,0.1,1.1,0.1,1.7,0l0,0c0.6-0.2,1-0.4,1.2-0.7
			c0.2-0.2,0.2-0.4,0.3-0.5c0,0.2-0.1,0.6-0.3,0.9c-0.2,0.3-0.6,0.7-1.3,1l0,0C5,11.9,4.6,12,4.3,12c-0.4,0.1-0.8,0-1.2,0
			c-1.3-0.2-2.3-1.1-2.4-2.3c0,0,0,0,0-0.1v0c0,0,0,0,0,0v0c0,0,0,0,0,0l0,0c0,0,0,0,0,0c0,0,0,0.1,0,0.1c0,0,0,0.1,0,0.1
			c0,0,0,0,0,0s0,0,0,0c0,0,0,0,0,0v0c0,0,0,0,0,0v0c0,0,0,0,0,0c0,0,0,0,0,0c0,0,0,0,0,0c0,0,0,0,0,0c0,0,0,0,0,0c0,0,0,0,0,0
			c0,0,0,0,0,0c0,0,0,0,0,0c0,0,0,0,0,0c0,0,0,0,0,0v0l0,0c0,0,0,0,0,0c0,0,0,0,0,0v0l0,0c0,0,0,0,0,0s0,0,0,0
			c0,0.3,0.2,0.6,0.4,0.9C1.6,12.2,2.6,12.6,3.6,12.6z"/>
		<path class="st1" d="M10.5,1.2C10.5,1.2,10.5,1.2,10.5,1.2c0.3,0,0.5,0.1,0.7,0.3c0.2,0.1,0.4,0.3,0.5,0.5c0,0,0,0.1,0.1,0.1
			c0.1,0.1,0.2,0.3,0.3,0.5c0.2,0.4,0.3,1,0.3,1.5c0,0.2,0,0.4,0,0.6c0,0.3-0.1,0.6-0.2,1c-0.1,0.3-0.2,0.5-0.3,0.7
			c-0.1,0.1-0.1,0.2-0.2,0.2c-0.1,0.1-0.2,0.2-0.3,0.3c-0.4,0.3-0.8,0.5-1.2,0.5l0,0c0,0,0,0,0,0l0,0h0c0,0,0,0,0,0
			c0.5,0.1,1-0.1,1.5-0.4c0.1-0.1,0.2-0.2,0.4-0.3c0.1-0.1,0.1-0.2,0.2-0.2l0,0l0,0c0.2-0.2,0.3-0.5,0.4-0.8
			c0.1-0.4,0.2-0.7,0.3-1.1c0.1-0.7,0-1.4-0.3-2c-0.1-0.1-0.1-0.3-0.2-0.4c-0.1-0.2-0.3-0.3-0.4-0.4c-0.2-0.2-0.5-0.3-0.7-0.3
			c0,0,0,0,0,0l-0.1,0c-0.1,0-0.1,0-0.2,0c0,0-0.1,0-0.1,0c0,0,0,0,0,0c-0.1,0-0.2,0-0.2,0c0,0,0,0,0,0C10.6,1.2,10.6,1.2,10.5,1.2
			C10.5,1.2,10.5,1.2,10.5,1.2L10.5,1.2C10.5,1.2,10.5,1.2,10.5,1.2C10.4,1.2,10.4,1.2,10.5,1.2c-0.1,0-0.1,0-0.2,0
			C10.3,1.2,10.3,1.2,10.5,1.2C10.4,1.2,10.4,1.2,10.5,1.2z"/>
	</g>
</g>
</svg>
