<?xml version="1.0" encoding="utf-8"?>
<!-- Generator: Adobe Illustrator 19.1.1, SVG Export Plug-In . SVG Version: 6.00 Build 0)  -->
<svg version="1.1" id="Layer_1" xmlns="http://www.w3.org/2000/svg" xmlns:xlink="http://www.w3.org/1999/xlink" x="0px" y="0px"
	 viewBox="0 0 192 192" style="enable-background:new 0 0 192 192;" xml:space="preserve">
<style type="text/css">
	.st0{opacity:0.1;}
	.st1{fill:#1BDBC4;}
</style>
<g>
	<g class="st0">
		<path class="st1" d="M54.4,38.3L54.4,38.3L54.4,38.3C54.4,38.2,54.4,38.2,54.4,38.3z"/>
		<path class="st1" d="M161,135.3C161,135.3,161,135.3,161,135.3c0,0-0.2,0.1-0.3,0.3C160.8,135.5,160.9,135.4,161,135.3z"/>
		<path class="st1" d="M12.2,144.4c0.1,0.2,0.1,0.3,0.2,0.5c0.1,0.2,0.2,0.4,0.3,0.6c-0.3-0.7-0.6-1.4-0.9-2
			C12,143.9,12.1,144.1,12.2,144.4z"/>
		<path class="st1" d="M82.5,117.4c0,0.2,0,0.4,0,0.6C82.5,117.8,82.5,117.7,82.5,117.4L82.5,117.4z"/>
		<path class="st1" d="M13,146.1C13,146.1,13.1,146.1,13,146.1c0,0,0,0,0-0.1C13,146,13,146,13,146.1z"/>
		<path class="st1" d="M177.2,38.5c0.4,0.6,0.8,1.2,1.1,1.8C178,39.7,177.6,39.1,177.2,38.5z"/>
	</g>
	<g>
		<path class="st1" d="M174.5,114.6c0,0.1-0.1,0.2-0.2,0.3v0c-0.6,0.8-1.2,1.5-2,2.1c-1.6,1.3-3.7,2.2-6.2,2.8
			c-1.6,0.4-3.4,0.6-5.4,0.6c-12.6,0.1-28.6-6.8-39.8-16.6c-2.7-2.4-5.2-4.9-7.2-7.5c-0.1-0.1-0.2-0.3-0.4-0.5
			c-1.1-1.4-2-2.9-2.8-4.3l0.5-0.2c0.4-0.1,0.8-0.3,1.2-0.5c0.1,0,0.2-0.1,0.3-0.1c1.5-0.6,2.8-2,3.6-4.2c0.2-0.5,0.3-1,0.5-1.6
			c0,0,0,0,0-0.1c0.1-0.5,0.2-1,0.3-1.6c0.1-0.8,0.2-1.7,0.3-2.7c0.1-2.2,0-4.7-0.3-7.4c-0.3-2.9-0.9-6.1-1.7-9.3
			c-0.5-2-1-3.9-1.7-5.9c-2.6-8.1-6.3-16.5-10.8-23.4c-1-1.5-2-2.9-2.9-4.2c-0.2-0.4-0.5-0.7-0.7-1c-1.8-2.3-3.6-4.2-5.3-5.6
			C91.3,21.4,89,20.3,87,20c-0.7-0.1-1.3,0-1.9,0h0c-0.5,0.2-1,0.4-1.5,0.6c0.1,0,0.1-0.1,0.2-0.1c0,0,0.1,0,0.2-0.1l-0.2,0.1
			c-0.9,0.4-1.9,0.7-2.7,1.2l-0.5,0.2l0,0h0c-1.8,0.8-4.1,1.9-5.8,2.7c0.3-0.1,0.6-0.2,0.9-0.2c0.5,0,1.1,0,1.7,0.2
			c1.7,0.5,3.7,2,6.1,4.3c1.7,1.6,3.4,3.7,5.4,6.2c0.1,0.1,0.2,0.3,0.3,0.5c1.2,1.6,2.4,3.4,3.6,5.1c3.8,5.9,7.5,12.7,10.4,19.4
			c0.9,2,1.8,4.1,2.6,6.2c1.4,3.5,2.5,6.8,3.3,9.9c0.7,2.6,1.2,5,1.4,7.2c0.1,0.9,0.2,1.7,0.2,2.5c0,1.1,0,2-0.1,2.9
			c-0.3,1.9-0.9,3-2,3.5c0,0,0,0,0,0c0,0-0.1,0-0.1,0.1c0.9,1.8,2.1,3.6,3.6,5.5l0,0l0,0l0,0l0,0c0.2,0.2,0.4,0.5,0.6,0.7
			c10.5,13.5,30.2,25.9,44.4,27.8c1.4,0.2,2.8,0.3,4,0.2c2.2,0,4-0.5,5.4-1.2c0.9-0.5,1.7-1,2.3-1.7c0.1-0.1,0.2-0.3,0.4-0.5l0,0
			l0.5-0.7l0,0c0.1-0.1,0.1-0.2,0.2-0.3c0,0,0,0,0,0c0.4-0.6,0.8-1.3,1.3-1.9c0.5-0.8,1.1-1.7,1.6-2.5l0.5-0.7
			c0-0.1,0.1-0.2,0.2-0.4c0.1-0.1,0.1-0.2,0.2-0.4l0.6-1C174.2,115.1,174.3,114.8,174.5,114.6c0.2-0.3,0.4-0.6,0.6-0.9
			c0-0.1,0.1-0.2,0.1-0.2c0,0-0.1,0.1-0.1,0.2c0,0.1-0.1,0.2-0.2,0.3l0.4-0.7l0,0c-0.1,0.3-0.3,0.6-0.5,0.8
			C174.6,114.3,174.5,114.4,174.5,114.6z"/>
		<path class="st1" d="M53,38.1L53,38.1L53,38.1L53,38.1z"/>
		<path class="st1" d="M159.1,135.6c-0.6,0.5-1.3,0.7-2.2,0.8c-1.1,0.1-2.5-0.1-4.1-0.6c-0.8-0.2-1.7-0.6-2.7-0.9
			c-5.3-2.1-11.8-6.1-18.3-11.2c-3.8-2.9-7.5-6.2-11.1-9.7c-4.3-4.1-8.3-8.5-11.5-12.8c-1.7-2.2-3-4.3-4.1-6.1
			c-0.1-0.2-0.2-0.4-0.4-0.7c0,0,0,0,0,0c-0.4,0.3-0.9,0.6-1.3,0.7l-0.1,0c-0.2,0.1-0.5,0.4-0.8,0.5c0,0-0.1,0-0.1,0.1
			c0.2-0.1,0.3-0.4,0.3-0.9c0-0.4-0.1-1-0.3-1.6s-0.4-1.4-0.7-2.3c-0.2-0.7-0.6-1.4-0.9-2.1c-0.9-2-2-4.3-3.3-6.8
			c-1.8-3.4-3.9-7.3-6.3-11.3c-4.3-7.3-9.5-15.2-14.3-22c-1.2-1.7-2.4-3.3-3.5-4.8c-1.3-1.7-2.4-3.1-3.5-4.4c-2.5-3.1-4.6-5.3-6-6.5
			c-0.5-0.4-1-0.7-1.3-0.9c-0.3-0.1-0.6-0.2-0.7-0.1h0c-0.1,0-0.1,0.1-0.2,0.1l0,0c-0.1,0.1-0.2,0.1-0.3,0.2
			c-0.8,0.5-1.7,1.1-2.4,1.6c-0.1,0.1-0.2,0.1-0.3,0.2L58.5,34c-0.9,0.6-1.9,1.4-2.9,2c0,0,0,0,0,0c-0.1,0-0.2,0.1-0.3,0.2
			c-0.1,0.1-0.2,0.1-0.3,0.2c-0.4,0.2-0.7,0.5-1,0.7c-0.1,0.1-0.2,0.1-0.3,0.2c0,0-0.1,0.1-0.2,0.1c0,0,0,0-0.1,0.1c0,0,0,0,0,0
			c0,0,0,0-0.1,0c0,0-0.1,0.1-0.1,0.1l0,0c0,0,0.2,0.3,0.7,0.8c0.3,0.4,0.7,0.9,1.2,1.6c1.4,1.9,3.6,4.8,6.6,8.7
			c0.5,0.7,1,1.3,1.5,2c2.8,3.7,5.9,7.8,9,12c2,2.7,4,5.4,6,8c4.2,5.6,8.3,11.1,11.7,15.7c1.8,2.4,3.4,4.7,4.8,6.5
			c0.5,0.7,0.9,1.3,1.3,1.8c0.6,0.7,1,1.4,1.4,1.9c0.8,1.1,1.2,1.7,1.2,1.7c-0.6,0.5-1.4,1-2,1.5c-0.1,0.1-0.2,0.1-0.3,0.2
			c0,0,0,0,0,0l0,0l0,0c0.7,0.8,1.5,1.8,2.3,2.8c1,1.3,2.1,2.7,3.4,4.3l0,0c1.3,1.7,2.6,3.5,4,5.4c4.7,6.6,9.7,14.1,14,21
			c2.4,3.9,4.6,7.6,6.5,10.9c1.5,2.6,2.7,5,3.8,7.1c0.1,0,0.1-0.1,0.2-0.1c-0.1,0-0.1,0.1-0.2,0.1c0.4,0.7,0.7,1.4,0.9,2
			c0.5,1,0.8,1.9,1,2.6c0.3,1,0.4,1.7,0.2,2c0,0,0,0,0,0c0.3-0.2,0.5-0.3,0.7-0.5l0.6-0.4l0,0c1.9-1.3,4.2-3,6.1-4.4
			c0.4-0.3,0.7-0.5,1-0.7c0,0,0,0,0,0c-0.1-0.1-0.5-0.5-1.1-1.1c-0.5-0.6-1.1-1.3-1.9-2.2c-0.4-0.5-0.9-1.1-1.4-1.7
			c-0.1,0-0.1,0.1-0.2,0.2c0.1,0,0.1-0.1,0.2-0.2c-1.6-2-3.5-4.4-5.7-7.1c-4.5-5.7-9.9-12.7-15.3-19.6c0,0,0-0.1-0.1-0.1
			c-3.9-5.1-7.8-10.2-11.2-14.7l0,0c-0.5-0.6-0.9-1.2-1.3-1.8c-1.8-2.3-3.1-4.2-4.2-5.7c0.3-0.2,0.6-0.5,0.9-0.7l0.9-0.7l0.5-0.4
			c0,0,0,0,0,0l0.1-0.1c0.1-0.1,0.2-0.1,0.4-0.2c0,0,0,0,0,0c0.2-0.1,0.5-0.3,0.7-0.5c1.3,2.1,2.9,4.5,5,7.3
			c1.2,1.6,2.4,3.2,3.8,4.8c7.1,8.7,16.1,18,24,24.8c3.5,3.1,6.8,5.7,9.7,7.5c0.7,0.5,1.4,0.9,2.1,1.3c1.3,0.7,2.3,1.2,3.1,1.4
			c0.8,0.2,1.5,0.2,1.9,0c0,0,0,0,0.1,0c0,0,0,0,0.1-0.1l0,0l0,0l1-0.9l0,0l0,0c0.2-0.1,0.3-0.3,0.5-0.5c0.7-0.7,1.4-1.4,2.1-2.1
			c0.1-0.2,0.3-0.3,0.5-0.5c0.4-0.4,0.8-0.8,1.2-1.3l0,0c0,0,0,0,0,0l0.1-0.1c0.3-0.4,0.7-0.8,1.1-1.2c0,0-0.1,0.1-0.1,0.1
			c0,0,0-0.1,0.1-0.1c0.1-0.1,0.2-0.2,0.3-0.3c0,0,0,0,0.1-0.1s0.1-0.1,0.2-0.2c0,0-0.1,0.1-0.1,0.1
			C159.1,135.6,159.1,135.6,159.1,135.6z"/>
		<path class="st1" d="M159.5,135.1C159.5,135.1,159.6,135.1,159.5,135.1c0,0-0.2,0.1-0.3,0.3C159.4,135.3,159.4,135.2,159.5,135.1z
			"/>
		<path class="st1" d="M10.8,144.2c0.1,0.2,0.1,0.3,0.2,0.5s0.2,0.4,0.3,0.6c-0.3-0.7-0.6-1.4-0.9-2C10.6,143.7,10.6,144,10.8,144.2
			z"/>
		<path class="st1" d="M81.1,117.3c0,0.2,0,0.4,0,0.6C81.1,117.7,81.1,117.6,81.1,117.3L81.1,117.3z"/>
		<path class="st1" d="M186.3,69.3C186.3,69.2,186.3,69.2,186.3,69.3v-0.2c0-0.1,0-0.3,0-0.5c0-0.4,0-0.7-0.1-1.1
			c0-0.4,0-0.7-0.1-1.1v0v0c0,0.2,0,0.4,0,0.7c0.1,1.1,0.1,2,0.2,2.8c0-0.8-0.1-1.7-0.2-2.8c0.5,8.2-2.6,19.5-18.9,28.2
			c0,0.2,0,0.5,0,0.7c0-0.2,0-0.5-0.1-0.7c-2.7,1.3-5.4,2.3-8.2,3.1c-4.1,1.1-8.3,1.6-12.4,1.6c-11.2,0-21.9-3.9-28.7-11.1
			c0.3-0.1,0.6-0.1,0.9-0.2l0.4-0.1l0,0l0,0c0.1,0,0.2,0,0.3,0c7.9,6.6,19.5,8.8,31,6.5c3.4-0.7,6.7-1.8,10-3.3
			c1.8-0.8,3.5-1.8,5.2-2.8c15.3-9.6,21.7-26,16.3-39.2c-0.5-1-0.8-1.9-1.2-2.7c0,0,0-0.1-0.1-0.2c-0.3-0.7-0.7-1.4-1-2
			c-0.4-0.7-0.7-1.4-1.2-2.2c-0.2-0.3-0.4-0.6-0.6-0.9c-0.3-0.5-0.7-1-1-1.6c2.4,4.1,3.6,8.7,3.7,13.4c0,3.6-0.5,7.4-1.7,11
			c-2.5,7.6-7.7,15-15.3,20.5c-1.4,1-2.8,2-4.3,2.8c-2.7,1.6-5.5,2.8-8.4,3.7c-10.9,3.5-22.2,2.4-30.4-3.2h0c0.3,0,0.7-0.1,1-0.2
			c8,4.1,18,3.8,27.4-0.7c2.3-1.1,4.6-2.5,6.8-4.1c1.2-0.9,2.4-1.9,3.5-2.9c4.1-3.7,7.5-8.1,9.9-12.8c5.9-11.3,6.6-24.2,1.3-33.9
			c-0.7-1.2-1.4-2.3-2.2-3.4c-1.4-2-3.1-3.6-5-5c-1.6-1.2-3.9-2.7-5.6-3.8l0,0c0,0,0,0,0,0c-0.6-0.4-1.2-0.7-1.8-1
			c-0.2-0.1-0.5-0.3-0.7-0.4c-0.1,0-0.2-0.1-0.3-0.1c-0.4-0.2-0.8-0.4-1.2-0.6l-0.1-0.1c0,0-0.1,0-0.1,0c0,0-0.1,0-0.1,0
			c-0.1,0-0.2-0.1-0.4-0.2c0,0,0,0,0,0c0,0,0,0,0,0c-0.1,0-0.2-0.1-0.3-0.2c0,0,0,0,0.1,0c-0.1,0-0.2-0.1-0.3-0.1h0
			c-0.3-0.1-0.6-0.3-0.9-0.4l0,0c0.6,0.2,1.1,0.5,1.6,0.7c0.3,0.1,0.6,0.3,0.9,0.5l0,0c2.4,1.4,4.7,3.2,6.7,5.4
			c0.4,0.5,0.8,0.9,1.2,1.4c8.1,10.7,8.1,27.1,1.2,40.7c-2,3.9-4.6,7.6-7.7,10.9l0,0l0,0c-1,1.1-2,2-3.1,3c-1.9,1.6-3.8,3-5.8,4.1
			c-8.1,4.7-17,5.7-24.5,2.8c2.8-0.8,5.5-2.6,7.7-5.4c0.9-1.1,1.7-2.3,2.5-3.7c0.5-0.9,1-2,1.4-3c0,0-0.1,0-0.1,0c0,0,0.1,0,0.1,0
			c1-2.5,1.8-5.1,2.3-7.9c0.6-3.2,0.9-6.5,1-9.9c0-2.2,0-4.4-0.3-6.6c-0.8-8.7-3.4-17.4-7.4-24.4c-0.8-1.5-1.8-2.9-2.7-4.2
			c-0.3-0.4-0.7-0.8-1-1.3c-1.9-2.3-3.9-4.1-5.9-5.4c-2.5-1.7-5.1-2.6-7.7-2.7c-0.7,0-1.3,0-2,0c-0.2,0-0.4,0-0.6,0l-4.3,0.7l-0.1,0
			c-0.1,0-0.2,0-0.2,0c-0.1,0-0.2,0-0.3,0c-1.6,0.4-3.6,0.8-5.3,1.2c0.7-0.1,1.4-0.2,2.2-0.1c2.4,0.1,4.9,1.1,7.4,2.9
			c1.8,1.3,3.6,3,5.4,5.1c0.5,0.5,0.9,1.1,1.3,1.7c0.7,0.8,1.3,1.8,1.9,2.7c4.8,7.4,8.3,16.9,9.9,26.3c0.4,2.1,0.7,4.2,0.8,6.3
			c0.2,3.2,0.3,6.3,0,9.3c-0.2,2.7-0.6,5.2-1.3,7.5l0,0c-0.3,1-0.6,2-1,2.9c-0.5,1.4-1.1,2.5-1.8,3.6c-1.7,2.7-4,4.5-6.4,5.2h0
			c0,0-0.1,0-0.1,0c-0.2,0-0.5,0.1-0.8,0.2h0c5.4,6.6,13.9,11.2,23.2,13.1c4.9,1,10.1,1.4,15.1,0.9c4.3-0.4,8.5-1.4,12.5-2.9
			c11.3-4.7,17.5-11.9,18.9-21.7c0-0.1,0-0.2,0-0.3c0,0,0-0.1,0-0.1c0-0.5,0-1.1,0-1.6c0-0.1,0-0.3,0-0.5v-0.1c0-0.9,0-1.7,0.1-2.4
			c0,0.7,0,1.5-0.1,2.5c0,0,0,0,0,0c0-0.9,0.1-1.8,0.1-2.7C186.5,72.3,186.4,70.6,186.3,69.3z"/>
		<path class="st1" d="M120.6,157.6c-0.4-2.1-0.9-4.6-1.7-7.1c-0.9-3.1-2.2-6.5-3.6-10c-1.1-2.6-2.3-5.3-3.5-7.9
			c-2.6-5.4-5.6-10.8-8.8-15.7c-1.3-2-2.6-3.9-3.9-5.7c-0.3-0.5-0.7-0.9-1-1.3c-1.8-2.5-3.6-4.5-5.1-6.1l-0.3-0.3l0.1-0.1
			c-0.4,0.4-1.3,0.3-2.7-0.3c-0.7-0.3-1.4-0.7-2.3-1.3c-0.6-0.4-1.3-0.8-2-1.4l0,0c-2.5-1.8-5.4-4.2-8.6-7.1
			c-8.1-7.4-17.8-17.6-25.2-27c-1-1.3-2-2.5-2.9-3.7c-2.8-3.7-4.9-6.8-6.2-9.3c-0.6-1.1-1.1-2.1-1.4-2.9c-0.5-1.3-0.6-2.1-0.2-2.6
			c0,0,0,0,0,0c0,0,0.1-0.1,0.1-0.1c-0.1,0-0.1,0.1-0.2,0.2l-1.1,1L39,50.2c-0.2,0.2-0.4,0.4-0.6,0.6c0,0,0,0,0,0
			c-0.4,0.4-0.8,0.8-1.2,1.2c-0.8,0.8-1.6,1.7-2.4,2.5c-0.2,0.2-0.4,0.4-0.6,0.6c0,0-0.1,0.1-0.2,0.2c0,0-0.1,0.1-0.1,0.1
			c0,0,0,0,0,0c-0.7,1-0.7,2.7,0,4.9c0.4,1.2,1,2.6,1.9,4.2c1.2,2,2.7,4.4,4.7,7C43,75,46,78.5,49.4,82c4.8,5,10.1,9.8,15.3,13.9
			c5.7,4.5,11.3,8.1,15.9,10.1l0,0c0.9,0.4,1.8,0.7,2.6,1c1.2,0.4,2.2,0.6,3.1,0.7c1.5,0.1,2.6-0.1,3.3-0.8l0,0c0,0,0.1-0.1,0.1-0.1
			c0,0,0.1-0.1,0.2-0.2l0.5-0.5l0.5-0.5c1.4,1.4,2.8,3,4.3,4.9c0.2,0.2,0.4,0.5,0.6,0.8c1,1.4,2,2.8,3,4.3
			c4.4,6.8,8.2,14.9,10.9,22.9c0.7,2,1.3,3.9,1.8,5.9c0.9,3.3,1.6,6.5,2,9.5c0.4,2.6,0.5,5,0.5,7.2c0,0.9-0.1,1.7-0.2,2.5
			c-0.1,1.3-0.4,2.4-0.7,3.4c-0.6,1.9-1.6,3.1-2.7,3.8c0,0-0.1,0-0.1,0c-0.2,0.1-0.5,0.2-0.7,0.3c0.1,0,0.3-0.1,0.5-0.1l1.8-0.7l0,0
			l0,0c2-0.9,4.6-2.2,6.8-3.2c0.4-0.2,0.7-0.3,1-0.5c0.1,0,0.2-0.1,0.3-0.2c0.7-0.6,1.2-1.5,1.3-3c0.1-0.8,0.1-1.9,0-3.1
			C120.9,159.2,120.8,158.4,120.6,157.6z"/>
		<path class="st1" d="M104,141c-1.7-9-5.2-18.2-9.8-25.5c-0.7-1.1-1.5-2.2-2.2-3.3c0,0-0.1,0-0.1,0c0,0-0.1,0-0.1,0
			c0.1,0,0.1,0,0.2,0c-0.4-0.5-0.8-1-1.2-1.5c-0.8-1-1.7-2-2.6-2.8c-0.1,0.2-0.3,0.3-0.4,0.5l0,0l0,0l0,0c0,0,0,0,0,0.1c0,0,0,0,0,0
			l0,0l0,0l0,0c-0.2,0.3-0.5,0.7-0.8,1c0.5,0.5,1,1.1,1.5,1.7c0.4,0.5,0.8,0.9,1.2,1.4c0.1,0,0.1,0,0.2,0c0,0,0,0-0.1,0
			c0,0-0.1,0-0.1,0c0.8,1.1,1.6,2.3,2.4,3.6c4.3,7.2,7.1,16.3,8.1,25.3c0.2,2,0.3,4.1,0.4,6.1c0,3.4-0.2,6.8-0.7,10.1
			c-0.5,2.8-1.2,5.5-2.1,7.9c0.1,0,0.2,0,0.3,0c-0.1,0-0.2,0-0.3,0c-0.4,1-0.8,2-1.3,2.9c-0.7,1.5-1.6,2.8-2.5,4
			c-2.2,2.8-4.8,4.6-7.7,5.3l-0.3,0c-0.5,0.1-1,0.2-1.5,0.2c0.3,0,0.6,0,0.9-0.1l0,0h0l2.2-0.4c0,0,0.1,0,0.2,0c0,0,0,0,0.1,0
			c0,0,0.1,0,0.1,0c0.3,0,0.6-0.1,0.8-0.2c0.7-0.1,1.5-0.3,2.3-0.5c0.9-0.2,1.8-0.4,2.7-0.7c0.2,0,0.4-0.1,0.5-0.1
			c0.3-0.1,0.7-0.2,0.9-0.3c0.1,0,0.1,0,0.2,0c0.3-0.1,0.7-0.2,1-0.3c0.1,0,0.2-0.1,0.3-0.1h0c2-0.8,3.8-2.3,5.2-4.7
			c0.7-1.1,1.3-2.4,1.8-3.8c0.3-0.8,0.6-1.7,0.8-2.7c-0.1,0-0.2,0-0.3,0.1c0.1,0,0.2,0,0.3-0.1c0.6-2.4,0.9-4.9,1.1-7.6
			c0.1-3.1,0-6.4-0.3-9.8C104.7,144.8,104.4,142.9,104,141z"/>
		<path class="st1" d="M88.2,166.5c1.5-2.6,2.7-5.4,3.7-8.5c1.2-3.8,2-7.8,2.3-11.9c0.2-2.8,0.2-5.7,0-8.5
			c-0.4-6.3-1.9-12.5-4.4-17.8c-0.9-2-1.9-3.8-3.1-5.5c-0.3-0.4-0.6-0.8-0.8-1.2c-0.3-0.4-0.6-0.8-0.9-1.2c0.1-0.1,0.2-0.2,0.2-0.4
			l0.1-0.2c-0.7,0.9-1.7,1.7-2.9,2.2c-0.7,0.2-1.4,0.5-2.1,0.6c-0.1,0-0.1,0-0.2,0c-0.8,0.1-1.6,0.2-2.6,0.1c-1.2,0-2.5-0.1-4-0.4
			c-14.2-2.4-34-15.6-44.4-29.3c-0.4-0.5-0.7-1-1.1-1.4c-1.6-2.3-2.8-4.5-3.7-6.5c-1.7-4-1.8-7.3-0.6-9.5c0-0.1,0.1-0.2,0.2-0.3
			l-1.8,2.5l-0.1,0.1l0,0c0,0,0,0-0.1,0.1c-0.3,0.5-0.6,0.9-0.9,1.4c-0.4,0.6-0.8,1.3-1.3,2c-0.5,0.7-0.9,1.5-1.4,2.2
			c0,0,0,0.1-0.1,0.1l0,0.1c0,0,0,0,0,0.1c0,0,0,0.1,0,0.1s0,0,0,0c0,0,0,0.1-0.1,0.1l0,0C18.1,76,18,76.2,18,76.3
			c-1.8,3.6-1.2,8.6,2,14.3c0.7,1.3,1.6,2.6,2.6,4c1.2,1.6,2.5,3.2,4,4.7c11.1,11.6,29.2,20.5,42.9,20.8c2,0,3.8-0.1,5.4-0.4
			c2.5-0.5,4.5-1.4,6.1-2.6l0,0c3.4,12.7-3,27.7-17.1,36.7l0,0c-1.7,1.1-3.5,2.1-5.4,3c-3,1.4-6.1,2.5-9.1,3.2
			c-14,3.3-28.2-0.5-35.9-10.7c-0.8-1.1-1.5-2.2-2.1-3.4c0.3,0.6,0.6,1.2,0.8,1.7c0.7,1.2,1.2,2.1,1.8,3.1c0.8,1.3,1.7,2.5,3,4.5
			c0,0,0,0,0,0c0,0,0,0,0.1,0.1c0.3,0.4,0.6,0.7,0.9,1.1c0.2,0.2,0.4,0.5,0.6,0.7c8.3,9.3,22.4,11.7,35.8,6.8c2.5-0.9,5-2.1,7.5-3.5
			c1.4-0.9,2.9-1.8,4.3-2.9c0,0-0.1-0.1-0.1-0.2c0.7,0.1,1.3-1.1,1.9-1.5l1.3-1.1c0.1-0.1,0.3-0.2,0.4-0.4c0.2-0.2,0.5-0.4,0.7-0.7
			c0,0,0.1-0.1,0.1-0.1c0.2-0.2,0.4-0.4,0.6-0.6l0.2-0.2c0.1-0.1,0.3-0.3,0.5-0.5c0.1-0.1,0.1-0.2,0.2-0.2c0.1-0.1,0.2-0.3,0.4-0.4
			c0.1-0.1,0.1-0.2,0.2-0.3c0.1-0.1,0.2-0.2,0.4-0.4c0.1-0.1,0.1-0.2,0.2-0.3c0.1-0.1,0.2-0.3,0.3-0.4c0.1-0.1,0.1-0.2,0.2-0.3
			c0,0,0,0,0.1-0.1c0.1-0.1,0.2-0.2,0.2-0.3c0-0.1,0.1-0.2,0.2-0.3c0.1-0.1,0.2-0.3,0.4-0.5c0-0.1,0.1-0.1,0.2-0.2
			c0.1-0.2,0.3-0.4,0.4-0.6c0,0,0-0.1,0.1-0.1c0.1-0.2,0.3-0.4,0.4-0.6c0,0,0,0,0.1-0.1c0,0,0.1-0.1,0.1-0.2c0,0,0.1-0.1,0.1-0.2
			c0,0,0,0,0-0.1c0,0,0-0.1,0.1-0.1c0,0,0,0,0-0.1c0-0.1,0.1-0.2,0.2-0.3c0.1-0.1,0.1-0.2,0.2-0.3c0,0,0,0,0-0.1l0,0
			c0,0,0-0.1,0.1-0.1c0,0,0-0.1,0.1-0.1c0.1-0.1,0.2-0.3,0.3-0.4c0,0,0-0.1,0-0.1s0,0,0,0c0,0,0-0.1,0.1-0.1
			c0.1-0.1,0.2-0.3,0.2-0.4c0-0.1,0.1-0.2,0.2-0.3c0,0,0,0,0-0.1l0,0c0,0,0-0.1,0.1-0.1c0,0,0-0.1,0-0.1c0-0.1,0.1-0.2,0.1-0.3
			c0,0,0-0.1,0.1-0.1c0,0,0-0.1,0-0.1c0,0,0.1-0.1,0.1-0.2c0,0,0,0,0,0c0-0.1,0.1-0.2,0.1-0.2c0,0,0-0.1,0-0.1
			c0-0.1,0.1-0.2,0.1-0.3c0,0,0-0.1,0.1-0.2c0,0,0,0,0-0.1c0,0,0,0,0,0c0,0,0,0,0-0.1c0-0.1,0.1-0.2,0.1-0.3c0-0.1,0.1-0.2,0.1-0.3
			c0,0,0,0,0,0s0,0,0-0.1c0-0.1,0.1-0.2,0.1-0.3c0,0,0-0.1,0-0.1c0-0.1,0-0.1,0.1-0.2v0c0,0,0,0,0,0c0,0,0-0.1,0-0.1
			c0,0,0-0.1,0-0.1c0-0.1,0.1-0.2,0.1-0.4c0,0,0-0.1,0-0.1c0,0,0-0.1,0-0.1l0,0v0c0,0,0-0.1,0-0.1c0,0,0-0.1,0-0.2v0
			c0,0,0-0.1,0.1-0.2c0,0,0-0.1,0-0.2c0-0.1,0.1-0.2,0.1-0.3c0,0,0-0.1,0-0.2c0,0,0-0.1,0-0.1c0,0,0-0.1,0-0.1
			c0-0.1,0.1-0.2,0.1-0.3s0-0.2,0.1-0.3c0,0,0,0,0,0c0-0.2,0.1-0.4,0.2-0.6c0-0.1,0-0.2,0.1-0.3c0,0,0,0,0,0c0-0.2,0.1-0.3,0.1-0.5
			c0,0,0-0.1,0-0.1c0,0,0-0.1,0-0.1c0-0.2,0.1-0.4,0.2-0.7c0-0.1,0-0.2,0.1-0.3c0.1-0.3,0.1-0.5,0.2-0.8c0-0.1,0.1-0.3,0.1-0.4
			c0.1-0.2,0.1-0.5,0.1-0.7c0-0.1,0-0.2,0-0.3v0c0-0.1,0-0.2,0-0.4c0-0.2,0.1-0.5,0.1-0.8c0,0,0-0.1,0-0.1c0-0.1,0-0.3,0-0.5
			c0,0,0-0.1,0-0.1c0,0,0-0.1,0-0.1c0-0.1,0-0.2,0-0.4l0-0.5c0,0,0-0.1,0-0.1l0,0c0,0,0-0.1,0-0.1c0,0,0,0,0-0.1v-0.1
			c0,0,0-0.1,0-0.2s0-0.1,0-0.2c0,0,0-0.1,0-0.1v-0.1c0-0.1,0-0.1,0-0.2v-0.1c0,0,0-0.1,0-0.1v-0.2v0c0,0,0-0.1,0-0.2v-0.2l0,0v-0.1
			c0-0.1,0-0.2,0-0.3v-1c0,0,0-0.1,0-0.2v-0.5c0,0,0-0.1,0-0.1v-0.1c0-0.1,0-0.2,0-0.3v-0.1c0,0,0,0,0,0l0,0v0v-0.1c0,0,0,0,0-0.1
			l0,0c0,0,0-0.1,0-0.2c0-0.1,0-0.1,0-0.2c0,0,0-0.1,0-0.2v0c0,0,0,0,0-0.1v-0.1c0,0,0,0,0-0.1s0,0,0-0.1c0,0,0,0,0,0
			c0-0.1,0-0.2,0-0.2v-0.1c0-0.1,0-0.2,0-0.3v-0.1c0,0,0-0.1,0-0.1c0,0,0-0.1,0-0.1s0,0,0-0.1c0-0.1,0-0.2,0-0.2v0
			c0-0.1,0-0.2,0-0.3l0,0c0,0,0,0,0-0.1c0,0,0,0,0,0c0,0,0-0.1,0-0.2c0-0.1,0-0.2-0.1-0.4c0,0,0-0.1,0-0.1c0,0,0-0.1,0-0.1
			c0,0,0-0.1,0-0.1c0-0.1,0-0.2-0.1-0.3c0,0,0-0.1,0-0.2c0,0,0-0.1,0-0.1c0,0,0-0.1,0-0.2s0-0.1,0-0.1c0,0,0-0.1,0-0.1
			c0-0.1,0-0.2-0.1-0.3c0-0.1,0-0.2-0.1-0.3v0c0,0,0-0.1,0-0.1v0v0l0,0v0c0-0.2-0.1-0.3-0.1-0.5l0.1-0.3l0.5-1
			c4.6,9.8,3.6,22.4-2.2,33.4c-2.3,4.4-5.4,8.6-9.3,12.2c0,0,0,0,0,0c0,0,0,0,0,0c-1.1,1-2.3,2-3.4,2.8c-2,1.5-4.1,2.8-6.1,3.9
			c-10.2,5.4-20.7,5.4-30.1-0.2c0,0-0.1-0.1-0.2-0.1c0.1,0,0.2,0.1,0.2,0.2c0.3,0.2,0.6,0.4,0.8,0.6c0.1,0.1,0.2,0.1,0.4,0.2
			c0,0,0.1,0.1,0.2,0.1c0.1,0,0.2,0.1,0.3,0.2c0.5,0.3,0.9,0.6,1.3,0.8c0,0,0.1,0.1,0.2,0.1c0.5,0.3,1,0.6,1.6,0.9c0,0,0,0,0,0
			c0.4,0.2,0.8,0.5,1.3,0.7c0.8,0.4,1.5,0.7,2.5,1.2c0.5,0.2,1.1,0.5,1.7,0.7c0,0,0.1,0,0.1,0c0,0,0,0-0.1,0c-0.5-0.2-1-0.5-1.5-0.7
			c1.2,0.5,2.4,1,3.6,1.5c7.1,2.2,15.3,1,22.7-3.5c2-1.2,3.9-2.6,5.7-4.3c1-0.9,2-1.9,2.9-2.9c0,0,0,0-0.1,0c0,0,0,0,0.1,0
			c3-3.3,5.5-7,7.5-11c3.3-6.7,4.9-14.1,4.8-21c0-1.7-0.1-3.4-0.4-5c-0.6-4.3-2-8.4-4-12l0,0c0.1-0.2,0.2-0.4,0.4-0.7c0,0,0,0,0,0
			c0-0.1,0.1-0.2,0.2-0.3l0.5-0.7c0.8,1.1,1.5,2.2,2.1,3.4c1.9,3.4,3.2,7.1,4,11.1c0.1,0.7,0.2,1.4,0.4,2c0.7,4.5,0.7,9.2,0.1,13.9
			c-0.6,4.5-1.7,8.9-3.4,13.1c-1.3,3.2-3,6.3-5,9.1c-0.8,1.1-1.6,2.1-2.4,3c-1.4,1.6-2.9,3-4.5,4.2c-5.3,4.1-11.2,5.9-16.9,5.3
			c1.1,0.1,2.2,0.3,3.2,0.4h0c0.1,0,0.2,0,0.3,0c0.2,0,0.5,0,0.7,0.1c0.1,0,0.2,0,0.4,0c0.1,0,0.3,0,0.5,0c-0.2,0-0.3,0-0.5,0
			c0.6,0,1.1,0.1,1.7,0.1c0.7,0,1.4,0.1,2,0.1c0,0,0,0,0.1,0c0.1,0,0.2,0,0.3,0c0.1,0,0.2,0,0.2,0c0.1,0,0.2,0,0.3,0
			c0.2,0,0.4,0,0.6,0c0.1,0,0.3,0,0.4,0c0,0,0.1,0,0.2,0h0H69c0.4,0,0.7,0,1.1,0c4.2-0.3,8.3-2.2,12-5.6c1.3-1.2,2.5-2.6,3.6-4.1
			C86.9,168.6,87.5,167.6,88.2,166.5z"/>
		<path class="st1" d="M11.6,145.9C11.6,145.9,11.6,145.9,11.6,145.9c0,0,0,0,0-0.1C11.5,145.8,11.6,145.8,11.6,145.9z"/>
		<path class="st1" d="M175.8,38.4c0.4,0.6,0.8,1.2,1.1,1.8C176.6,39.6,176.2,39,175.8,38.4z"/>
		<path class="st1" d="M178.9,101.4c-3.1,3.1-7.5,5.5-13,6.9c0,0,0,0,0,0.1c0,0,0,0,0-0.1c-7,1.7-14.9,1.6-22.4-0.1
			c-5.8-1.3-11.5-3.5-16.4-6.5c-4.7-2.8-8.8-6.3-11.9-10.4c0,0,0,0,0,0c0,0,0,0,0,0c-0.3-0.4-0.6-0.8-0.9-1.3
			c-0.3,0.1-0.7,0.2-1.2,0.4c-0.2,0.1-0.5,0.2-0.7,0.3c0.6,0.9,1.2,1.9,1.9,2.8c0,0,0-0.1,0-0.1c0,0,0,0.1,0,0.1
			c1.5,2,3.3,4,5.3,5.7c3.2,2.9,6.8,5.4,10.8,7.6c10.4,5.8,22.9,8.8,33.3,7.4c0.1-0.3,0.2-0.6,0.4-0.8c-0.1,0.3-0.2,0.6-0.4,0.8
			c3.3-0.5,6.2-1.3,8.6-2.5c2.9-1.5,5.1-3.4,6.6-5.8c0,0,0.1-0.1,0.1-0.2c0.1-0.2,0.3-0.5,0.4-0.7c0-0.1,0.1-0.1,0.1-0.2
			c0.1-0.1,0.1-0.3,0.2-0.5v0c0.2-0.7,0.5-1.3,0.8-2c0-0.1,0.1-0.2,0.1-0.4c0.8-2.2,1.7-4.6,2.4-6.8c0,0,0,0,0-0.1v0
			C182.1,97.3,180.8,99.4,178.9,101.4z"/>
		<path class="st1" d="M41.8,152.6c4.1,0,8.4-0.7,12.5-1.9c2.7-0.8,5.4-1.9,8.1-3.2c12.7-6.5,19.6-17.6,18.9-28.5c0-0.4,0-0.7-0.1-1
			c0,0.2,0,0.5,0,0.9c0,0,0,0,0,0c-1.4,2.8-3.8,5.2-7.1,7c-2.4,1.3-5.4,2.3-8.8,2.8l0,0c-10,1.6-21.7-0.8-31.9-5.9
			c-4.8-2.4-9.2-5.4-12.9-8.8c-1.8-1.7-3.4-3.5-4.9-5.4c-4.8-6.4-6.2-12.8-4.6-18c0-0.1,0-0.2,0.1-0.2v0v0c0.1-0.3,0.2-0.6,0.4-0.9
			c-0.1,0.2-0.2,0.4-0.3,0.7c-0.2,0.5-0.4,0.9-0.5,1.3c0,0,0,0,0,0.1c0,0,0,0,0,0.1c-0.1,0.4-0.3,0.8-0.5,1.2
			c-0.1,0.3-0.2,0.7-0.4,1.1c-0.1,0.3-0.2,0.6-0.3,0.8C9,96.5,8.4,98.3,8,99.9c0,0.1-0.1,0.3-0.1,0.5c0,0,0,0.1,0,0.1l0,0l0,0l0,0
			c0,0,0,0,0,0c-2.3,11.4,5.6,22.3,17.7,28.9c5,2.7,10.7,4.8,16.7,5.9c6.8,1.2,14,1.2,21-0.4l0,0c7.5-2,11.9-5.5,14.4-8.8
			c2.2-2.8,3-5.4,3.4-6.7c-0.1,2.9-0.8,6.8-3.6,11c-2.7,4.2-7.5,8.5-15.5,12.2l0,0c-3.8,1.4-7.6,2.4-11.4,2.9
			c-5.3,0.7-10.4,0.6-15.3-0.3c-16.1-2.8-28.9-13.4-29.8-27.8c0-0.2,0-0.5,0-0.8v0.3c0,0.1,0,0.1,0,0.2v0.1c0,0.2,0,0.4,0,0.6l0,0.6
			c0,0.1,0,0.2,0,0.2c0,0.3,0,0.7,0,1c0,0.5,0,1,0,1.6c0,0.1,0,0.3,0,0.5s0,0.4,0,0.6c0,0,0,0,0,0v0.2c0,0.1,0,0.2,0,0.3v0.1
			c0,0.2,0,0.4,0,0.6c0,0.2,0,0.4,0,0.6c0,0,0,0,0,0c0,0.1,0,0.2,0,0.4s0,0.3,0,0.4s0,0.3,0,0.5c0,0.1,0,0.3,0,0.5c0,0,0,0,0,0.1
			c0,0.2,0,0.4,0,0.6c0,0.1,0,0.3,0,0.5v0l0,0c0,0.1,0,0.2,0,0.4c0,0,0,0.1,0,0.2v0l0,0.4c0,0,0,0,0,0s0,0,0,0
			c0.6,3.9,2.1,7.7,4.7,11.2C17.5,148.1,29.4,152.8,41.8,152.6z"/>
		<path class="st1" d="M126.3,12.6c0.1,0,0.2,0,0.3,0c2.8,0.4,5.5,1.4,8.1,3.1c2.2,1.5,4.4,3.5,6.3,6.1c0.2,0.3,0.5,0.7,0.7,1
			c1.3,1.8,2.3,3.7,3.3,5.7c2.5,5.5,3.9,11.8,4.2,18.3c0.1,2.6,0,5.2-0.2,7.8c-0.4,4.1-1.2,8-2.5,11.7c-1.1,3.1-2.4,6.1-4.1,8.8
			c-0.7,1.1-1.4,2.1-2.1,3.1c-1.1,1.4-2.3,2.7-3.5,3.9c-4.3,4.1-9.3,6-14.2,5.9l0,0c0,0-0.1,0-0.2,0l0.2,0h-0.2c0.1,0,0.2,0,0.3,0
			c6.1,1.1,12.8-0.7,18.7-5.2c1.5-1.2,3-2.5,4.4-4.1c0.8-1,1.7-2,2.5-3l0,0l0,0c2.2-2.9,4-6.2,5.4-9.6c1.8-4.4,3-9,3.6-13.7
			c1.1-8.9-0.2-17.8-3.9-25.1c-0.8-1.6-1.8-3.2-2.9-4.7c-1.5-2-3.1-3.6-4.8-5c-2.7-2.1-5.7-3.5-8.9-4.1c0,0-0.1,0-0.2,0l-0.9-0.1
			c-0.7-0.1-1.5-0.3-2.2-0.4c-0.4,0-0.7-0.1-1.1-0.1c-0.2,0-0.4,0-0.6,0c-1-0.1-2-0.2-3.1-0.3c-0.2,0-0.4,0-0.6,0
			c-0.3,0-0.6,0-0.9,0c0,0-0.1,0-0.2,0h-0.2c-0.2,0-0.5,0-0.8,0c-0.2,0-0.5,0-0.7,0c-0.4,0-0.8,0-1.2,0c0.4,0,0.7,0,1.1,0
			C125.6,12.6,126,12.6,126.3,12.6z"/>
	</g>
</g>
</svg>
