<?xml version="1.0" encoding="utf-8"?>
<!-- Generator: Adobe Illustrator 19.1.1, SVG Export Plug-In . SVG Version: 6.00 Build 0)  -->
<svg version="1.1" id="Layer_1" xmlns="http://www.w3.org/2000/svg" xmlns:xlink="http://www.w3.org/1999/xlink" x="0px" y="0px"
	 viewBox="0 0 500 500" style="enable-background:new 0 0 500 500;" xml:space="preserve">
<style type="text/css">
	.st0{opacity:0.1;}
	.st1{fill:#1BDBC4;}
</style>
<g>
	<g class="st0">
		<path class="st1" d="M160.8,126L160.8,126L160.8,126C160.8,125.9,160.8,125.9,160.8,126z"/>
		<path class="st1" d="M389.6,334.4c0-0.1,0.1-0.1,0.1-0.2c-0.2,0.3-0.5,0.5-0.7,0.8C389.2,334.8,389.4,334.6,389.6,334.4z"/>
		<path class="st1" d="M70.2,354c0.2,0.4,0.3,0.7,0.5,1.1c0.2,0.4,0.4,0.9,0.7,1.3c-0.7-1.4-1.3-2.9-2-4.3
			C69.7,352.8,69.9,353.4,70.2,354z"/>
		<path class="st1" d="M221.1,296c0.1,0.4,0.1,0.8,0.1,1.2c0-0.3-0.1-0.6-0.1-1L221.1,296z"/>
		<path class="st1" d="M71.9,357.5c0,0.1,0.1,0.1,0.1,0.2c-0.1-0.2-0.2-0.3-0.2-0.5C71.8,357.3,71.8,357.4,71.9,357.5z"/>
		<path class="st1" d="M424.5,126.5c0.9,1.2,1.7,2.5,2.4,3.8C426.2,129.2,425.4,127.9,424.5,126.5z"/>
	</g>
	<g>
		<path class="st1" d="M418.6,289.9c-0.1,0.2-0.2,0.4-0.4,0.7l0,0.1c-1.2,1.7-2.6,3.2-4.3,4.6c-3.4,2.7-7.9,4.8-13.4,6
			c-3.5,0.8-7.4,1.2-11.7,1.2c-27,0.3-61.4-14.7-85.5-35.7c-5.8-5.1-11.1-10.5-15.5-16.2c-0.3-0.3-0.5-0.7-0.8-1.1
			c-2.4-3.1-4.4-6.2-6-9.2l1-0.4c0.8-0.3,1.7-0.7,2.6-1.1c0.2-0.1,0.5-0.2,0.7-0.3c3.3-1.3,6-4.3,7.7-9.1c0.4-1,0.7-2.2,1-3.4
			c0-0.1,0-0.1,0.1-0.2c0.2-1.1,0.5-2.2,0.7-3.5c0.3-1.8,0.5-3.7,0.6-5.8c0.3-4.8,0.1-10.2-0.6-15.8c-0.7-6.3-1.9-13-3.6-19.9
			c-1-4.2-2.2-8.4-3.6-12.7c-5.5-17.5-13.6-35.4-23.1-50.3c-2.1-3.2-4.2-6.2-6.3-9.1c-0.5-0.8-1.1-1.5-1.6-2.2
			c-3.9-5-7.8-9-11.4-12.1c-5.3-4.5-10.1-7-14.4-7.6c-1.4-0.2-2.8-0.1-4,0.1h-0.1c-1.1,0.4-2.2,0.9-3.3,1.3c0.2-0.1,0.3-0.2,0.5-0.3
			c0.1-0.1,0.3-0.1,0.4-0.2l-0.4,0.2c-2,0.8-4,1.6-5.9,2.5l-1.1,0.5c0,0,0,0,0,0h-0.1c-3.8,1.7-8.7,4.1-12.5,5.9
			c0.6-0.3,1.2-0.4,1.9-0.5c1.1-0.1,2.3,0.1,3.6,0.5c3.6,1.1,8,4.2,13.1,9.3c3.6,3.5,7.4,8,11.5,13.4c0.2,0.3,0.4,0.7,0.7,1
			c2.6,3.5,5.2,7.2,7.7,11c8.2,12.7,16,27.3,22.4,41.6c1.9,4.4,3.8,8.9,5.5,13.3c2.9,7.5,5.3,14.6,7,21.3c1.5,5.6,2.6,10.8,3.1,15.5
			c0.2,1.9,0.4,3.7,0.4,5.4c0.1,2.4,0,4.4-0.3,6.2c-0.6,4-2,6.5-4.2,7.5c0,0,0,0-0.1,0c-0.1,0.1-0.2,0.1-0.3,0.2
			c2,3.8,4.5,7.8,7.7,11.9v0l0,0l0,0v0c0.4,0.5,0.8,1,1.2,1.5c22.6,29,64.8,55.6,95.3,59.7c3.1,0.4,6,0.6,8.6,0.5
			c4.7-0.1,8.6-1,11.7-2.5c1.9-1,3.6-2.2,4.9-3.7c0.3-0.3,0.5-0.7,0.8-1c0,0,0.1-0.1,0.1-0.1l1.1-1.5c0,0,0.1-0.1,0.1-0.1
			c0.2-0.2,0.3-0.5,0.4-0.7c0,0,0.1,0,0.1-0.1c0.9-1.3,1.8-2.7,2.8-4.1c1.1-1.7,2.3-3.6,3.4-5.4l1-1.5c0.1-0.3,0.3-0.5,0.4-0.8
			c0.2-0.3,0.3-0.5,0.5-0.8l1.2-2.2c0.4-0.6,0.7-1.2,1.1-1.8c0.4-0.6,0.7-1.2,1.1-1.8c0.1-0.2,0.2-0.4,0.3-0.5
			c-0.1,0.1-0.2,0.2-0.2,0.4c-0.1,0.2-0.3,0.5-0.4,0.7l0.8-1.4c0,0,0,0,0,0c-0.3,0.6-0.7,1.2-1,1.8
			C418.9,289.3,418.7,289.6,418.6,289.9z"/>
		<path class="st1" d="M157.7,125.6L157.7,125.6L157.7,125.6C157.7,125.6,157.7,125.6,157.7,125.6z"/>
		<path class="st1" d="M385.5,335c-1.2,1-2.7,1.5-4.7,1.7c-2.4,0.2-5.3-0.2-8.9-1.2c-1.8-0.5-3.7-1.2-5.8-2
			c-11.4-4.5-25.3-13.2-39.2-24.1c-8.1-6.3-16.2-13.4-23.8-20.8c-9.2-8.9-17.8-18.3-24.6-27.5c-3.6-4.8-6.5-9.2-8.8-13.2
			c-0.3-0.4-0.5-0.9-0.8-1.4c0,0,0,0,0-0.1c-0.9,0.6-1.9,1.2-2.7,1.6l-0.2,0.1c-0.5,0.3-1.1,0.8-1.8,1.1c-0.1,0.1-0.2,0.1-0.3,0.2
			c0.4-0.3,0.7-0.9,0.7-1.9c0-0.9-0.2-2.1-0.6-3.5c-0.4-1.4-0.9-3-1.6-5c-0.5-1.4-1.2-2.9-1.9-4.6c-1.9-4.3-4.3-9.3-7.1-14.7
			c-3.8-7.4-8.4-15.6-13.5-24.2c-9.3-15.7-20.3-32.6-30.8-47.3c-2.6-3.6-5.1-7-7.6-10.4c-2.7-3.6-5.2-6.7-7.5-9.5
			c-5.4-6.7-9.8-11.3-12.9-13.9c-1.1-0.9-2.1-1.5-2.8-1.9c-0.7-0.3-1.2-0.4-1.6-0.3c0,0-0.1,0-0.1,0c-0.2,0.1-0.3,0.2-0.5,0.3
			c0,0,0.1-0.1,0.1-0.1c-0.2,0.2-0.5,0.3-0.7,0.5c-1.8,1.1-3.6,2.3-5.2,3.4c-0.2,0.2-0.4,0.3-0.6,0.4l-0.2,0.2
			c-1.9,1.3-4.1,2.9-6.3,4.4c0,0,0,0-0.1,0c-0.2,0.1-0.4,0.3-0.6,0.4c-0.2,0.2-0.4,0.3-0.6,0.4c-0.8,0.5-1.5,1-2.2,1.5
			c-0.2,0.2-0.4,0.3-0.7,0.5c-0.1,0.1-0.3,0.2-0.4,0.3c-0.1,0.1-0.1,0.1-0.2,0.2c0,0-0.1,0-0.1,0.1c-0.1,0.1-0.1,0.1-0.2,0.1
			c-0.1,0.1-0.2,0.2-0.3,0.2l-0.1,0.1c0.1,0.1,0.5,0.6,1.4,1.7c0.6,0.9,1.5,2,2.6,3.4c3.1,4,7.8,10.3,14.2,18.7
			c1,1.4,2.1,2.8,3.2,4.2c6,7.9,12.6,16.7,19.3,25.7c4.3,5.7,8.6,11.5,12.9,17.2c9.1,12.1,17.8,23.9,25.1,33.8
			c3.9,5.2,7.4,10,10.3,13.9c1.1,1.4,2,2.7,2.8,3.9c1.2,1.6,2.2,2.9,3,4c1.7,2.4,2.5,3.6,2.5,3.6c-1.3,1-2.9,2.2-4.2,3.2
			c-0.2,0.2-0.4,0.3-0.6,0.5c0,0,0,0-0.1,0.1c0,0-0.1,0.1-0.1,0.1l0,0c1.5,1.8,3.2,3.8,5,6.1c2.2,2.8,4.6,5.9,7.2,9.3c0,0,0,0,0,0
			c2.8,3.7,5.6,7.6,8.5,11.6c10.2,14.2,20.8,30.2,30.1,45.1c5.2,8.3,9.9,16.3,14,23.4c3.2,5.6,5.9,10.8,8.1,15.2
			c0.2-0.1,0.3-0.2,0.5-0.3c-0.2,0.1-0.3,0.2-0.5,0.3c0.8,1.6,1.4,3,2,4.3c1,2.2,1.7,4.1,2.2,5.6c0.7,2.2,0.8,3.6,0.4,4.2
			c0,0.1-0.1,0.1-0.1,0.1c0.6-0.4,1.1-0.7,1.6-1.1l1.2-0.8l0.1-0.1c4-2.8,9-6.4,13.2-9.5c0.8-0.6,1.5-1.1,2.2-1.6c0,0,0,0-0.1,0
			c-0.3-0.2-1.1-1-2.3-2.4c-1-1.2-2.4-2.8-4-4.7c-0.9-1.1-1.9-2.3-3-3.7c-0.2,0.1-0.3,0.2-0.5,0.4c0.2-0.1,0.3-0.2,0.5-0.4
			c-3.4-4.2-7.6-9.4-12.2-15.2c-9.6-12.2-21.3-27.2-32.8-42.1c-0.1-0.1-0.1-0.2-0.2-0.3c-8.4-10.9-16.7-21.8-24.1-31.6c0,0,0,0,0,0
			c-1-1.3-1.9-2.6-2.8-3.8c-3.8-5-6.7-9-9.1-12.2c0.7-0.5,1.3-1,2-1.5l1.9-1.4l1.1-0.8c0.1,0,0.1,0,0.1-0.1l0.3-0.2
			c0.3-0.2,0.5-0.3,0.8-0.5c0,0,0,0,0.1,0c0.5-0.3,1.1-0.7,1.6-1.1c2.7,4.5,6.3,9.7,10.8,15.7c2.5,3.4,5.2,6.8,8.1,10.3
			c15.3,18.7,34.6,38.6,51.5,53.3c7.6,6.6,14.7,12.2,20.8,16.2c1.6,1.1,3.1,1.9,4.5,2.7c2.7,1.5,4.9,2.5,6.7,3
			c1.8,0.5,3.2,0.5,4.1-0.1c0.1,0,0.1-0.1,0.2-0.1c0.1-0.1,0.1-0.1,0.2-0.2l0.1-0.1l0.1-0.1l2.1-2l0.1-0.1c0,0,0.1-0.1,0.1-0.1
			c0.4-0.3,0.7-0.7,1.1-1.1c1.5-1.4,3-3,4.6-4.6c0.3-0.4,0.7-0.7,1-1.1c0.9-0.9,1.7-1.8,2.6-2.7c0,0,0.1-0.1,0.1-0.1
			c0,0,0-0.1,0.1-0.1l0.2-0.2c0.7-0.8,1.5-1.7,2.3-2.6c-0.1,0.1-0.2,0.2-0.2,0.3c0.1-0.1,0.1-0.2,0.2-0.2c0.2-0.2,0.4-0.5,0.6-0.7
			c0.1,0,0.1-0.1,0.2-0.2c0.1-0.1,0.3-0.3,0.4-0.5c-0.1,0.1-0.2,0.2-0.3,0.3C385.6,335,385.6,335,385.5,335z"/>
		<path class="st1" d="M386.5,334c0-0.1,0.1-0.1,0.1-0.2c-0.2,0.3-0.5,0.5-0.7,0.8C386.2,334.4,386.3,334.2,386.5,334z"/>
		<path class="st1" d="M67.1,353.6c0.2,0.4,0.3,0.7,0.5,1.1c0.2,0.4,0.4,0.9,0.7,1.3c-0.7-1.4-1.3-2.9-2-4.3
			C66.6,352.4,66.8,353,67.1,353.6z"/>
		<path class="st1" d="M218,295.7c0.1,0.4,0.1,0.8,0.1,1.2c0-0.3-0.1-0.6-0.1-1L218,295.7z"/>
		<path class="st1" d="M444.1,192.6c0-0.1,0-0.1,0-0.2l0-0.2c0-0.3,0-0.7-0.1-1c-0.1-0.8-0.1-1.6-0.2-2.4c-0.1-0.8-0.1-1.6-0.2-2.3
			c0,0,0-0.1,0-0.1c0,0,0,0.1,0,0.1c0,0.5,0.1,0.9,0.1,1.4c0.2,2.3,0.3,4.3,0.4,6c-0.1-1.7-0.2-3.7-0.4-6c1,17.6-5.6,41.9-40.6,60.6
			c0,0.5,0.1,1,0.1,1.4c-0.1-0.5-0.1-1-0.2-1.4c-5.7,2.8-11.6,5-17.6,6.6c-8.8,2.3-17.8,3.5-26.7,3.5c-24,0-47-8.3-61.7-23.8
			c0.6-0.2,1.3-0.3,1.9-0.4l0.9-0.2l0,0c0,0,0,0,0,0c0.2,0,0.4-0.1,0.6-0.1c17,14.1,41.9,19,66.6,13.9c7.2-1.5,14.4-3.8,21.4-7
			c3.8-1.8,7.6-3.8,11.2-6.1c32.8-20.6,46.6-55.9,35-84.2c-1-2.2-1.8-4-2.6-5.7c-0.1-0.1-0.1-0.3-0.2-0.5c-0.7-1.5-1.4-2.9-2.1-4.2
			c-0.8-1.6-1.6-3.1-2.6-4.8c-0.4-0.7-0.8-1.3-1.2-2c-0.7-1.1-1.4-2.2-2.2-3.4c5.1,8.8,7.7,18.6,7.9,28.7c0.1,7.8-1.1,15.8-3.7,23.6
			c-5.4,16.4-16.6,32.2-32.9,44.1c-3,2.2-6.1,4.2-9.3,6.1c-5.8,3.4-11.8,6-18,8c-23.4,7.6-47.6,5.2-65.2-6.8h-0.1
			c0.7-0.1,1.5-0.3,2.2-0.4c17.1,8.7,38.7,8.2,58.9-1.4c5-2.4,9.9-5.3,14.6-8.8c2.6-1.9,5.2-4,7.6-6.3c8.9-8,16-17.4,21.2-27.4
			c12.6-24.2,14.2-51.9,2.8-72.9c-1.4-2.6-2.9-5-4.7-7.4c-3.1-4.2-6.7-7.8-10.7-10.8c-3.5-2.6-8.4-5.7-12-8.1c0,0,0,0,0,0
			c0,0,0,0-0.1-0.1c-1.3-0.8-2.6-1.5-3.8-2.2c-0.5-0.3-1.1-0.6-1.6-0.9c-0.2-0.1-0.4-0.2-0.6-0.3c-0.8-0.4-1.7-0.9-2.5-1.3l-0.3-0.2
			c-0.1,0-0.2-0.1-0.2-0.1c-0.1,0-0.2-0.1-0.3-0.1c-0.3-0.1-0.5-0.2-0.8-0.4c0,0,0.1,0,0.1,0.1c0,0-0.1,0-0.1-0.1
			c-0.2-0.1-0.5-0.2-0.7-0.4c0.1,0,0.1,0.1,0.2,0.1c-0.2-0.1-0.4-0.2-0.7-0.3c0,0-0.1,0-0.1,0c-0.6-0.3-1.3-0.6-1.9-0.8c0,0,0,0,0,0
			c1.2,0.5,2.3,1,3.5,1.6c0.6,0.3,1.2,0.6,1.9,1c0,0,0,0,0,0c5.2,2.9,10.1,6.8,14.3,11.7c0.9,1,1.7,1.9,2.5,3
			c17.3,23,17.4,58.1,2.5,87.5c-4.3,8.4-9.8,16.4-16.5,23.5h0l0,0c-2.2,2.3-4.4,4.4-6.7,6.4c-4,3.5-8.1,6.4-12.4,8.9
			c-17.4,10.2-36.5,12.3-52.6,6.1c6.1-1.7,11.8-5.6,16.6-11.7c1.9-2.3,3.7-5,5.3-8c1.1-2,2.1-4.2,3.1-6.5c-0.1,0-0.2,0-0.3,0
			c0.1,0,0.2,0,0.3-0.1c2.2-5.3,3.9-11,5-17c1.3-6.8,2-14,2.1-21.2c0-4.7-0.1-9.4-0.6-14.2c-1.7-18.7-7.2-37.4-15.9-52.4
			c-1.8-3.2-3.8-6.2-5.9-9c-0.7-0.9-1.4-1.8-2.2-2.7c-4.1-4.9-8.3-8.8-12.7-11.7c-5.4-3.6-11-5.5-16.5-5.9c-1.4-0.1-2.8-0.1-4.2,0.1
			c-0.4,0-0.9,0.1-1.3,0.1l-9.2,1.6l-0.3,0.1c-0.2,0-0.4,0.1-0.5,0.1c-0.2,0-0.4,0.1-0.6,0.1c-3.5,0.8-7.8,1.8-11.3,2.6
			c1.5-0.3,3.1-0.4,4.7-0.3c5.1,0.2,10.5,2.3,15.9,6.2c3.9,2.7,7.8,6.4,11.6,11c1,1.1,1.9,2.3,2.8,3.6c1.4,1.8,2.7,3.8,4,5.7
			c10.4,15.9,17.8,36.3,21.2,56.5c0.8,4.5,1.4,9.1,1.7,13.6c0.5,6.9,0.6,13.6,0.1,20c-0.4,5.7-1.3,11.2-2.7,16.2v0
			c-0.6,2.2-1.3,4.3-2.1,6.3c-1.1,2.9-2.4,5.4-3.8,7.7c-3.7,5.9-8.5,9.6-13.8,11.1l-0.1,0c-0.1,0-0.2,0-0.3,0.1
			c-0.5,0.1-1.1,0.3-1.7,0.5c0,0-0.1,0-0.1,0c11.7,14.2,29.8,24,49.9,28.2c10.5,2.2,21.6,2.9,32.5,1.9c9.2-0.9,18.2-2.9,26.8-6.2
			c24.3-10.2,37.6-25.5,40.6-46.5c0-0.2,0.1-0.5,0.1-0.7c0-0.1,0-0.2,0-0.3c0-1.1,0.1-2.3,0.1-3.5c0-0.3,0-0.6,0-1v-0.2
			c0.1-2,0.1-3.7,0.2-5.2c0,1.6-0.1,3.3-0.2,5.4c0,0,0,0,0-0.1c0.1-2,0.2-3.9,0.2-5.7C444.5,199,444.3,195.5,444.1,192.6z"/>
		<path class="st1" d="M303,382.3c-0.8-4.6-2-9.8-3.7-15.3c-2-6.7-4.7-14-7.7-21.5c-2.3-5.6-4.9-11.3-7.6-16.9
			c-5.6-11.6-12-23.3-18.8-33.8c-2.8-4.3-5.6-8.4-8.4-12.3c-0.7-1-1.4-1.9-2.1-2.8c-3.9-5.3-7.7-9.6-11-13.1l-0.6-0.7l0.3-0.3
			c-0.9,0.9-2.8,0.7-5.7-0.6c-1.4-0.6-3-1.5-4.9-2.7c-1.3-0.8-2.7-1.8-4.2-2.9h0c-5.4-3.9-11.6-9.1-18.4-15.2
			c-17.5-15.9-38.2-37.9-54.2-58c-2.2-2.7-4.2-5.4-6.2-8c-6-8-10.5-14.7-13.3-19.9c-1.3-2.4-2.3-4.5-3-6.3c-1-2.7-1.2-4.5-0.5-5.5
			c0-0.1,0-0.1,0.1-0.1c0.1-0.1,0.2-0.2,0.3-0.3c-0.2,0.1-0.3,0.3-0.5,0.4l-2.3,2.2l-3,2.9c-0.4,0.4-0.8,0.8-1.2,1.2c0,0,0,0-0.1,0
			c-0.9,0.9-1.7,1.7-2.5,2.6c-1.7,1.8-3.5,3.6-5.1,5.3c-0.4,0.4-0.8,0.9-1.2,1.3c-0.1,0.1-0.3,0.3-0.4,0.5c-0.1,0.1-0.2,0.2-0.2,0.3
			c-0.1,0-0.1,0.1-0.1,0.1c-1.6,2.2-1.6,5.8,0,10.6c0.9,2.6,2.2,5.6,4,9c2.5,4.4,5.7,9.5,10,15.1c5.5,7.4,12,14.9,19.2,22.3
			c10.3,10.7,21.7,21,32.9,29.8c12.2,9.6,24.2,17.3,34.1,21.7h0c2,0.9,3.8,1.6,5.6,2.2c2.5,0.8,4.7,1.3,6.6,1.5
			c3.2,0.3,5.6-0.3,7-1.8l0,0c0.1-0.1,0.2-0.2,0.2-0.2c0.1-0.1,0.3-0.3,0.4-0.4l1-1l1.1-1.1c3,2.9,6.1,6.4,9.3,10.5
			c0.4,0.5,0.8,1.1,1.3,1.7c2.2,2.9,4.3,6.1,6.5,9.3c9.4,14.6,17.6,32.1,23.4,49.2c1.4,4.2,2.7,8.4,3.9,12.6
			c1.9,7.1,3.4,14,4.3,20.4c0.8,5.5,1.1,10.8,1,15.5c0,1.9-0.2,3.7-0.4,5.4c-0.3,2.8-0.8,5.2-1.5,7.3c-1.3,4-3.4,6.7-5.9,8.2
			c-0.1,0-0.2,0.1-0.3,0.1c-0.5,0.2-1.1,0.4-1.6,0.6c0.3-0.1,0.6-0.2,1-0.3l3.8-1.6h0c0,0,0,0,0,0c4.4-2,9.9-4.7,14.5-6.9
			c0.8-0.4,1.5-0.7,2.2-1.1c0.2-0.1,0.4-0.3,0.7-0.4c1.5-1.2,2.5-3.3,2.8-6.5c0.2-1.8,0.2-4,0-6.6
			C303.5,385.8,303.3,384.1,303,382.3z"/>
		<path class="st1" d="M267.3,346.6c-3.7-19.4-11.1-39.1-21-54.7c-1.6-2.4-3.2-4.8-4.8-7c-0.1,0-0.2,0-0.2,0.1c-0.1,0-0.2,0-0.2,0.1
			c0.2,0,0.3-0.1,0.5-0.1c-0.8-1.1-1.7-2.2-2.5-3.2c-1.8-2.2-3.7-4.2-5.5-6c-0.3,0.4-0.6,0.7-0.9,1c0,0-0.1,0.1-0.1,0.1c0,0,0,0,0,0
			l0,0c0,0.1-0.1,0.1-0.1,0.2c0,0,0,0.1-0.1,0.1c0,0-0.1,0.1-0.1,0.1c0,0-0.1,0.1-0.1,0.1c0,0,0,0,0,0c-0.5,0.7-1.1,1.4-1.7,2.1
			c1.1,1.1,2.1,2.3,3.2,3.6c0.8,1,1.7,2,2.5,3.1c0.2,0,0.3,0,0.5-0.1c-0.1,0-0.1,0-0.2,0c-0.1,0-0.2,0-0.3,0.1
			c1.8,2.4,3.5,5,5.2,7.7c9.3,15.4,15.3,34.9,17.4,54.3c0.5,4.3,0.7,8.7,0.8,13c0.1,7.4-0.4,14.7-1.6,21.7c-1,6-2.6,11.8-4.6,17
			c0.2,0,0.4-0.1,0.6-0.1c-0.2,0-0.4,0.1-0.6,0.1c-0.9,2.2-1.8,4.3-2.8,6.2c-1.6,3.2-3.5,6.1-5.4,8.6c-4.8,6-10.4,9.8-16.5,11.3
			l-0.6,0.1c-1.1,0.2-2.2,0.4-3.2,0.5c0.6-0.1,1.3-0.1,1.9-0.2c0,0,0,0,0,0l0.1,0l4.7-0.9c0.1,0,0.2-0.1,0.4-0.1c0.1,0,0.1,0,0.2,0
			c0.1,0,0.2,0,0.3-0.1c0.6-0.1,1.2-0.2,1.8-0.4c1.6-0.3,3.3-0.7,4.9-1c2-0.4,3.9-0.9,5.7-1.4c0.4-0.1,0.8-0.2,1.1-0.3
			c0.7-0.2,1.4-0.4,2-0.6c0.2,0,0.3-0.1,0.5-0.1c0.7-0.2,1.5-0.4,2.2-0.6c0.2-0.1,0.4-0.2,0.7-0.2c0,0,0.1,0,0.1,0
			c4.3-1.7,8.1-5,11.1-10.1c1.4-2.4,2.7-5.1,3.8-8.2c0.6-1.8,1.2-3.7,1.7-5.8c-0.2,0.1-0.4,0.1-0.6,0.2c0.2-0.1,0.4-0.1,0.6-0.2
			c1.2-5.1,2-10.6,2.3-16.3c0.3-6.7,0.1-13.8-0.7-21.1C268.8,354.9,268.1,350.8,267.3,346.6z"/>
		<path class="st1" d="M233.3,401.5c3.3-5.6,5.9-11.7,8-18.2c2.6-8.2,4.3-16.8,5-25.6c0.5-6.1,0.5-12.2,0.1-18.3
			c-0.9-13.6-4.1-26.8-9.5-38.3c-1.9-4.2-4.1-8.1-6.6-11.8c-0.6-0.9-1.2-1.7-1.8-2.5c-0.6-0.9-1.3-1.7-2-2.5
			c0.2-0.2,0.4-0.5,0.5-0.8l0.3-0.5c-1.5,2-3.6,3.6-6.3,4.7c-1.4,0.5-2.9,1-4.5,1.3c-0.2,0-0.3,0-0.4,0.1c-1.7,0.2-3.5,0.4-5.5,0.3
			c-2.6,0-5.4-0.3-8.5-0.8c-30.4-5.2-73-33.4-95.3-62.9c-0.8-1.1-1.5-2.1-2.3-3.1c-3.5-5-6.1-9.7-7.9-14c-3.6-8.6-3.9-15.6-1.2-20.4
			c0.1-0.2,0.2-0.4,0.4-0.6l-3.8,5.3l-0.2,0.3c0,0-0.1,0.1-0.1,0.1c0,0.1-0.1,0.1-0.2,0.2c-0.6,1-1.3,2-2,3
			c-0.9,1.3-1.8,2.8-2.8,4.2c-1,1.6-1.9,3.2-2.9,4.8c-0.1,0.1-0.1,0.2-0.2,0.2l-0.1,0.3c0,0.1-0.1,0.1-0.1,0.2
			c0,0.1-0.1,0.2-0.1,0.2c0,0,0,0.1-0.1,0.1c-0.1,0.1-0.1,0.2-0.2,0.3c0,0,0,0,0,0c-0.2,0.3-0.3,0.7-0.5,1
			c-3.9,7.8-2.6,18.5,4.4,30.8c1.6,2.8,3.5,5.6,5.6,8.5c2.6,3.4,5.4,6.8,8.6,10c23.9,24.9,62.6,44.1,92.2,44.6
			c4.3,0.1,8.2-0.2,11.7-0.9c5.4-1.1,9.7-3,13-5.6c0,0,0.1-0.1,0.1-0.1c7.4,27.2-6.5,59.4-36.7,78.9v0c-3.7,2.4-7.6,4.5-11.5,6.4
			c-6.4,3-13,5.3-19.6,6.9c-30,7-60.6-1-77-22.9c-1.7-2.3-3.3-4.8-4.6-7.3c0.6,1.3,1.3,2.5,1.8,3.6c1.4,2.6,2.5,4.6,3.8,6.7
			c1.7,2.7,3.6,5.4,6.5,9.6c0,0,0,0.1,0.1,0.1c0.1,0.1,0.1,0.1,0.2,0.2c0.6,0.8,1.2,1.6,1.9,2.4c0.4,0.5,0.9,1,1.3,1.5
			c17.8,20,48.2,25.1,76.8,14.6c5.4-2,10.8-4.5,16-7.6c3.1-1.9,6.2-3.9,9.2-6.2c-0.1-0.1-0.2-0.2-0.3-0.4c1.5,0.2,2.8-2.3,4-3.2
			l2.8-2.4c0.3-0.3,0.6-0.5,0.9-0.8c0.5-0.4,1-0.9,1.4-1.4c0.1-0.1,0.2-0.2,0.3-0.3c0.4-0.4,0.9-0.9,1.3-1.3l0.4-0.4
			c0.3-0.3,0.7-0.7,1-1c0.2-0.2,0.3-0.4,0.5-0.5c0.3-0.3,0.5-0.6,0.8-0.9c0.2-0.2,0.3-0.4,0.5-0.6c0.2-0.3,0.5-0.5,0.8-0.9
			c0.2-0.2,0.3-0.4,0.5-0.6c0.2-0.3,0.5-0.6,0.7-0.9c0.2-0.2,0.3-0.4,0.5-0.6c0.1-0.1,0.1-0.1,0.2-0.2c0.2-0.2,0.4-0.4,0.5-0.6
			c0.1-0.2,0.3-0.4,0.4-0.6c0.3-0.3,0.5-0.6,0.8-1c0.1-0.2,0.3-0.3,0.4-0.5c0.3-0.4,0.6-0.8,0.9-1.2c0.1-0.1,0.1-0.2,0.2-0.2
			c0.3-0.4,0.6-0.9,0.9-1.3c0.1-0.1,0.1-0.1,0.2-0.2c0.1-0.1,0.2-0.3,0.3-0.4c0.1-0.1,0.2-0.3,0.3-0.4c0,0,0.1-0.1,0.1-0.2
			c0.1-0.1,0.1-0.2,0.2-0.3c0.1-0.1,0.1-0.1,0.1-0.2c0.1-0.2,0.3-0.4,0.4-0.6c0.2-0.2,0.3-0.5,0.5-0.7c0-0.1,0.1-0.1,0.1-0.2
			c0,0,0,0,0,0c0-0.1,0.1-0.2,0.2-0.3c0.1-0.1,0.1-0.2,0.2-0.3c0.2-0.3,0.4-0.6,0.6-0.9c0-0.1,0.1-0.2,0.1-0.2c0,0,0,0,0-0.1
			c0.1-0.1,0.1-0.2,0.2-0.3c0.2-0.3,0.4-0.6,0.5-0.9c0.1-0.2,0.2-0.4,0.4-0.6c0-0.1,0.1-0.1,0.1-0.2c0,0,0.1-0.1,0.1-0.1
			c0.1-0.1,0.1-0.2,0.2-0.3c0-0.1,0.1-0.2,0.1-0.3c0.1-0.2,0.2-0.4,0.3-0.6c0.1-0.1,0.1-0.2,0.2-0.3c0-0.1,0.1-0.2,0.1-0.2
			c0.1-0.1,0.2-0.3,0.2-0.4c0,0,0-0.1,0.1-0.1c0.1-0.2,0.2-0.4,0.3-0.5c0-0.1,0.1-0.2,0.1-0.2c0.1-0.2,0.2-0.4,0.3-0.6
			c0.1-0.1,0.1-0.3,0.2-0.4c0-0.1,0-0.1,0.1-0.2c0,0,0-0.1,0.1-0.1c0-0.1,0.1-0.1,0.1-0.2c0.1-0.2,0.2-0.5,0.3-0.7
			c0.1-0.2,0.2-0.5,0.3-0.7c0,0,0,0,0-0.1c0-0.1,0.1-0.1,0.1-0.2c0.1-0.2,0.2-0.4,0.3-0.6c0-0.1,0.1-0.2,0.1-0.3
			c0-0.2,0.1-0.3,0.2-0.5c0,0,0-0.1,0-0.1c0-0.1,0-0.1,0.1-0.1c0-0.1,0.1-0.2,0.1-0.2c0.1-0.1,0.1-0.2,0.1-0.3
			c0.1-0.3,0.2-0.5,0.3-0.8c0-0.1,0.1-0.2,0.1-0.3c0.1-0.1,0.1-0.2,0.1-0.3c0,0,0.1-0.1,0.1-0.1c0,0,0-0.1,0-0.1
			c0-0.1,0.1-0.2,0.1-0.2c0.1-0.1,0.1-0.3,0.1-0.4c0,0,0-0.1,0-0.1c0.1-0.1,0.1-0.2,0.2-0.4c0-0.1,0.1-0.2,0.1-0.4
			c0.1-0.2,0.2-0.4,0.2-0.6c0.1-0.1,0.1-0.2,0.1-0.4c0-0.1,0.1-0.2,0.1-0.3c0-0.1,0-0.2,0.1-0.3c0.1-0.2,0.2-0.5,0.3-0.7
			c0.1-0.2,0.1-0.4,0.2-0.6c0,0,0,0,0-0.1c0.1-0.4,0.3-0.9,0.4-1.3c0.1-0.2,0.1-0.4,0.2-0.6c0-0.1,0.1-0.1,0.1-0.1
			c0.1-0.4,0.2-0.7,0.3-1.1c0-0.1,0.1-0.2,0.1-0.3c0-0.1,0-0.2,0.1-0.3c0.1-0.4,0.3-0.9,0.4-1.4c0.1-0.2,0.1-0.4,0.2-0.7
			c0.2-0.6,0.3-1.1,0.4-1.7c0.1-0.3,0.2-0.6,0.2-0.9c0.2-0.5,0.3-1.1,0.3-1.6c0-0.2,0.1-0.5,0.1-0.7c0,0,0-0.1,0-0.1
			c0-0.3,0.1-0.5,0.1-0.8c0.1-0.5,0.2-1.1,0.3-1.7c0-0.1,0-0.2,0-0.3c0.1-0.3,0.1-0.6,0.1-1c0-0.1,0-0.2,0-0.2c0-0.1,0-0.2,0-0.3
			c0-0.2,0.1-0.5,0.1-0.8l0.1-1.1c0-0.1,0-0.2,0-0.3v0c0-0.1,0-0.2,0-0.3c0-0.1,0-0.1,0-0.2v-0.3c0-0.1,0-0.2,0-0.4
			c0-0.2,0-0.3,0-0.5c0-0.1,0-0.2,0-0.3v-0.3c0-0.2,0-0.3,0-0.5v-0.2c0-0.1,0-0.2,0-0.3v-0.4v-0.1c0-0.1,0-0.3,0-0.4v-0.4
			c0,0,0,0,0,0v-0.2c0-0.2,0-0.4,0-0.6V314c0-0.1,0-0.2,0-0.4v-1.1c0-0.1,0-0.2,0-0.2V312c0-0.2,0-0.4,0-0.6v-0.2c0-0.1,0-0.1,0-0.1
			c0,0,0,0,0,0c0,0,0-0.1,0-0.1v-0.3c0-0.1,0-0.1,0-0.2c0,0,0,0,0,0c0-0.1,0-0.3,0-0.4c0-0.2,0-0.3,0-0.5c0-0.1,0-0.3,0-0.4v-0.1
			c0-0.1,0-0.1,0-0.2v-0.2c0,0,0-0.1,0-0.2c0-0.1,0-0.1,0-0.2c0,0,0,0,0-0.1c0-0.2,0-0.4-0.1-0.5v-0.2c0-0.2-0.1-0.4-0.1-0.6v-0.2
			c0-0.1,0-0.2-0.1-0.3c0-0.1,0-0.2,0-0.3c0-0.1,0-0.1,0-0.2c0-0.2,0-0.4-0.1-0.5c0,0,0-0.1,0-0.1c0-0.2-0.1-0.4-0.1-0.7
			c0,0,0,0,0,0c0-0.1,0-0.1,0-0.2c0,0,0,0,0-0.1c0-0.1-0.1-0.3-0.1-0.5c0-0.3-0.1-0.5-0.2-0.8c0-0.1,0-0.2,0-0.3
			c0-0.1,0-0.2-0.1-0.2c0-0.1,0-0.2,0-0.3c-0.1-0.2-0.1-0.4-0.2-0.7c0-0.1,0-0.2-0.1-0.4c0-0.1-0.1-0.2-0.1-0.3
			c0-0.1-0.1-0.3-0.1-0.4c0-0.1,0-0.2-0.1-0.3c0-0.1,0-0.2,0-0.2c-0.1-0.2-0.1-0.4-0.2-0.6c-0.1-0.2-0.1-0.5-0.2-0.7
			c0,0,0-0.1,0-0.1c0-0.1,0-0.2-0.1-0.3c0,0,0-0.1,0-0.1c0,0,0-0.1,0-0.1l0,0c0,0,0-0.1,0-0.1c-0.1-0.4-0.2-0.7-0.3-1.1l0.3-0.6
			l1.1-2.2c9.9,21.1,7.8,48.2-4.7,71.8c-5,9.5-11.7,18.4-20,26.1c0,0,0.1,0,0.1,0.1c0,0-0.1,0-0.1-0.1c-2.4,2.2-4.9,4.2-7.4,6.1
			c-4.4,3.3-8.8,6.1-13.2,8.4c-21.9,11.5-44.5,11.5-64.6-0.4c-0.1-0.1-0.3-0.2-0.4-0.2c0.2,0.1,0.4,0.2,0.5,0.4
			c0.6,0.4,1.2,0.8,1.7,1.2c0.2,0.2,0.5,0.3,0.8,0.5c0.1,0.1,0.3,0.2,0.4,0.2c0.2,0.1,0.5,0.3,0.7,0.4c1,0.6,1.9,1.2,2.8,1.7
			c0.1,0.1,0.3,0.2,0.4,0.2c1,0.6,2.2,1.3,3.5,1.9c0,0,0.1,0,0.1,0.1c0.9,0.5,1.8,1,2.7,1.4c1.7,0.9,3.3,1.6,5.3,2.5
			c1.1,0.5,2.3,1,3.7,1.6c0.1,0,0.2,0.1,0.3,0.1c-0.1,0-0.1,0-0.2-0.1c-1.1-0.5-2.1-1-3.2-1.5c2.5,1.1,5.1,2.1,7.7,3.2
			c15.3,4.8,32.8,2.2,48.8-7.5c4.2-2.6,8.4-5.6,12.3-9.2c2.2-1.9,4.3-4,6.3-6.3c-0.1,0-0.1-0.1-0.2-0.1c0.1,0,0.1,0.1,0.2,0.1
			c6.5-7.1,11.9-15.1,16-23.6c7-14.4,10.5-30.2,10.3-45.2c-0.1-3.6-0.3-7.2-0.8-10.7c-1.3-9.3-4.2-18-8.6-25.8c0,0,0,0,0,0
			c0.3-0.5,0.5-0.9,0.8-1.4c0.1,0,0.1-0.1,0.1-0.1c0.1-0.2,0.3-0.4,0.4-0.6l1-1.6c1.7,2.3,3.2,4.8,4.6,7.3c4,7.2,6.8,15.3,8.5,23.8
			c0.3,1.5,0.5,2.9,0.8,4.4c1.5,9.7,1.6,19.8,0.3,29.9c-1.2,9.6-3.7,19.2-7.4,28.2c-2.8,6.9-6.4,13.5-10.7,19.5
			c-1.7,2.3-3.4,4.5-5.2,6.5c-3.1,3.5-6.3,6.5-9.6,9.1c-11.4,8.9-24,12.7-36.2,11.4c2.3,0.3,4.7,0.6,6.9,0.8h0.1
			c0.2,0,0.4,0.1,0.7,0.1c0.5,0.1,1,0.1,1.5,0.2c0.3,0,0.5,0,0.8,0c0.3,0,0.7,0,1,0.1c-0.4,0-0.7,0-1-0.1c1.2,0.1,2.4,0.2,3.7,0.3
			c1.5,0.1,3,0.2,4.3,0.2c0.1,0,0.1,0,0.2,0c0.2,0,0.4,0,0.7,0c0.2,0,0.4,0,0.5,0c0.2,0,0.4,0,0.6,0c0.4,0,0.8,0,1.2,0
			c0.3,0,0.6,0,0.9,0c0.1,0,0.3,0,0.4,0c0,0,0.1,0,0.1,0h0.9c0.8,0,1.6,0,2.3-0.1c9-0.7,17.9-4.8,25.7-12.1c2.7-2.5,5.3-5.5,7.8-8.8
			C230.5,406,231.9,403.8,233.3,401.5z"/>
		<path class="st1" d="M68.8,357.1c0,0.1,0.1,0.1,0.1,0.2c-0.1-0.2-0.2-0.3-0.2-0.5C68.7,356.9,68.8,357,68.8,357.1z"/>
		<path class="st1" d="M421.4,126.2c0.9,1.2,1.7,2.5,2.4,3.8C423.1,128.8,422.3,127.6,421.4,126.2z"/>
		<path class="st1" d="M428.1,261.5c-6.6,6.6-16,11.8-28,14.8c0,0.1,0,0.1-0.1,0.2c0-0.1,0-0.1,0.1-0.2c-15.1,3.7-31.9,3.4-48.1-0.2
			c-12.5-2.8-24.6-7.6-35.2-14c-10.2-6.1-19-13.6-25.5-22.3c0,0,0,0,0,0.1c0,0,0,0,0-0.1c-0.7-0.9-1.3-1.8-1.9-2.7
			c-0.7,0.2-1.5,0.5-2.5,0.9c-0.5,0.2-1,0.4-1.5,0.6c1.2,2,2.6,4,4.1,6.1c0-0.1,0.1-0.2,0.1-0.3c0,0.1-0.1,0.2-0.1,0.3
			c3.3,4.3,7.1,8.5,11.3,12.3c6.8,6.2,14.6,11.7,23.1,16.4c22.4,12.4,49.1,18.9,71.5,15.8c0.3-0.6,0.5-1.2,0.8-1.8
			c-0.3,0.6-0.5,1.2-0.8,1.8c7.1-1,13.3-2.8,18.4-5.4c6.3-3.2,11-7.4,14.1-12.5c0.1-0.1,0.2-0.3,0.2-0.4c0.3-0.5,0.6-1.1,0.9-1.6
			c0.1-0.2,0.2-0.3,0.2-0.5c0.2-0.3,0.3-0.7,0.4-1c0,0,0-0.1,0-0.1c0.5-1.4,1.1-2.8,1.7-4.4c0.1-0.3,0.2-0.5,0.3-0.8
			c1.8-4.7,3.6-9.9,5.2-14.5c0-0.1,0-0.1,0.1-0.2c0,0,0,0.1,0,0.1C435.1,252.8,432.1,257.4,428.1,261.5z"/>
		<path class="st1" d="M133.7,371.5c8.9-0.1,18-1.4,26.8-4c5.9-1.7,11.7-4,17.3-6.8c27.3-13.9,42-37.8,40.6-61.1
			c-0.1-0.8-0.1-1.5-0.2-2.2c0,0.5,0,1.1,0.1,2c0,0,0,0,0,0.1c-3,6.1-8.2,11.2-15.3,15.1c-5.2,2.8-11.6,4.9-18.8,6.1h0
			c-21.5,3.5-46.7-1.7-68.5-12.6c-10.3-5.1-19.8-11.5-27.7-18.8c-3.9-3.6-7.4-7.5-10.5-11.5c-10.4-13.8-13.4-27.4-9.9-38.6
			c0.1-0.2,0.1-0.4,0.2-0.5c0,0,0-0.1,0-0.1c0,0,0-0.1,0-0.1c0.2-0.6,0.5-1.3,0.8-1.9c-0.2,0.4-0.4,0.9-0.6,1.4
			c-0.4,1-0.8,1.9-1.1,2.8c0,0.1,0,0.1-0.1,0.2c0,0.1-0.1,0.1-0.1,0.2c-0.3,0.9-0.6,1.7-1,2.6c-0.3,0.7-0.5,1.5-0.8,2.3
			c-0.2,0.7-0.4,1.3-0.6,1.8c-1.1,3.1-2.3,7.1-3.1,10.4c-0.1,0.3-0.2,0.7-0.2,1c0,0.1,0,0.2-0.1,0.2c0,0,0,0,0,0c0,0,0,0,0,0
			s0,0,0,0c0,0,0,0,0,0.1c-4.9,24.4,12,47.8,38.1,62.1c10.7,5.9,23,10.3,35.9,12.6c14.6,2.6,30.1,2.6,45.1-0.9h0
			c16.2-4.4,25.6-11.9,31-18.8c4.7-6,6.5-11.5,7.4-14.4c-0.2,6.2-1.8,14.7-7.7,23.6c-5.9,9-16,18.3-33.2,26.1h0
			c-8.1,3.1-16.4,5.1-24.5,6.2c-11.3,1.5-22.4,1.2-32.9-0.6c-34.6-6-62.1-28.8-64-59.6c0-0.5,0-1.1-0.1-1.7v0.6c0,0.2,0,0.3,0,0.5
			v0.3c0,0.4,0,0.9,0,1.3l-0.1,1.3c0,0.2,0,0.4,0,0.5c0,0.7,0,1.4,0,2.1c0,1.1,0.1,2.2,0.1,3.4c0,0.3,0,0.6,0,1c0,0.4,0,0.8,0.1,1.2
			c0,0,0,0,0,0.1v0.4c0,0.2,0,0.5,0,0.7v0.2c0,0.4,0,0.8,0.1,1.2c0,0.4,0.1,0.9,0.1,1.3c0,0,0,0,0,0.1c0,0.3,0.1,0.5,0.1,0.8
			c0,0.3,0.1,0.6,0.1,0.9c0,0.3,0.1,0.6,0.1,1c0,0.3,0.1,0.7,0.1,1c0,0,0,0.1,0,0.2c0,0.4,0.1,0.8,0.1,1.2c0,0.3,0.1,0.6,0.1,1v0.1
			c0,0,0,0,0,0c0,0.3,0.1,0.5,0.1,0.8c0,0.1,0,0.2,0,0.4v0.1l0.1,0.9c0,0,0,0,0,0.1c0,0.1,0,0.1,0,0.1c1.2,8.3,4.6,16.5,10.2,24
			C81.5,361.8,107,371.9,133.7,371.5z"/>
		<path class="st1" d="M315.2,71c0.2,0,0.5,0.1,0.7,0.1c6,0.8,11.9,3,17.4,6.7c4.8,3.2,9.4,7.6,13.5,13.1c0.5,0.7,1,1.4,1.5,2.2
			c2.7,3.8,5,7.9,7,12.3c5.4,11.8,8.4,25.4,9,39.3c0.2,5.6,0.1,11.2-0.4,16.8c-0.8,8.7-2.6,17.2-5.3,25.2c-2.3,6.7-5.2,13-8.7,18.8
			c-1.4,2.4-2.9,4.5-4.5,6.6c-2.4,3.1-4.9,5.9-7.5,8.4c-9.3,8.7-20,12.9-30.6,12.7h0c-0.1,0-0.3,0-0.4-0.1l0.4,0.1h-0.5
			c0.2,0,0.5,0,0.7,0c13.2,2.3,27.5-1.4,40.1-11.2c3.3-2.5,6.4-5.4,9.4-8.7c1.8-2.1,3.6-4.2,5.4-6.5h0v0c4.7-6.3,8.6-13.3,11.7-20.6
			c3.9-9.4,6.5-19.4,7.7-29.5c2.3-19.1-0.5-38.3-8.4-53.8c-1.8-3.5-3.9-6.9-6.2-10c-3.2-4.2-6.7-7.8-10.4-10.7
			c-5.9-4.5-12.3-7.5-19.1-8.8c-0.1,0-0.2-0.1-0.4-0.1l-2-0.3c-1.6-0.3-3.2-0.6-4.8-0.8c-0.8-0.1-1.6-0.2-2.3-0.3
			c-0.4,0-0.8-0.1-1.2-0.1c-2.2-0.3-4.4-0.5-6.6-0.7c-0.4,0-0.8,0-1.2-0.1c-0.6-0.1-1.2-0.1-1.9-0.1c-0.1,0-0.3,0-0.4,0h-0.4
			c-0.5,0-1.1-0.1-1.7-0.1c-0.5,0-1,0-1.5-0.1c-0.8,0-1.7,0-2.6,0c0.8,0,1.5,0.1,2.4,0.1C313.7,71,314.5,71,315.2,71z"/>
	</g>
</g>
</svg>
